SplineFontDB: 3.0
FontName: Sancreek
FullName: Sancreek
FamilyName: Sancreek
Weight: Normal
Copyright: Copyright (c) 2011 by vernon adams. All rights reserved.
Version: 001.001
ItalicAngle: 0
UnderlinePosition: -103
UnderlineWidth: 102
Ascent: 1638
Descent: 410
sfntRevision: 0x00010000
LayerCount: 2
Layer: 0 0 "Back"  1
Layer: 1 0 "Fore"  0
NeedsXUIDChange: 1
XUID: [1021 14 500265001 7053228]
FSType: 0
OS2Version: 3
OS2_WeightWidthSlopeOnly: 0
OS2_UseTypoMetrics: 1
CreationTime: 1314885505
ModificationTime: 1315313705
PfmFamily: 17
TTFWeight: 400
TTFWidth: 5
LineGap: 58
VLineGap: 0
Panose: 2 0 8 3 5 0 0 2 0 3
OS2TypoAscent: -196
OS2TypoAOffset: 1
OS2TypoDescent: -105
OS2TypoDOffset: 1
OS2TypoLinegap: 115
OS2WinAscent: -68
OS2WinAOffset: 1
OS2WinDescent: -7
OS2WinDOffset: 1
HheadAscent: -68
HheadAOffset: 1
HheadDescent: 7
HheadDOffset: 1
OS2SubXSize: 1331
OS2SubYSize: 1228
OS2SubXOff: 0
OS2SubYOff: 153
OS2SupXSize: 1331
OS2SupYSize: 1228
OS2SupXOff: 0
OS2SupYOff: 716
OS2StrikeYSize: 102
OS2StrikeYPos: 852
OS2Vendor: 'newt'
OS2CodePages: 20000083.00000000
OS2UnicodeRanges: 00000007.00000000.00000000.00000000
Lookup: 258 0 0 "'kern' Horizontal Kerning in Latin lookup 0"  {"'kern' Horizontal Kerning in Latin lookup 0 subtable"  } ['kern' ('latn' <'dflt' > ) ]
DEI: 91125
LangName: 1033 "" "" "Regular" "1.000;newt;Sancreek" "" "Version 1.000;PS 001.001;hotconv 1.0.56" "" "Sancreek is a trademark of vernon adams." "vernon adams" "vernon adams" "Copyright (c) 2011 by vernon adams. All rights reserved." 
Encoding: UnicodeBmp
Compacted: 1
UnicodeInterp: none
NameList: Adobe Glyph List
DisplaySize: -48
AntiAlias: 1
FitToEm: 1
WidthSeparation: 207
WinInfo: 0 18 9
BeginPrivate: 8
BlueValues 38 [-132 0 1420 1420 1442 1509 1561 1586]
OtherBlues 11 [-515 -349]
BlueScale 9 0.0059639
BlueShift 2 19
StdHW 5 [180]
StdVW 5 [232]
StemSnapH 9 [151 180]
StemSnapV 21 [127 232 260 311 331]
EndPrivate
BeginChars: 65546 353

StartChar: exclam
Encoding: 33 33 2
Width: 419
Flags: HW
LayerCount: 2
Fore
SplineSet
257 377 m 1
 153 377 l 1
 96 976 l 1
 91 1069 l 2
 88 1122 83 1176 83 1228 c 0
 83 1288 92 1341 115 1384 c 1
 137 1391 162 1395 189 1395 c 0
 249 1395 294 1379 327 1354 c 1
 334 1314 335 1272 335 1228 c 0
 335 1161 331 1094 328 1027 c 1
 257 377 l 1
72 183 m 1
 113 226 187 259 271 259 c 1
 314 218 347 144 347 60 c 1
 306 17 232 -16 148 -16 c 1
 105 25 72 99 72 183 c 1
EndSplineSet
EndChar

StartChar: quotedbl
Encoding: 34 34 3
Width: 700
Flags: HW
LayerCount: 2
Fore
SplineSet
245 1192 m 1
 212 841 l 1
 193 820 168 810 137 810 c 1
 122 819 114 839 111 870 c 2
 88 1113 l 1
 85 1186 80 1260 80 1332 c 1
 108 1379 149 1395 204 1395 c 1
 231 1379 246 1347 246 1284 c 0
 246 1253 245 1223 245 1192 c 1
617 1192 m 1
 584 841 l 1
 564 820 539 810 508 810 c 1
 495 819 486 839 483 870 c 2
 460 1113 l 1
 457 1186 452 1260 452 1332 c 1
 480 1379 521 1395 576 1395 c 1
 603 1379 618 1347 618 1284 c 0
 618 1253 617 1223 617 1192 c 1
EndSplineSet
EndChar

StartChar: numbersign
Encoding: 35 35 4
Width: 1149
Flags: HW
LayerCount: 2
Fore
SplineSet
1064 510 m 1
 1064 381 l 1
 816 381 l 1
 747 -8 l 1
 611 -8 l 1
 679 381 l 1
 375 381 l 1
 306 -8 l 1
 169 -8 l 1
 237 381 l 1
 56 381 l 1
 56 510 l 1
 261 510 l 1
 314 807 l 1
 83 807 l 1
 83 937 l 1
 338 937 l 1
 405 1326 l 1
 542 1326 l 1
 475 937 l 1
 778 937 l 1
 845 1326 l 1
 983 1326 l 1
 915 937 l 1
 1089 937 l 1
 1089 807 l 1
 891 807 l 1
 839 510 l 1
 1064 510 l 1
755 807 m 1
 450 807 l 1
 397 510 l 1
 702 510 l 1
 755 807 l 1
EndSplineSet
EndChar

StartChar: dollar
Encoding: 36 36 5
Width: 1053
Flags: HW
LayerCount: 2
Fore
SplineSet
523 -217 m 1
 412 -217 l 1
 412 43 l 1
 523 43 l 1
 523 -217 l 1
523 1353 m 1
 412 1353 l 1
 412 1603 l 1
 523 1603 l 1
 523 1353 l 1
703 -217 m 1
 592 -217 l 1
 592 43 l 1
 703 43 l 1
 703 -217 l 1
703 1353 m 1
 592 1353 l 1
 592 1603 l 1
 703 1603 l 1
 703 1353 l 1
366 555 m 0
 342 568 350 635 275 695 c 1
 161 769 89 869 89 1008 c 0
 89 1263 264 1399 527 1399 c 0
 666 1399 923 1326 923 1081 c 0
 923 1038 909 986 909 946 c 0
 909 913 918 883 952 848 c 1
 952 848 938 835 911 835 c 0
 904 835 896 836 888 838 c 0
 785 865 744 970 744 979 c 1
 741 977 686 937 630 937 c 0
 554 937 546 988 546 996 c 2
 546 1000 l 1
 613 1010 653 1037 673 1110 c 0
 674 1116 674 1122 674 1127 c 0
 674 1188 615 1217 546 1217 c 0
 430 1217 413 1124 413 1058 c 0
 413 959 457 905 537 875 c 0
 546 871 558 870 568 870 c 0
 613 870 668 894 687 894 c 0
 708 894 707 799 774 762 c 1
 901 679 998 553 998 377 c 0
 998 146 795 4 485 4 c 0
 313 4 87 125 87 356 c 0
 87 394 98 436 98 474 c 0
 98 511 88 548 56 584 c 1
 56 584 71 598 99 598 c 0
 106 598 113 597 121 595 c 0
 225 567 252 452 252 446 c 1
 252 446 320 493 385 493 c 0
 466 493 475 439 475 430 c 0
 475 429 475 428 475 427 c 0
 427 417 370 385 370 309 c 0
 370 232 431 195 508 195 c 0
 637 195 674 286 674 335 c 0
 674 486 569 569 469 569 c 0
 424 569 389 553 373 553 c 0
 371 553 368 554 366 555 c 0
EndSplineSet
EndChar

StartChar: percent
Encoding: 37 37 6
Width: 1746
Flags: HW
LayerCount: 2
Fore
SplineSet
376 1220 m 0
 295 1220 254 1136 254 967 c 0
 254 797 295 712 376 712 c 0
 457 712 497 797 497 967 c 0
 497 1136 457 1220 376 1220 c 0
458 -16 m 1
 322 -16 l 1
 1298 1330 l 1
 1429 1330 l 1
 458 -16 l 1
1375 596 m 0
 1294 596 1253 511 1253 342 c 0
 1253 173 1294 88 1375 88 c 0
 1456 88 1497 173 1497 342 c 0
 1497 511 1456 596 1375 596 c 0
376 1340 m 0
 580 1340 688 1196 688 967 c 0
 688 738 580 594 376 594 c 0
 171 594 63 738 63 967 c 0
 63 1196 171 1340 376 1340 c 0
1375 715 m 0
 1579 715 1687 571 1687 342 c 0
 1687 114 1579 -31 1375 -31 c 0
 1170 -31 1063 114 1063 342 c 0
 1063 571 1170 715 1375 715 c 0
EndSplineSet
EndChar

StartChar: ampersand
Encoding: 38 38 7
Width: 1255
Flags: HW
LayerCount: 2
Fore
SplineSet
806 285 m 0
 806 302 810 335 810 372 c 0
 810 434 799 505 738 525 c 1
 738 525 746 551 789 551 c 0
 891 551 950 452 950 458 c 1
 950 458 1005 546 1088 546 c 0
 1120 546 1165 533 1165 493 c 2
 1165 486 l 1
 1088 453 1088 398 1088 326 c 0
 1088 155 1121 47 1208 -22 c 1
 1208 -22 1177 -73 1104 -73 c 0
 1004 -73 937 52 937 52 c 1
 860 -69 709 -86 593 -86 c 0
 355 -86 143 7 143 193 c 0
 143 326 56 384 56 408 c 0
 56 422 143 510 143 589 c 0
 143 640 194 806 299 821 c 1
 194 829 143 926 143 978 c 0
 143 1092 56 1118 56 1130 c 0
 56 1152 153 1209 153 1323 c 0
 153 1513 370 1586 613 1586 c 0
 736 1586 989 1536 989 1374 c 2
 989 1373 l 2
 989 1250 1009 1189 1072 1136 c 1
 1072 1136 1069 1096 1000 1096 c 0
 917 1096 860 1174 860 1174 c 1
 860 1174 802 1096 707 1096 c 0
 676 1096 675 1136 675 1136 c 1
 712 1177 719 1211 719 1302 c 0
 719 1344 671 1372 589 1372 c 0
 439 1372 421 1273 421 1197 c 0
 421 1092 410 913 542 913 c 0
 656 913 691 935 722 979 c 1
 722 979 749 976 749 929 c 0
 749 865 709 826 709 826 c 1
 709 826 749 792 749 735 c 0
 749 686 722 684 722 684 c 1
 681 727 641 743 541 743 c 0
 417 743 420 532 420 336 c 0
 420 254 443 146 639 146 c 0
 787 146 806 209 806 285 c 0
EndSplineSet
EndChar

StartChar: quoteright
Encoding: 8217 8217 8
Width: 453
Flags: HW
LayerCount: 2
Fore
SplineSet
88 853 m 1
 88 947 l 1
 191 972 250 1026 250 1149 c 1
 248 1149 l 1
 221 1136 179 1132 140 1132 c 1
 109 1173 78 1239 78 1319 c 1
 99 1362 152 1395 216 1395 c 0
 267 1395 311 1381 350 1360 c 1
 367 1297 377 1229 377 1158 c 0
 377 974 264 869 88 853 c 1
EndSplineSet
EndChar

StartChar: parenleft
Encoding: 40 40 9
Width: 709
Flags: HW
LayerCount: 2
Fore
SplineSet
659 1608 m 1
 659 1467 l 1
 385 1342 308 1034 308 694 c 0
 308 355 385 44 659 -78 c 1
 659 -219 l 1
 271 -110 69 265 69 694 c 0
 69 1122 271 1499 659 1608 c 1
EndSplineSet
EndChar

StartChar: parenright
Encoding: 41 41 10
Width: 711
Flags: HW
LayerCount: 2
Fore
SplineSet
51 -219 m 1
 51 -78 l 1
 325 44 402 355 402 694 c 0
 402 1034 325 1342 51 1467 c 1
 51 1608 l 1
 438 1499 641 1123 641 694 c 0
 641 266 438 -112 51 -219 c 1
EndSplineSet
EndChar

StartChar: asterisk
Encoding: 42 42 11
Width: 866
Flags: HW
LayerCount: 2
Fore
SplineSet
670 412 m 1
 668 408 l 1
 440 550 l 1
 203 406 l 1
 202 409 l 1
 266 667 l 1
 56 849 l 1
 324 869 l 1
 432 1125 l 1
 534 876 l 1
 810 853 l 1
 605 679 l 1
 670 412 l 1
EndSplineSet
EndChar

StartChar: plus
Encoding: 43 43 12
Width: 1162
Flags: HW
LayerCount: 2
Fore
SplineSet
500 655 m 1
 500 1087 l 1
 663 1087 l 1
 663 655 l 1
 1095 655 l 1
 1095 492 l 1
 663 492 l 1
 663 60 l 1
 500 60 l 1
 500 492 l 1
 68 492 l 1
 68 655 l 1
 500 655 l 1
EndSplineSet
EndChar

StartChar: comma
Encoding: 44 44 13
Width: 470
Flags: HW
LayerCount: 2
Fore
SplineSet
96 -283 m 1
 96 -189 l 1
 199 -163 258 -109 258 13 c 1
 256 13 l 1
 229 1 187 -3 148 -3 c 1
 117 38 86 103 86 183 c 1
 107 226 160 259 224 259 c 0
 275 259 319 245 358 224 c 1
 375 161 385 93 385 22 c 0
 385 -160 272 -267 96 -283 c 1
EndSplineSet
EndChar

StartChar: hyphen
Encoding: 45 45 14
Width: 838
Flags: HW
LayerCount: 2
Fore
SplineSet
113 548 m 1
 113 548 88 551 88 594 c 2
 88 690 l 2
 88 733 113 736 113 736 c 1
 181 726 302 723 429 723 c 0
 545 723 671 729 723 736 c 1
 723 736 748 733 748 690 c 2
 748 594 l 2
 748 550 723 548 723 548 c 1
 676 554 544 561 426 561 c 0
 297 561 175 558 113 548 c 1
EndSplineSet
EndChar

StartChar: period
Encoding: 46 46 15
Width: 529
Flags: HW
LayerCount: 2
Fore
SplineSet
114 274 m 1
 155 295 208 307 266 307 c 0
 312 307 362 299 411 282 c 1
 432 241 444 189 444 132 c 0
 444 84 435 34 418 -15 c 1
 377 -36 324 -48 266 -48 c 0
 219 -48 169 -40 119 -22 c 1
 99 18 88 69 88 126 c 0
 88 173 96 224 114 274 c 1
EndSplineSet
EndChar

StartChar: slash
Encoding: 47 47 16
Width: 916
Flags: HW
LayerCount: 2
Fore
SplineSet
50 -35 m 1
 726 1612 l 1
 871 1542 l 1
 195 -105 l 1
 50 -35 l 1
EndSplineSet
EndChar

StartChar: zero
Encoding: 48 48 17
Width: 1263
Flags: HW
LayerCount: 2
Fore
SplineSet
479 388 m 0
 479 173 479 65 639 65 c 0
 800 65 801 185 801 399 c 0
 801 708 716 740 716 755 c 0
 716 788 801 783 801 1135 c 0
 801 1351 799 1441 639 1441 c 0
 480 1441 478 1351 478 1135 c 0
 478 783 562 788 562 755 c 0
 562 733 479 694 479 388 c 0
1104 421 m 0
 1104 94 871 -69 639 -69 c 0
 406 -69 174 94 174 421 c 0
 174 708 50 734 50 748 c 0
 50 773 174 779 174 1077 c 0
 174 1416 407 1587 639 1587 c 0
 872 1587 1104 1417 1104 1077 c 0
 1104 784 1214 772 1214 748 c 0
 1214 746 1211 744 1205 739 c 0
 1172 714 1104 659 1104 421 c 0
EndSplineSet
EndChar

StartChar: one
Encoding: 49 49 18
Width: 650
Flags: HW
LayerCount: 2
Fore
SplineSet
177 375 m 0
 177 726 68 722 68 756 c 0
 68 801 177 770 177 1148 c 0
 177 1338 146 1415 56 1503 c 1
 56 1503 60 1562 161 1562 c 0
 265 1562 326 1477 326 1477 c 1
 326 1477 388 1562 491 1562 c 0
 593 1562 597 1503 597 1503 c 1
 507 1415 476 1338 476 1148 c 0
 476 770 585 801 585 756 c 0
 585 722 476 726 476 375 c 0
 476 169 507 80 597 -14 c 1
 597 -14 593 -74 491 -74 c 0
 388 -74 326 11 326 11 c 1
 326 11 265 -74 161 -74 c 0
 61 -74 56 -14 56 -14 c 1
 146 80 177 169 177 375 c 0
EndSplineSet
EndChar

StartChar: two
Encoding: 50 50 19
Width: 1164
Flags: HW
LayerCount: 2
Fore
SplineSet
1056 1157 m 0
 1056 836 875 647 443 246 c 1
 530 246 699 240 785 240 c 0
 912 240 974 278 1041 367 c 1
 1041 367 1114 347 1114 291 c 0
 1114 199 961 133 944 129 c 1
 961 116 1024 67 1024 2 c 0
 1024 -61 997 -72 990 -74 c 1
 917 -20 853 0 796 0 c 0
 672 0 402 -185 311 46 c 1
 311 46 203 -76 125 -76 c 0
 96 -76 56 -50 56 -1 c 0
 56 7 57 14 61 24 c 1
 332 294 724 731 724 1016 c 0
 724 1138 615 1148 615 1165 c 0
 615 1174 708 1251 708 1310 c 2
 708 1318 l 1
 694 1430 611 1508 503 1508 c 0
 380 1508 321 1416 321 1320 c 0
 321 1213 392 1102 527 1102 c 0
 532 1102 539 1102 545 1103 c 1
 545 1098 549 1022 433 1022 c 0
 371 1022 313 1052 310 1056 c 0
 310 1057 275 890 150 890 c 0
 124 890 111 901 111 901 c 1
 139 934 151 964 151 999 c 0
 151 1045 103 1143 103 1232 c 0
 103 1479 354 1586 547 1586 c 0
 855 1586 1056 1385 1056 1157 c 0
EndSplineSet
EndChar

StartChar: three
Encoding: 51 51 20
Width: 1139
Flags: HW
LayerCount: 2
Fore
SplineSet
606 833 m 0
 666 833 732 910 732 1016 c 0
 732 1138 623 1148 623 1165 c 0
 623 1174 716 1251 716 1310 c 2
 716 1318 l 1
 702 1430 619 1508 511 1508 c 0
 388 1508 329 1416 329 1320 c 0
 329 1213 400 1102 535 1102 c 0
 540 1102 547 1102 553 1103 c 1
 553 1098 557 1022 441 1022 c 0
 379 1022 321 1052 318 1056 c 0
 318 1057 283 890 158 890 c 0
 133 890 119 901 119 901 c 1
 147 934 159 964 159 999 c 0
 159 1045 111 1143 111 1232 c 0
 111 1479 362 1586 555 1586 c 0
 863 1586 1064 1385 1064 1157 c 0
 1064 1023 995 879 839 761 c 1
 1000 642 1071 498 1071 362 c 0
 1071 130 864 -74 550 -74 c 0
 301 -74 62 60 62 332 c 0
 62 413 115 488 115 559 c 0
 115 589 106 620 81 654 c 1
 81 654 95 664 118 664 c 0
 205 664 275 557 276 477 c 1
 276 477 342 512 406 512 c 0
 505 512 515 450 515 434 c 2
 515 426 l 1
 393 418 336 307 336 202 c 0
 336 102 387 7 485 7 c 0
 602 7 709 101 709 230 c 0
 709 292 623 353 623 362 c 0
 623 378 730 390 730 516 c 0
 730 623 669 705 606 705 c 0
 549 705 524 686 495 686 c 0
 466 686 450 722 450 767 c 0
 450 814 465 852 502 852 c 0
 529 852 553 833 606 833 c 0
EndSplineSet
EndChar

StartChar: four
Encoding: 52 52 21
Width: 1243
Flags: HW
LayerCount: 2
Fore
SplineSet
798 1091 m 1
 800 1091 l 1
 800 1091 864 1228 970 1228 c 0
 1042 1228 1046 1174 1046 1174 c 1
 978 1078 956 1004 956 812 c 2
 956 515 l 1
 958 515 l 2
 1051 515 1098 538 1146 584 c 1
 1146 584 1186 580 1186 514 c 0
 1186 455 1134 419 1129 416 c 1
 1131 414 1186 377 1186 317 c 0
 1186 251 1146 246 1146 246 c 1
 1077 311 1020 336 967 336 c 2
 956 336 l 1
 960 158 989 76 1066 -13 c 1
 1066 -13 1062 -67 970 -67 c 0
 876 -67 820 10 820 10 c 1
 820 10 764 -67 670 -67 c 0
 579 -67 574 -13 574 -13 c 1
 646 71 676 149 682 307 c 1
 675 308 668 308 661 308 c 0
 589 308 513 246 445 246 c 0
 387 246 335 270 298 360 c 1
 298 360 240 246 142 246 c 0
 76 246 53 277 53 324 c 0
 53 428 124 503 193 586 c 1
 390 1068 l 2
 465 1251 379 1462 339 1503 c 1
 339 1503 356 1562 433 1562 c 0
 552 1562 565 1477 565 1477 c 1
 581 1542 637 1565 692 1565 c 0
 740 1565 829 1535 795 1515 c 0
 585 1391 278 516 278 516 c 1
 278 516 443 516 684 515 c 1
 682 812 l 1
 682 974 660 1036 592 1114 c 1
 592 1114 596 1168 668 1168 c 0
 750 1168 798 1091 798 1091 c 1
EndSplineSet
EndChar

StartChar: five
Encoding: 53 53 22
Width: 1119
Flags: HW
LayerCount: 2
Fore
SplineSet
719 643 m 0
 719 833 620 907 510 907 c 0
 416 907 314 855 254 776 c 0
 239 756 217 746 196 746 c 0
 160 746 126 772 126 817 c 0
 126 820 126 824 127 1509 c 1
 646 1476 l 1
 813 1476 888 1493 966 1546 c 1
 966 1546 1020 1542 1020 1470 c 0
 1020 1383 943 1349 943 1349 c 1
 943 1349 1020 1314 1020 1250 c 0
 1020 1138 974 1122 974 1122 c 1
 908 1209 844 1231 778 1231 c 0
 672 1231 567 1209 468 1209 c 0
 405 1209 341 1221 283 1266 c 1
 283 911 l 1
 393 973 497 1000 591 1000 c 0
 866 1000 1053 760 1053 438 c 0
 1053 161 894 -74 551 -74 c 0
 302 -74 63 36 63 315 c 0
 63 392 116 464 116 532 c 0
 116 562 107 593 82 627 c 1
 82 627 96 637 119 637 c 0
 206 637 276 530 277 450 c 1
 277 450 343 485 407 485 c 0
 488 485 496 375 496 347 c 2
 496 339 l 1
 479 347 463 351 449 351 c 0
 372 351 339 244 339 181 c 0
 339 75 442 13 543 13 c 0
 649 13 757 80 757 234 c 0
 757 446 631 468 631 488 c 0
 631 498 719 580 719 643 c 0
EndSplineSet
EndChar

StartChar: six
Encoding: 54 54 23
Width: 1170
Flags: HW
LayerCount: 2
Fore
SplineSet
140 728 m 0
 140 771 136 819 136 860 c 0
 136 1369 412 1552 658 1552 c 0
 857 1552 1037 1432 1037 1267 c 0
 1037 1208 1020 1142 980 1069 c 0
 976 1061 974 1051 974 1041 c 0
 974 1020 980 995 980 970 c 1
 980 970 974 969 968 969 c 0
 871 969 853 1081 853 1128 c 0
 853 1156 857 1177 857 1177 c 1
 857 1177 834 1172 802 1172 c 0
 679 1172 658 1237 658 1264 c 0
 658 1278 662 1284 662 1285 c 1
 675 1281 688 1279 702 1279 c 0
 748 1279 824 1312 824 1364 c 0
 824 1400 783 1427 708 1427 c 0
 591 1427 425 1352 425 1117 c 0
 425 1067 432 1011 449 946 c 1
 496 963 550 972 605 972 c 0
 822 972 1005 864 1025 672 c 0
 1044 493 1122 486 1122 471 c 0
 1122 455 1035 457 1035 277 c 0
 1035 15 822 -80 596 -80 c 0
 370 -80 137 15 137 277 c 0
 137 457 50 455 50 471 c 0
 50 487 140 532 140 728 c 0
515 461 m 0
 515 448 428 451 428 282 c 0
 428 131 492 55 595 55 c 0
 695 55 754 127 754 282 c 0
 754 451 666 447 666 461 c 0
 666 474 764 478 764 638 c 0
 764 767 702 832 600 832 c 0
 499 832 438 768 438 638 c 0
 438 478 515 474 515 461 c 0
EndSplineSet
EndChar

StartChar: seven
Encoding: 55 55 24
Width: 1120
Flags: HW
LayerCount: 2
Fore
SplineSet
1066 1472 m 0
 746 922 558 568 558 270 c 0
 558 162 583 61 635 -40 c 0
 635 -41 636 -43 636 -44 c 0
 636 -57 608 -67 569 -67 c 0
 503 -67 407 -38 366 51 c 1
 310 -22 184 -67 119 -67 c 0
 95 -67 79 -61 79 -47 c 0
 79 -41 82 -33 90 -23 c 0
 169 77 348 487 348 731 c 0
 348 768 345 787 335 832 c 1
 564 905 744 1173 812 1305 c 1
 812 1305 575 1304 413 1304 c 0
 257 1304 180 1240 93 1112 c 1
 93 1112 62 1130 62 1186 c 0
 62 1280 131 1357 139 1363 c 1
 133 1366 62 1416 62 1485 c 0
 62 1542 85 1557 95 1560 c 1
 194 1506 274 1488 353 1488 c 0
 462 1488 594 1557 698 1557 c 0
 764 1557 818 1529 847 1438 c 1
 847 1438 941 1561 1011 1561 c 0
 1035 1561 1074 1535 1074 1499 c 0
 1074 1491 1071 1481 1066 1472 c 0
EndSplineSet
EndChar

StartChar: eight
Encoding: 56 56 25
Width: 1096
Flags: HW
LayerCount: 2
Fore
SplineSet
94 1190 m 0
 94 1446 339 1585 570 1585 c 0
 776 1585 971 1473 971 1252 c 0
 971 1098 847 954 682 872 c 1
 939 756 1038 564 1038 347 c 0
 1038 45 790 -85 511 -85 c 0
 211 -85 63 95 63 290 c 0
 63 464 163 647 358 750 c 1
 196 853 94 1005 94 1190 c 0
689 318 m 0
 689 559 555 627 417 704 c 1
 384 637 341 567 341 477 c 0
 341 387 405 356 405 340 c 0
 405 332 342 280 342 195 c 0
 342 97 426 31 517 31 c 0
 599 31 689 110 689 318 c 0
405 1266 m 0
 405 1111 440 1035 621 919 c 1
 672 973 738 1037 738 1106 c 0
 738 1187 665 1234 665 1240 c 0
 665 1254 742 1279 742 1354 c 0
 742 1430 664 1477 581 1477 c 0
 497 1477 405 1416 405 1266 c 0
EndSplineSet
EndChar

StartChar: nine
Encoding: 57 57 26
Width: 1168
Flags: HW
LayerCount: 2
Fore
SplineSet
1029 744 m 0
 1029 701 1033 653 1033 612 c 0
 1033 103 757 -80 511 -80 c 0
 312 -80 132 40 132 205 c 0
 132 264 149 330 189 403 c 0
 193 411 195 421 195 431 c 0
 195 452 189 477 189 502 c 1
 189 502 195 503 201 503 c 0
 298 503 316 391 316 344 c 0
 316 316 312 295 312 295 c 1
 312 295 335 300 367 300 c 0
 490 300 511 235 511 208 c 0
 511 194 507 188 507 187 c 1
 494 191 481 193 467 193 c 0
 421 193 345 160 345 108 c 0
 345 72 386 45 461 45 c 0
 578 45 744 120 744 355 c 0
 744 405 737 461 720 526 c 1
 673 509 619 500 564 500 c 0
 347 500 164 608 144 800 c 0
 125 979 47 986 47 1001 c 0
 47 1017 134 1015 134 1195 c 0
 134 1457 347 1552 573 1552 c 0
 799 1552 1032 1457 1032 1195 c 0
 1032 1015 1119 1017 1119 1001 c 0
 1119 985 1029 940 1029 744 c 0
654 1011 m 0
 654 1024 741 1021 741 1190 c 0
 741 1341 677 1417 574 1417 c 0
 474 1417 415 1345 415 1190 c 0
 415 1021 503 1025 503 1011 c 0
 503 998 405 994 405 834 c 0
 405 705 467 640 569 640 c 0
 670 640 731 704 731 834 c 0
 731 994 654 998 654 1011 c 0
EndSplineSet
EndChar

StartChar: colon
Encoding: 58 58 27
Width: 441
Flags: HW
LayerCount: 2
Fore
SplineSet
83 183 m 1
 124 226 197 259 281 259 c 1
 324 218 357 144 357 60 c 1
 316 17 242 -16 158 -16 c 1
 115 25 83 99 83 183 c 1
83 867 m 1
 124 910 197 943 281 943 c 1
 324 902 357 828 357 744 c 1
 316 701 242 668 158 668 c 1
 115 709 83 783 83 867 c 1
EndSplineSet
EndChar

StartChar: semicolon
Encoding: 59 59 28
Width: 459
Flags: HW
LayerCount: 2
Fore
SplineSet
89 -283 m 1
 89 -189 l 1
 192 -163 251 -109 251 13 c 1
 249 13 l 1
 222 1 180 -3 141 -3 c 1
 110 38 79 103 79 183 c 1
 100 226 153 259 217 259 c 0
 268 259 312 245 351 224 c 1
 368 161 378 93 378 22 c 0
 378 -160 265 -267 89 -283 c 1
93 867 m 1
 134 910 207 943 291 943 c 1
 334 902 367 828 367 744 c 1
 326 701 252 668 168 668 c 1
 125 709 93 783 93 867 c 1
EndSplineSet
EndChar

StartChar: less
Encoding: 60 60 29
Width: 1209
Flags: HW
LayerCount: 2
Fore
SplineSet
1135 216 m 1
 1135 41 l 1
 66 498 l 1
 66 648 l 1
 1135 1107 l 1
 1135 931 l 1
 290 573 l 1
 1135 216 l 1
EndSplineSet
EndChar

StartChar: equal
Encoding: 61 61 30
Width: 1215
Flags: HW
LayerCount: 2
Fore
SplineSet
1121 870 m 1
 1121 707 l 1
 94 707 l 1
 94 870 l 1
 1121 870 l 1
1121 441 m 1
 1121 278 l 1
 94 278 l 1
 94 441 l 1
 1121 441 l 1
EndSplineSet
EndChar

StartChar: greater
Encoding: 62 62 31
Width: 1208
Flags: HW
LayerCount: 2
Fore
SplineSet
74 216 m 1
 919 573 l 1
 74 931 l 1
 74 1106 l 1
 1143 648 l 1
 1143 498 l 1
 74 41 l 1
 74 216 l 1
EndSplineSet
EndChar

StartChar: question
Encoding: 63 63 32
Width: 991
Flags: HW
LayerCount: 2
Fore
SplineSet
501 377 m 1
 372 377 l 1
 372 654 l 1
 375 697 400 730 431 763 c 1
 458 776 485 790 512 806 c 1
 608 838 688 906 688 1031 c 0
 688 1170 576 1249 453 1249 c 0
 302 1249 213 1167 206 1006 c 1
 217 1012 230 1017 244 1017 c 0
 250 1017 265 1018 265 1008 c 0
 265 998 260 976 237 944 c 1
 236 917 215 897 177 897 c 0
 100 897 55 984 55 1062 c 0
 55 1067 56 1072 56 1077 c 0
 83 1306 293 1406 479 1406 c 0
 720 1406 932 1275 932 1024 c 0
 932 761 647 662 514 533 c 1
 509 481 505 429 501 377 c 1
303 183 m 1
 344 226 418 259 502 259 c 1
 545 218 577 144 577 60 c 1
 536 17 463 -16 379 -16 c 1
 336 25 303 99 303 183 c 1
EndSplineSet
EndChar

StartChar: at
Encoding: 64 64 33
Width: 1798
Flags: HW
LayerCount: 2
Fore
SplineSet
659 496 m 0
 659 356 731 268 825 268 c 0
 997 268 1123 555 1123 733 c 0
 1123 862 1067 938 961 938 c 0
 781 938 659 682 659 496 c 0
1172 923 m 1
 1200 1038 l 1
 1367 1038 l 1
 1214 379 l 1
 1211 371 1210 363 1210 354 c 0
 1210 309 1230 266 1281 266 c 0
 1395 266 1598 475 1598 748 c 0
 1598 1046 1336 1319 948 1319 c 0
 566 1319 245 1034 245 553 c 0
 245 175 520 -106 971 -106 c 0
 1224 -106 1404 -32 1536 95 c 1
 1642 49 l 1
 1485 -121 1278 -237 973 -237 c 0
 349 -237 64 163 64 557 c 0
 64 985 366 1446 952 1446 c 0
 1415 1446 1732 1132 1732 747 c 0
 1732 463 1523 140 1230 140 c 0
 1099 140 1038 225 1038 298 c 1
 1036 298 l 1
 981 230 876 145 760 142 c 1
 656 142 531 203 499 379 c 1
 487 416 480 458 480 503 c 0
 480 763 682 1067 947 1067 c 0
 1058 1067 1121 1007 1172 923 c 1
EndSplineSet
EndChar

StartChar: A
Encoding: 65 65 34
Width: 1357
Flags: HW
LayerCount: 2
Fore
SplineSet
660 1562 m 0
 743 1562 827 1531 869 1456 c 1
 869 1456 929 1562 1052 1562 c 0
 1152 1562 1164 1503 1164 1503 c 1
 1096 1425 1070 1346 1070 1263 c 0
 1070 1226 1069 1189 1072 1148 c 0
 1100 765 1189 802 1189 754 c 0
 1189 726 1125 721 1125 510 c 0
 1125 473 1129 428 1133 375 c 1
 1156 169 1199 80 1304 -14 c 1
 1304 -14 1305 -74 1208 -74 c 0
 1111 -74 1041 11 1041 11 c 1
 1041 11 988 -74 874 -74 c 0
 773 -74 762 -14 762 -14 c 1
 799 61 820 134 820 257 c 0
 820 406 803 527 779 610 c 1
 759 629 713 640 659 640 c 0
 613 640 570 629 550 610 c 1
 526 527 509 406 509 257 c 0
 509 134 529 61 567 -14 c 1
 567 -14 556 -74 455 -74 c 0
 355 -74 308 11 308 11 c 1
 308 11 238 -74 141 -74 c 0
 44 -74 45 -14 45 -14 c 1
 150 80 193 169 216 375 c 1
 224 428 224 473 224 510 c 0
 224 721 160 726 160 754 c 0
 160 802 249 765 277 1148 c 0
 280 1189 279 1226 279 1263 c 0
 279 1346 253 1425 185 1503 c 1
 185 1503 197 1562 297 1562 c 0
 406 1562 460 1456 460 1456 c 1
 502 1531 583 1562 660 1562 c 0
659 790 m 0
 708 790 754 799 754 817 c 0
 754 1008 756 1122 733 1297 c 1
 724 1345 714 1367 663 1367 c 0
 612 1367 605 1345 596 1297 c 1
 573 1122 575 1008 575 817 c 0
 575 799 618 790 659 790 c 0
EndSplineSet
EndChar

StartChar: B
Encoding: 66 66 35
Width: 1169
Flags: HW
LayerCount: 2
Fore
SplineSet
888 761 m 1
 993 750 1044 612 1044 569 c 0
 1044 498 1131 420 1131 408 c 0
 1131 384 1044 326 1044 193 c 0
 1044 14 867 -73 664 -73 c 0
 557 -73 421 -61 350 42 c 1
 350 42 275 -73 163 -73 c 0
 90 -73 59 -22 59 -22 c 1
 146 59 179 185 179 386 c 0
 179 727 70 723 70 756 c 0
 70 801 179 772 179 1151 c 0
 179 1334 148 1417 58 1503 c 1
 58 1503 62 1562 163 1562 c 0
 280 1562 350 1459 350 1459 c 1
 421 1569 557 1586 664 1586 c 0
 862 1586 1034 1513 1034 1323 c 0
 1034 1209 1131 1152 1131 1130 c 0
 1131 1116 1044 1088 1044 958 c 0
 1044 894 993 772 888 761 c 1
477 853 m 1
 575 853 l 2
 749 853 764 1007 764 1137 c 0
 764 1204 786 1372 638 1372 c 0
 480 1372 478 1285 478 1220 c 0
 478 870 477 853 477 853 c 1
477 682 m 1
 477 682 478 659 478 309 c 0
 478 240 480 146 638 146 c 0
 786 146 765 330 765 400 c 0
 765 545 747 683 516 683 c 0
 491 683 477 682 477 682 c 1
EndSplineSet
EndChar

StartChar: C
Encoding: 67 67 36
Width: 1091
Flags: HW
LayerCount: 2
Fore
SplineSet
456 395 m 0
 456 218 457 117 598 117 c 0
 691 117 729 189 729 273 c 0
 729 383 664 513 575 525 c 1
 575 527 573 588 682 588 c 0
 752 588 799 550 799 550 c 2
 802 550 866 648 978 648 c 0
 1026 648 1035 617 1035 617 c 1
 1000 570 986 530 986 476 c 0
 986 425 1021 333 1021 269 c 0
 1021 -12 739 -73 585 -73 c 0
 324 -73 148 64 148 396 c 0
 148 728 39 724 39 756 c 0
 39 796 148 770 148 1096 c 0
 148 1485 362 1586 602 1586 c 0
 751 1586 1017 1527 1017 1235 c 0
 1017 1176 987 1090 987 1040 c 0
 987 978 1005 936 1045 887 c 1
 1045 887 1037 855 987 855 c 0
 874 855 808 954 808 950 c 1
 808 950 757 911 681 911 c 0
 568 911 571 972 571 973 c 0
 666 986 728 1115 728 1226 c 0
 728 1315 689 1392 596 1392 c 0
 467 1392 455 1290 455 1174 c 0
 455 779 565 811 565 765 c 0
 565 732 456 736 456 395 c 0
EndSplineSet
EndChar

StartChar: D
Encoding: 68 68 37
Width: 1211
Flags: HW
LayerCount: 2
Fore
SplineSet
490 342 m 0
 490 210 493 117 621 117 c 0
 754 117 752 200 752 351 c 0
 752 722 676 719 676 756 c 0
 676 809 752 762 752 1218 c 0
 752 1258 752 1372 630 1372 c 0
 492 1372 490 1285 490 1220 c 0
 490 763 566 807 566 756 c 0
 566 718 490 723 490 342 c 0
180 386 m 0
 180 727 71 723 71 756 c 0
 71 802 180 773 180 1163 c 0
 180 1341 149 1419 59 1503 c 1
 59 1503 63 1562 164 1562 c 0
 275 1562 342 1462 342 1462 c 1
 419 1570 563 1586 678 1586 c 0
 893 1586 1082 1491 1082 1126 c 0
 1082 770 1169 799 1169 756 c 0
 1169 723 1082 727 1082 386 c 0
 1082 61 922 -74 686 -74 c 0
 563 -74 420 -51 342 41 c 1
 342 41 275 -74 164 -74 c 0
 63 -74 59 -14 59 -14 c 1
 149 74 180 197 180 386 c 0
EndSplineSet
EndChar

StartChar: E
Encoding: 69 69 38
Width: 1112
Flags: HW
LayerCount: 2
Fore
SplineSet
532 669 m 1
 488 206 l 1
 488 120 552 117 587 117 c 0
 675 117 706 176 706 237 c 0
 706 310 677 354 635 395 c 1
 635 395 640 435 706 435 c 0
 787 435 837 377 837 377 c 1
 837 377 887 435 969 435 c 0
 1035 435 1039 395 1039 395 c 1
 977 346 958 278 958 199 c 0
 958 100 980 28 1049 -30 c 1
 1049 -30 1046 -74 970 -74 c 0
 865 -74 800 21 800 21 c 1
 744 -46 639 -74 563 -74 c 0
 429 -74 352 41 352 40 c 2
 352 40 281 -74 164 -74 c 0
 63 -74 59 -14 59 -14 c 1
 179 62 179 132 179 375 c 0
 179 726 70 722 70 756 c 0
 70 801 179 770 179 1148 c 0
 179 1332 148 1417 58 1503 c 1
 58 1503 62 1562 163 1562 c 0
 280 1562 350 1447 350 1447 c 1
 350 1444 427 1562 562 1562 c 0
 637 1562 743 1533 799 1466 c 1
 799 1466 864 1562 969 1562 c 0
 1044 1562 1048 1516 1048 1516 c 1
 979 1464 957 1402 957 1312 c 0
 957 1237 976 1174 1038 1127 c 1
 1038 1127 1033 1088 968 1088 c 0
 886 1088 836 1145 836 1145 c 1
 836 1145 786 1088 705 1088 c 0
 639 1088 634 1127 634 1127 c 1
 676 1165 705 1209 705 1277 c 0
 705 1329 680 1372 597 1372 c 0
 557 1372 489 1368 489 1294 c 1
 532 847 l 1
 677 847 752 861 817 905 c 1
 817 905 844 902 844 855 c 0
 844 791 804 752 804 752 c 1
 804 752 844 718 844 661 c 0
 844 613 817 610 817 610 c 1
 752 653 677 669 532 669 c 1
EndSplineSet
EndChar

StartChar: F
Encoding: 70 70 39
Width: 1029
Flags: HW
LayerCount: 2
Fore
SplineSet
488 375 m 1
 488 125 489 55 609 -23 c 1
 609 -23 578 -74 504 -74 c 0
 405 -74 339 40 339 40 c 1
 339 40 268 -74 162 -74 c 0
 88 -74 58 -23 58 -23 c 1
 178 55 178 125 178 375 c 0
 178 726 69 722 69 756 c 0
 69 801 178 770 178 1148 c 0
 178 1332 147 1417 57 1503 c 1
 57 1503 61 1562 162 1562 c 0
 285 1562 361 1457 361 1457 c 1
 361 1455 425 1562 539 1562 c 0
 605 1562 694 1533 744 1466 c 1
 744 1466 805 1562 902 1562 c 0
 978 1562 982 1518 982 1518 c 1
 912 1466 890 1402 890 1312 c 0
 890 1237 910 1174 972 1127 c 1
 972 1127 967 1088 901 1088 c 0
 827 1088 780 1145 780 1145 c 1
 780 1145 735 1088 660 1088 c 0
 594 1088 590 1127 590 1127 c 1
 632 1165 660 1201 660 1266 c 0
 660 1312 642 1371 575 1371 c 0
 544 1371 488 1362 488 1287 c 1
 521 833 l 1
 660 833 732 850 795 894 c 1
 795 894 822 891 822 844 c 0
 822 780 781 741 781 741 c 1
 781 741 822 703 822 639 c 0
 822 591 795 588 795 588 c 1
 732 631 660 651 521 651 c 1
 488 375 l 1
EndSplineSet
EndChar

StartChar: G
Encoding: 71 71 40
Width: 1169
Flags: HW
LayerCount: 2
Fore
SplineSet
147 1126 m 0
 147 1491 364 1586 604 1586 c 0
 753 1586 1016 1527 1016 1235 c 0
 1016 1176 996 1090 996 1040 c 0
 996 978 1014 936 1054 887 c 1
 1054 887 1046 855 996 855 c 0
 883 855 817 954 817 950 c 1
 817 950 766 911 690 911 c 0
 577 911 580 972 580 973 c 0
 659 997 728 1124 728 1228 c 0
 728 1316 695 1392 598 1392 c 0
 469 1392 454 1280 454 1154 c 0
 454 808 569 805 569 765 c 0
 569 732 460 736 460 395 c 0
 460 205 461 96 572 96 c 0
 683 96 686 245 686 326 c 0
 686 460 670 512 595 573 c 1
 595 573 598 617 674 617 c 0
 766 617 825 553 825 553 c 1
 825 553 892 617 990 617 c 0
 1066 617 1069 573 1069 573 c 1
 1001 516 988 464 988 345 c 0
 988 157 1023 85 1115 1 c 1
 1115 -45 1055 -75 984 -75 c 0
 942 -75 872 -40 832 36 c 1
 744 -70 623 -94 526 -94 c 0
 303 -94 147 40 147 386 c 0
 147 727 39 723 39 756 c 0
 39 799 147 770 147 1126 c 0
EndSplineSet
EndChar

StartChar: H
Encoding: 72 72 41
Width: 1322
Flags: HW
LayerCount: 2
Fore
SplineSet
180 364 m 0
 180 715 71 722 71 756 c 0
 71 801 180 770 180 1148 c 0
 180 1332 149 1417 59 1503 c 1
 59 1503 63 1562 165 1562 c 0
 274 1562 334 1457 334 1457 c 1
 334 1457 399 1562 509 1562 c 0
 610 1562 614 1503 614 1503 c 1
 524 1417 493 1332 493 1148 c 0
 493 1004 511 922 531 872 c 1
 563 856 608 847 654 847 c 0
 700 847 747 856 783 872 c 1
 804 922 821 1004 821 1148 c 0
 821 1332 790 1417 700 1503 c 1
 700 1503 706 1562 806 1562 c 0
 915 1562 981 1457 981 1457 c 1
 981 1457 1042 1562 1152 1562 c 0
 1253 1562 1257 1503 1257 1503 c 1
 1167 1417 1136 1332 1136 1148 c 0
 1136 770 1245 801 1245 756 c 0
 1245 722 1136 715 1136 364 c 0
 1136 169 1167 76 1257 -14 c 1
 1257 -14 1253 -74 1152 -74 c 0
 1042 -74 981 41 981 41 c 1
 981 41 915 -74 806 -74 c 0
 706 -74 700 -14 700 -14 c 1
 790 76 821 169 821 364 c 0
 821 514 799 606 775 654 c 1
 745 670 700 679 655 679 c 0
 612 679 569 671 539 654 c 1
 515 606 493 514 493 364 c 0
 493 169 523 76 614 -14 c 1
 614 -14 609 -74 509 -74 c 0
 399 -74 334 41 334 41 c 1
 334 41 274 -74 165 -74 c 0
 65 -74 59 -14 59 -14 c 1
 149 76 180 169 180 364 c 0
EndSplineSet
EndChar

StartChar: I
Encoding: 73 73 42
Width: 665
Flags: HW
LayerCount: 2
Fore
SplineSet
180 375 m 0
 180 726 71 722 71 756 c 0
 71 801 180 770 180 1148 c 0
 180 1338 149 1415 59 1503 c 1
 59 1503 63 1562 164 1562 c 0
 268 1562 329 1457 329 1457 c 1
 329 1457 391 1562 494 1562 c 0
 596 1562 600 1503 600 1503 c 1
 510 1415 479 1338 479 1148 c 0
 479 770 588 801 588 756 c 0
 588 722 479 726 479 375 c 0
 479 169 510 80 600 -14 c 1
 600 -14 596 -74 494 -74 c 0
 391 -74 329 41 329 41 c 1
 329 41 268 -74 164 -74 c 0
 64 -74 59 -14 59 -14 c 1
 149 80 180 169 180 375 c 0
EndSplineSet
EndChar

StartChar: J
Encoding: 74 74 43
Width: 814
Flags: HW
LayerCount: 2
Fore
SplineSet
267 -147 m 0
 212 -147 153 -163 81 -207 c 1
 81 -207 41 -202 41 -136 c 0
 41 -69 98 -27 98 -27 c 1
 98 -27 41 17 41 91 c 0
 41 157 81 162 81 162 c 1
 119 115 160 93 236 93 c 0
 346 93 347 200 347 387 c 0
 347 736 239 726 239 759 c 0
 239 804 347 770 347 1148 c 0
 347 1321 316 1421 226 1503 c 1
 226 1503 232 1562 331 1562 c 0
 433 1562 494 1457 494 1457 c 1
 494 1457 553 1562 661 1562 c 0
 762 1562 767 1503 767 1503 c 1
 675 1421 646 1321 646 1148 c 0
 646 770 753 801 753 756 c 0
 753 723 646 727 646 386 c 0
 646 7 537 -147 267 -147 c 0
EndSplineSet
EndChar

StartChar: K
Encoding: 75 75 44
Width: 1437
Flags: HW
LayerCount: 2
Fore
SplineSet
747 649 m 1
 734 660 l 1
 710 661 676 661 645 661 c 2
 577 661 l 2
 559 661 541 661 515 665 c 1
 504 406 l 1
 504 177 542 77 654 -33 c 1
 654 -33 631 -92 536 -92 c 0
 429 -92 355 45 355 45 c 1
 355 45 280 -92 174 -92 c 0
 78 -92 59 -46 56 -33 c 1
 157 76 194 176 194 406 c 0
 194 745 70 757 70 788 c 0
 70 833 194 812 194 1102 c 0
 194 1313 159 1401 55 1499 c 1
 55 1499 78 1561 174 1561 c 0
 280 1561 355 1442 355 1442 c 1
 355 1442 429 1561 536 1561 c 0
 635 1561 651 1514 654 1500 c 1
 542 1404 504 1316 504 1113 c 0
 504 953 508 912 513 849 c 1
 535 844 554 843 579 843 c 0
 652 843 746 856 746 856 c 1
 780 1063 780 1285 888 1491 c 1
 888 1491 912 1562 969 1562 c 0
 1031 1562 1061 1456 1061 1456 c 1
 1061 1456 1157 1562 1246 1562 c 0
 1362 1562 1377 1522 1378 1505 c 1
 1213 1430 1130 1297 1130 1146 c 0
 1130 733 905 798 905 747 c 0
 905 698 1130 752 1130 364 c 0
 1130 202 1213 50 1378 -35 c 1
 1376 -52 1361 -92 1246 -92 c 0
 1162 -92 1071 43 1071 43 c 1
 1071 43 1037 -92 969 -92 c 0
 902 -92 890 -26 890 -26 c 1
 860 31 747 462 747 635 c 2
 747 649 l 1
EndSplineSet
EndChar

StartChar: L
Encoding: 76 76 45
Width: 923
Flags: HW
LayerCount: 2
Fore
SplineSet
630 195 m 0
 723 195 771 217 818 264 c 1
 818 264 858 260 858 194 c 0
 858 135 806 99 801 96 c 1
 803 94 858 57 858 -3 c 0
 858 -69 818 -74 818 -74 c 1
 749 -30 692 -14 639 -14 c 0
 572 -14 520 -73 463 -73 c 0
 419 -73 373 -37 320 40 c 1
 320 40 262 -74 164 -74 c 0
 63 -74 59 -14 59 -14 c 1
 179 62 179 132 179 375 c 0
 179 726 70 722 70 756 c 0
 70 801 179 770 179 1148 c 0
 179 1332 148 1417 58 1503 c 1
 58 1503 62 1562 163 1562 c 0
 282 1562 329 1457 329 1457 c 1
 329 1457 390 1562 493 1562 c 0
 594 1562 599 1503 599 1503 c 1
 509 1417 478 1332 478 1148 c 0
 478 770 587 801 587 756 c 0
 587 722 478 726 478 375 c 0
 478 213 490 200 490 200 c 1
 490 200 490 195 630 195 c 0
EndSplineSet
EndChar

StartChar: M
Encoding: 77 77 46
Width: 1517
Flags: HW
LayerCount: 2
Fore
SplineSet
180 375 m 0
 180 726 71 722 71 756 c 0
 71 801 180 770 180 1148 c 0
 180 1338 149 1415 59 1503 c 1
 59 1503 63 1562 165 1562 c 0
 261 1562 319 1457 319 1457 c 1
 319 1457 380 1562 484 1562 c 0
 585 1562 589 1503 589 1503 c 1
 533 1445 500 1390 483 1310 c 1
 761 748 l 1
 1032 1288 l 1
 1017 1382 982 1440 922 1503 c 1
 922 1503 927 1562 1028 1562 c 0
 1131 1562 1193 1457 1193 1457 c 1
 1193 1457 1250 1562 1347 1562 c 0
 1448 1562 1452 1503 1452 1503 c 1
 1362 1415 1331 1338 1331 1148 c 0
 1331 770 1440 801 1440 756 c 0
 1440 722 1331 726 1331 375 c 0
 1331 169 1361 80 1452 -14 c 1
 1452 -14 1448 -74 1347 -74 c 0
 1250 -74 1193 41 1193 41 c 1
 1193 41 1131 -74 1028 -74 c 0
 928 -74 922 -14 922 -14 c 1
 1012 80 1043 169 1043 375 c 0
 1043 557 1042 691 1040 791 c 1
 810 299 l 1
 703 299 l 1
 472 820 l 1
 469 716 468 574 468 375 c 0
 468 169 499 80 589 -14 c 1
 589 -14 585 -74 484 -74 c 0
 380 -74 319 41 319 41 c 1
 319 41 261 -74 165 -74 c 0
 63 -74 59 -14 59 -14 c 1
 149 80 180 169 180 375 c 0
EndSplineSet
EndChar

StartChar: N
Encoding: 78 78 47
Width: 1322
Flags: HW
LayerCount: 2
Fore
SplineSet
180 375 m 0
 180 726 71 722 71 756 c 0
 71 801 180 770 180 1148 c 0
 180 1338 149 1415 59 1503 c 1
 59 1503 63 1562 165 1562 c 0
 268 1562 330 1457 330 1457 c 1
 330 1457 391 1562 495 1562 c 0
 596 1562 600 1503 600 1503 c 1
 520 1438 488 1375 480 1251 c 1
 805 781 l 1
 816 811 837 878 837 1148 c 0
 837 1338 806 1415 716 1503 c 1
 716 1503 720 1562 821 1562 c 0
 925 1562 986 1457 986 1457 c 1
 986 1457 1048 1562 1151 1562 c 0
 1253 1562 1257 1503 1257 1503 c 1
 1166 1415 1136 1338 1136 1148 c 0
 1136 770 1245 801 1245 756 c 0
 1245 722 1136 726 1136 375 c 0
 1136 169 1166 80 1257 -14 c 1
 1257 -14 1253 -74 1151 -74 c 0
 1048 -74 986 41 986 41 c 1
 986 41 925 -74 821 -74 c 0
 721 -74 716 -14 716 -14 c 1
 794 56 826 127 835 260 c 1
 485 741 l 1
 483 704 479 626 479 375 c 0
 479 169 510 80 600 -14 c 1
 600 -14 596 -74 495 -74 c 0
 391 -74 330 41 330 41 c 1
 330 41 268 -74 165 -74 c 0
 63 -74 59 -14 59 -14 c 1
 149 80 180 169 180 375 c 0
EndSplineSet
EndChar

StartChar: O
Encoding: 79 79 48
Width: 1241
Flags: HW
LayerCount: 2
Fore
SplineSet
497 421 m 0
 497 227 497 128 627 128 c 0
 758 128 759 236 759 432 c 0
 759 705 674 733 674 748 c 0
 674 777 759 772 759 1088 c 0
 759 1269 757 1342 627 1342 c 0
 498 1342 496 1269 496 1088 c 0
 496 772 580 777 580 748 c 0
 580 730 497 695 497 421 c 0
1092 421 m 0
 1092 37 925 -92 627 -92 c 0
 329 -92 162 37 162 421 c 0
 162 708 38 734 38 748 c 0
 38 773 162 779 162 1077 c 0
 162 1505 329 1586 628 1586 c 0
 925 1586 1092 1505 1092 1077 c 0
 1092 784 1202 772 1202 748 c 0
 1202 746 1199 744 1193 739 c 0
 1160 714 1092 659 1092 421 c 0
EndSplineSet
EndChar

StartChar: P
Encoding: 80 80 49
Width: 1128
Flags: HW
LayerCount: 2
Fore
SplineSet
490 586 m 1
 490 386 l 2
 490 175 521 82 611 -14 c 1
 611 -14 606 -74 505 -74 c 0
 395 -74 329 41 329 41 c 1
 329 41 268 -74 164 -74 c 0
 64 -74 59 -14 59 -14 c 1
 149 80 180 180 180 386 c 0
 180 727 71 723 71 756 c 0
 71 800 180 770 180 1137 c 0
 180 1327 149 1415 59 1503 c 1
 59 1503 63 1562 164 1562 c 0
 281 1562 354 1466 354 1466 c 1
 354 1466 408 1586 644 1586 c 0
 820 1586 973 1485 1016 1299 c 1
 1044 1144 1092 1151 1092 1130 c 0
 1092 1115 1048 1111 1016 928 c 1
 964 655 691 586 490 586 c 1
605 1372 m 0
 552 1372 490 1346 490 1322 c 2
 490 748 l 1
 623 757 706 805 706 871 c 2
 706 1302 l 2
 706 1334 664 1372 605 1372 c 0
EndSplineSet
EndChar

StartChar: Q
Encoding: 81 81 50
Width: 1241
Flags: HW
LayerCount: 2
Fore
SplineSet
973 -154 m 0
 973 -114 1006 19 1114 19 c 0
 1126 19 1136 17 1146 12 c 1
 1127 -15 1122 -40 1122 -65 c 0
 1122 -106 1138 -145 1138 -189 c 0
 1138 -366 989 -462 837 -462 c 0
 695 -462 550 -350 550 -115 c 0
 550 -102 551 -89 552 -76 c 1
 667 -77 l 1
 662 -100 660 -122 660 -142 c 0
 660 -274 738 -329 801 -329 c 0
 851 -329 878 -299 878 -269 c 0
 878 -241 854 -214 802 -214 c 0
 794 -214 785 -215 776 -216 c 0
 775 -216 775 -211 775 -209 c 0
 775 -194 788 -125 861 -125 c 0
 915 -125 973 -155 973 -154 c 0
496 421 m 0
 496 227 496 128 626 128 c 0
 757 128 758 236 758 432 c 0
 758 705 673 733 673 748 c 0
 673 777 758 772 758 1088 c 0
 758 1269 756 1342 626 1342 c 0
 497 1342 495 1269 495 1088 c 0
 495 772 579 777 579 748 c 0
 579 730 496 695 496 421 c 0
1091 421 m 0
 1091 37 924 -92 626 -92 c 0
 328 -92 161 37 161 421 c 0
 161 708 37 734 37 748 c 0
 37 773 161 779 161 1077 c 0
 161 1505 328 1586 627 1586 c 0
 924 1586 1091 1505 1091 1077 c 0
 1091 784 1201 772 1201 748 c 0
 1201 746 1198 744 1192 739 c 0
 1159 714 1091 659 1091 421 c 0
EndSplineSet
EndChar

StartChar: R
Encoding: 82 82 51
Width: 1265
Flags: HW
LayerCount: 2
Fore
SplineSet
329 31 m 1
 329 31 268 -74 164 -74 c 0
 63 -74 59 -14 59 -14 c 1
 149 71 180 191 180 375 c 0
 180 726 71 722 71 756 c 0
 71 802 180 773 180 1163 c 0
 180 1341 149 1419 59 1503 c 1
 59 1503 63 1562 164 1562 c 0
 288 1562 362 1462 362 1462 c 1
 362 1462 397 1586 619 1586 c 0
 844 1586 1015 1537 1043 1307 c 1
 1053 1186 1119 1167 1119 1146 c 0
 1119 1131 1058 1102 1043 953 c 0
 1037 887 981 798 887 789 c 1
 1186 690 974 172 1224 13 c 1
 1162 -50 1092 -74 999 -74 c 0
 618 -74 837 695 624 695 c 2
 490 695 l 1
 490 375 l 2
 490 169 519 80 601 -14 c 1
 601 -14 597 -74 496 -74 c 0
 392 -74 329 31 329 31 c 1
620 1372 m 0
 564 1372 490 1346 490 1322 c 2
 490 851 l 1
 645 851 720 883 720 963 c 2
 720 1302 l 2
 720 1334 679 1372 620 1372 c 0
EndSplineSet
EndChar

StartChar: S
Encoding: 83 83 52
Width: 1107
Flags: HW
LayerCount: 2
Fore
SplineSet
358 589 m 1
 332 604 340 676 258 743 c 1
 134 837 56 976 56 1155 c 0
 56 1434 254 1585 577 1585 c 0
 737 1585 991 1482 991 1242 c 0
 991 1153 943 1055 943 1009 c 0
 943 974 955 944 983 911 c 1
 983 911 969 900 944 900 c 0
 819 900 784 1066 784 1066 c 1
 781 1062 723 1032 661 1032 c 0
 545 1032 549 1108 549 1113 c 1
 617 1117 704 1149 704 1253 c 0
 704 1330 631 1365 569 1365 c 0
 432 1365 412 1261 412 1188 c 0
 412 1044 465 976 559 932 c 0
 569 927 581 926 594 926 c 0
 644 926 706 953 725 953 c 0
 748 953 748 848 820 807 c 1
 960 712 1067 566 1067 362 c 0
 1067 72 798 -74 541 -74 c 0
 302 -74 73 51 73 302 c 0
 73 383 126 458 126 529 c 0
 126 559 117 590 92 624 c 1
 92 624 106 634 129 634 c 0
 216 634 286 527 287 447 c 1
 287 447 353 482 417 482 c 0
 516 482 526 420 526 404 c 2
 526 396 l 1
 453 387 381 330 381 245 c 0
 381 146 466 116 523 116 c 0
 613 116 710 176 710 305 c 0
 710 469 639 534 553 588 c 1
 524 600 497 605 472 605 c 0
 422 605 384 587 366 587 c 0
 362 587 362 588 358 589 c 1
EndSplineSet
EndChar

StartChar: T
Encoding: 84 84 53
Width: 1058
Flags: HW
LayerCount: 2
Fore
SplineSet
533 1480 m 1
 572 1548 609 1562 643 1562 c 0
 697 1562 744 1514 805 1514 c 0
 851 1514 901 1526 962 1562 c 1
 962 1562 1001 1558 1001 1492 c 0
 1001 1431 946 1394 944 1393 c 1
 950 1389 1001 1353 1001 1295 c 0
 1001 1229 962 1224 962 1224 c 1
 920 1272 875 1294 794 1294 c 0
 691 1294 691 1290 691 1290 c 1
 691 1290 679 1278 679 1136 c 0
 679 785 788 791 788 757 c 0
 788 712 679 743 679 364 c 0
 679 169 709 76 800 -14 c 1
 800 -14 796 -74 694 -74 c 0
 591 -74 533 41 533 41 c 1
 533 41 486 -74 367 -74 c 0
 266 -74 261 -14 261 -14 c 1
 351 76 382 169 382 364 c 0
 382 743 273 712 273 757 c 0
 273 791 382 785 382 1136 c 0
 382 1278 370 1290 370 1290 c 1
 370 1290 370 1294 246 1294 c 0
 175 1294 138 1272 102 1224 c 1
 102 1224 62 1229 62 1295 c 0
 62 1354 116 1390 118 1393 c 1
 115 1395 62 1431 62 1492 c 0
 62 1558 102 1562 102 1562 c 1
 162 1525 213 1514 259 1514 c 0
 319 1514 367 1562 421 1562 c 0
 455 1562 493 1548 533 1480 c 1
EndSplineSet
EndChar

StartChar: U
Encoding: 85 85 54
Width: 1313
Flags: HW
LayerCount: 2
Fore
SplineSet
662 -92 m 0
 349 -92 166 35 166 407 c 0
 166 728 79 725 79 756 c 0
 79 801 166 770 166 1148 c 0
 166 1332 135 1417 45 1503 c 1
 45 1503 49 1562 150 1562 c 0
 273 1562 353 1457 353 1457 c 1
 353 1457 424 1562 540 1562 c 0
 642 1562 646 1503 646 1503 c 1
 556 1417 525 1332 525 1148 c 0
 525 770 601 810 601 765 c 0
 601 738 525 741 525 460 c 0
 525 249 520 127 675 127 c 0
 827 127 823 246 823 451 c 0
 823 741 747 738 747 765 c 0
 747 810 823 770 823 1148 c 0
 823 1332 798 1417 716 1503 c 1
 716 1503 720 1562 822 1562 c 0
 925 1562 987 1457 987 1457 c 1
 987 1457 1052 1562 1161 1562 c 0
 1263 1562 1267 1503 1267 1503 c 1
 1177 1417 1146 1332 1146 1148 c 0
 1146 770 1233 801 1233 756 c 0
 1233 725 1146 728 1146 407 c 0
 1146 35 968 -92 662 -92 c 0
EndSplineSet
EndChar

StartChar: V
Encoding: 86 86 55
Width: 1391
Flags: HW
LayerCount: 2
Fore
SplineSet
943 375 m 0
 925 304 904 235 904 163 c 0
 904 107 917 49 957 -14 c 1
 957 -18 l 2
 957 -31 950 -74 844 -74 c 0
 756 -74 683 41 683 41 c 1
 683 41 638 -74 494 -74 c 0
 418 -74 406 -14 406 -14 c 1
 446 42 466 96 466 175 c 0
 466 225 457 293 437 375 c 0
 348 740 231 720 228 760 c 1
 228 788 280 787 280 920 c 0
 280 973 272 1044 248 1148 c 0
 204 1338 157 1414 47 1503 c 1
 48 1506 40 1562 139 1562 c 0
 251 1562 346 1457 346 1457 c 1
 346 1457 390 1562 507 1562 c 0
 609 1562 626 1503 626 1503 c 1
 578 1445 563 1379 563 1310 c 0
 563 1257 574 1203 587 1148 c 1
 598 1093 728 416 735 368 c 1
 766 467 782 547 787 604 c 1
 784 728 760 733 760 753 c 1
 764 800 817 767 887 1138 c 1
 898 1189 905 1241 905 1292 c 0
 905 1370 888 1443 842 1503 c 1
 842 1503 857 1562 923 1562 c 0
 1038 1562 1072 1457 1072 1457 c 1
 1072 1457 1177 1562 1274 1562 c 0
 1337 1562 1344 1525 1344 1510 c 2
 1344 1503 l 1
 1233 1415 1183 1338 1136 1148 c 0
 1109 1038 1099 965 1099 910 c 0
 1099 790 1119 788 1119 762 c 0
 1119 719 1024 689 943 375 c 0
EndSplineSet
EndChar

StartChar: W
Encoding: 87 87 56
Width: 1968
Flags: HW
LayerCount: 2
Fore
SplineSet
1600 375 m 0
 1583 304 1561 235 1561 163 c 0
 1561 107 1574 49 1614 -14 c 1
 1614 -18 l 2
 1614 -31 1607 -74 1501 -74 c 0
 1413 -74 1340 41 1340 41 c 1
 1340 41 1295 -74 1151 -74 c 0
 1075 -74 1063 -14 1063 -14 c 1
 1103 42 1123 96 1123 175 c 0
 1123 225 1111 292 1094 375 c 1
 1055 597 997 805 997 805 c 1
 997 805 937 595 882 375 c 1
 868 303 843 235 843 163 c 0
 843 107 856 49 896 -14 c 1
 896 -18 l 2
 896 -31 889 -74 783 -74 c 0
 695 -74 622 41 622 41 c 1
 622 41 577 -74 433 -74 c 0
 357 -74 345 -14 345 -14 c 1
 385 42 405 96 405 175 c 0
 405 225 396 293 376 375 c 1
 295 740 190 720 187 760 c 1
 187 788 239 787 239 920 c 0
 239 973 235 1044 217 1148 c 0
 183 1339 140 1414 46 1503 c 1
 47 1506 39 1562 138 1562 c 0
 235 1562 315 1457 315 1457 c 1
 315 1457 359 1562 476 1562 c 0
 578 1562 595 1503 595 1503 c 1
 510 1390 532 1266 556 1148 c 1
 566 1093 668 416 674 368 c 1
 705 467 721 547 726 604 c 1
 723 708 695 730 695 745 c 0
 695 748 696 750 699 753 c 0
 787 855 852 1032 852 1277 c 0
 852 1385 799 1455 764 1503 c 1
 764 1504 l 2
 764 1510 784 1562 876 1562 c 0
 975 1562 1023 1457 1023 1457 c 1
 1023 1457 1061 1562 1164 1562 c 0
 1266 1562 1283 1503 1283 1503 c 1
 1235 1445 1220 1379 1220 1310 c 0
 1220 1256 1232 1203 1244 1148 c 0
 1256 1093 1384 416 1392 368 c 1
 1411 467 1421 547 1424 604 c 1
 1421 728 1397 733 1397 753 c 1
 1401 800 1435 769 1504 1138 c 1
 1529 1266 1537 1400 1459 1503 c 1
 1459 1503 1474 1562 1540 1562 c 0
 1655 1562 1689 1457 1689 1457 c 1
 1689 1457 1774 1562 1851 1562 c 0
 1914 1562 1921 1525 1921 1510 c 2
 1921 1503 l 1
 1830 1415 1784 1339 1753 1148 c 0
 1735 1039 1736 965 1736 910 c 0
 1736 790 1756 788 1756 762 c 0
 1756 719 1671 689 1600 375 c 0
EndSplineSet
EndChar

StartChar: X
Encoding: 88 88 57
Width: 1305
Flags: HW
LayerCount: 2
Fore
SplineSet
643 519 m 1
 573 311 l 1
 533 200 519 130 519 71 c 0
 519 41 522 13 527 -14 c 1
 527 -14 495 -74 411 -74 c 0
 330 -74 327 31 327 31 c 1
 327 31 237 -74 158 -74 c 0
 74 -74 59 -50 59 -33 c 0
 59 -22 64 -14 64 -14 c 1
 163 80 212 171 298 375 c 2
 410 641 l 1
 371 708 332 738 332 756 c 0
 332 785 365 792 410 868 c 1
 292 1148 l 1
 211 1336 161 1415 63 1503 c 1
 63 1503 58 1510 58 1520 c 0
 58 1538 73 1562 156 1562 c 0
 240 1562 335 1457 335 1457 c 1
 335 1457 339 1562 431 1562 c 0
 500 1562 525 1503 525 1503 c 1
 520 1475 515 1448 515 1417 c 0
 515 1367 528 1307 566 1212 c 1
 643 991 l 1
 731 1212 l 1
 770 1300 782 1359 782 1409 c 0
 782 1443 777 1473 771 1503 c 1
 771 1503 797 1562 866 1562 c 0
 955 1562 961 1457 961 1457 c 1
 961 1457 1056 1562 1140 1562 c 0
 1223 1562 1238 1538 1238 1520 c 0
 1238 1510 1233 1503 1233 1503 c 1
 1134 1415 1092 1332 1003 1148 c 2
 864 862 l 1
 908 791 940 784 940 756 c 0
 940 738 903 711 864 648 c 1
 996 375 l 2
 1092 177 1132 80 1232 -14 c 1
 1232 -14 1238 -22 1238 -33 c 0
 1238 -50 1222 -74 1139 -74 c 0
 1060 -74 969 31 969 31 c 1
 969 31 965 -74 875 -74 c 0
 799 -74 769 -14 769 -14 c 1
 775 16 779 47 779 82 c 0
 779 140 766 209 723 311 c 1
 643 519 l 1
EndSplineSet
EndChar

StartChar: Y
Encoding: 89 89 58
Width: 1357
Flags: HW
LayerCount: 2
Fore
SplineSet
504 431 m 0
 504 634 372 682 310 744 c 1
 312 746 l 1
 311 748 311 749 311 750 c 0
 311 770 372 798 372 911 c 0
 372 948 363 1008 332 1102 c 1
 239 1317 177 1405 50 1506 c 1
 50 1506 47 1515 47 1519 c 0
 47 1537 63 1561 160 1561 c 0
 243 1561 362 1434 362 1434 c 1
 362 1434 374 1561 472 1561 c 0
 555 1561 593 1513 602 1497 c 1
 583 1459 572 1420 572 1375 c 0
 572 1261 663 832 682 832 c 0
 710 832 797 1270 797 1375 c 0
 797 1419 788 1459 769 1497 c 1
 769 1497 818 1561 899 1561 c 0
 1006 1561 1020 1434 1020 1434 c 1
 1020 1434 1124 1561 1199 1561 c 0
 1296 1561 1310 1537 1310 1519 c 0
 1310 1514 1309 1507 1309 1504 c 1
 1181 1404 1120 1316 1027 1102 c 1
 997 1008 986 947 986 909 c 0
 986 802 1046 752 1047 752 c 1
 1047 746 1048 741 1049 739 c 1
 1026 723 l 1
 969 687 854 609 854 431 c 0
 854 194 887 101 978 -15 c 1
 978 -15 955 -75 859 -75 c 0
 753 -75 679 43 679 43 c 1
 679 43 604 -75 499 -75 c 0
 401 -75 384 -29 381 -15 c 1
 471 101 504 194 504 431 c 0
EndSplineSet
EndChar

StartChar: Z
Encoding: 90 90 59
Width: 1232
Flags: HW
LayerCount: 2
Fore
SplineSet
846 675 m 0
 846 672 846 668 842 667 c 0
 823 660 579 502 579 231 c 0
 579 96 673 34 763 34 c 0
 855 34 902 111 902 185 c 0
 902 257 857 326 763 326 c 0
 746 326 730 323 714 319 c 1
 714 321 706 331 706 353 c 0
 706 392 758 460 889 460 c 0
 904 460 914 459 914 459 c 1
 905 480 901 505 901 531 c 0
 901 610 942 699 1024 699 c 1
 1020 683 1018 668 1018 655 c 0
 1018 507 1181 459 1181 282 c 0
 1181 59 962 -70 752 -70 c 0
 610 -70 473 -11 411 118 c 1
 411 118 243 -74 125 -74 c 0
 96 -74 56 -48 56 1 c 0
 56 9 57 16 61 26 c 1
 181 118 233 225 353 479 c 1
 394 617 417 697 417 749 c 0
 417 796 393 822 392 831 c 0
 392 833 393 836 398 838 c 0
 417 845 657 998 657 1257 c 0
 657 1388 566 1452 481 1452 c 0
 399 1452 356 1378 356 1306 c 0
 356 1238 395 1172 473 1172 c 0
 491 1172 506 1174 522 1179 c 1
 522 1177 530 1167 530 1145 c 0
 530 1114 484 1058 367 1058 c 0
 352 1058 342 1059 342 1059 c 1
 351 1038 355 1013 355 987 c 0
 355 908 314 819 232 819 c 1
 236 835 238 850 238 863 c 0
 238 1023 75 1074 75 1266 c 0
 75 1447 287 1560 485 1560 c 0
 634 1560 776 1502 825 1370 c 1
 825 1370 993 1562 1111 1562 c 0
 1140 1562 1180 1536 1180 1487 c 0
 1180 1479 1179 1472 1175 1462 c 1
 1055 1370 1003 1263 883 1009 c 1
 842 881 823 804 823 756 c 0
 823 709 843 684 846 675 c 0
EndSplineSet
EndChar

StartChar: bracketleft
Encoding: 91 91 60
Width: 666
Flags: HW
LayerCount: 2
Fore
SplineSet
604 -387 m 1
 101 -387 l 1
 101 1375 l 1
 604 1375 l 1
 604 1235 l 1
 325 1235 l 1
 325 -247 l 1
 604 -247 l 1
 604 -387 l 1
EndSplineSet
EndChar

StartChar: backslash
Encoding: 92 92 61
Width: 852
Flags: HW
LayerCount: 2
Fore
SplineSet
215 1395 m 1
 804 -35 l 1
 639 -35 l 1
 50 1395 l 1
 215 1395 l 1
EndSplineSet
EndChar

StartChar: bracketright
Encoding: 93 93 62
Width: 663
Flags: HW
LayerCount: 2
Fore
SplineSet
561 -387 m 1
 58 -387 l 1
 58 -247 l 1
 337 -247 l 1
 337 1235 l 1
 58 1235 l 1
 58 1375 l 1
 561 1375 l 1
 561 -387 l 1
EndSplineSet
EndChar

StartChar: asciicircum
Encoding: 94 94 63
Width: 1057
Flags: HW
LayerCount: 2
Fore
SplineSet
237 583 m 1
 58 583 l 1
 456 1315 l 1
 603 1315 l 1
 999 583 l 1
 820 583 l 1
 529 1126 l 1
 237 583 l 1
EndSplineSet
EndChar

StartChar: underscore
Encoding: 95 95 64
Width: 1260
Flags: HW
LayerCount: 2
Fore
SplineSet
111 -154 m 1
 1147 -154 l 1
 1147 -256 l 1
 111 -256 l 1
 111 -154 l 1
EndSplineSet
EndChar

StartChar: quoteleft
Encoding: 8216 8216 65
Width: 448
Flags: HW
LayerCount: 2
Fore
SplineSet
363 1395 m 1
 363 1300 l 1
 259 1273 200 1219 200 1098 c 1
 202 1098 l 1
 229 1111 272 1115 311 1115 c 1
 342 1074 372 1008 372 928 c 1
 352 885 299 853 235 853 c 0
 184 853 140 867 101 888 c 1
 84 951 73 1018 73 1089 c 0
 73 1272 187 1379 363 1395 c 1
EndSplineSet
EndChar

StartChar: a
Encoding: 97 97 66
Width: 1113
Flags: HW
LayerCount: 2
Fore
SplineSet
624 417 m 0
 624 547 624 683 625 683 c 1
 513 570 405 566 405 336 c 0
 405 266 400 89 500 89 c 0
 623 89 624 209 624 417 c 0
539 1312 m 0
 797 1312 938 1175 938 876 c 0
 938 663 1036 629 1062 612 c 1
 1062 595 948 571 948 335 c 0
 948 145 992 67 1050 5 c 1
 1035 -47 983 -67 923 -67 c 0
 806 -67 727 70 723 78 c 1
 660 -53 552 -84 443 -84 c 0
 335 -84 161 -50 122 179 c 1
 106 257 38 316 38 330 c 0
 38 345 103 397 118 458 c 1
 188 801 624 627 624 905 c 0
 624 1084 620 1187 513 1187 c 0
 452 1187 421 1135 421 1094 c 0
 421 1037 457 922 535 903 c 1
 536 908 519 839 440 839 c 0
 383 839 330 880 330 880 c 2
 332 879 286 743 178 743 c 0
 156 743 144 753 140 758 c 1
 177 795 192 823 192 856 c 0
 192 893 164 960 164 1011 c 0
 164 1222 404 1312 539 1312 c 0
EndSplineSet
EndChar

StartChar: b
Encoding: 98 98 67
Width: 1182
Flags: HW
LayerCount: 2
Fore
SplineSet
1043 343 m 0
 1043 76 845 -83 653 -83 c 0
 547 -83 443 -36 373 69 c 1
 333 7 264 -82 161 -82 c 0
 61 -82 56 -22 56 -22 c 1
 144 70 176 161 177 360 c 1
 171 578 65 597 65 611 c 0
 65 632 177 636 177 889 c 2
 177 1143 l 2
 177 1363 146 1459 56 1559 c 1
 56 1559 60 1618 161 1618 c 0
 265 1618 326 1513 326 1513 c 1
 326 1513 388 1618 491 1618 c 0
 593 1618 597 1559 597 1559 c 1
 534 1457 500 1358 485 1205 c 1
 572 1276 659 1311 737 1311 c 0
 911 1311 1043 1166 1043 889 c 0
 1043 641 1143 631 1143 611 c 1
 1121 590 1043 562 1043 343 c 0
482 343 m 0
 482 175 482 89 610 89 c 0
 739 89 740 182 740 353 c 0
 740 563 669 591 653 611 c 1
 653 635 740 633 740 889 c 0
 740 1049 695 1129 610 1129 c 0
 525 1129 481 1049 481 889 c 0
 481 633 567 635 567 611 c 0
 567 597 482 566 482 343 c 0
EndSplineSet
EndChar

StartChar: c
Encoding: 99 99 68
Width: 1008
Flags: HW
LayerCount: 2
Fore
SplineSet
903 679 m 0
 811 679 742 784 742 784 c 1
 742 784 703 759 649 759 c 0
 551 759 539 812 539 821 c 0
 539 824 540 826 540 826 c 1
 612 826 680 933 680 1021 c 0
 680 1081 648 1131 564 1131 c 0
 443 1131 442 1038 442 877 c 0
 442 630 541 635 541 612 c 0
 541 590 442 597 442 359 c 0
 442 198 509 112 624 112 c 0
 694 112 802 131 802 399 c 0
 802 424 838 437 875 437 c 0
 918 437 961 423 961 396 c 0
 961 -47 696 -86 595 -86 c 0
 348 -86 181 43 143 351 c 0
 114 587 40 589 40 611 c 2
 40 613 l 2
 40 635 139 637 139 875 c 1
 146 1153 311 1311 562 1311 c 0
 704 1311 946 1217 946 995 c 0
 946 924 918 843 918 800 c 0
 918 766 927 737 949 703 c 1
 949 703 940 679 903 679 c 0
EndSplineSet
EndChar

StartChar: d
Encoding: 100 100 69
Width: 1188
Flags: HW
LayerCount: 2
Fore
SplineSet
699 343 m 0
 699 566 614 597 614 611 c 0
 614 635 700 633 700 889 c 0
 700 1063 656 1149 571 1149 c 0
 486 1149 441 1063 441 889 c 0
 441 633 528 635 528 611 c 1
 512 591 441 563 441 353 c 0
 441 170 442 69 571 69 c 0
 699 69 699 161 699 343 c 0
138 343 m 0
 138 562 60 590 38 611 c 1
 38 631 138 641 138 889 c 0
 138 1166 282 1311 474 1311 c 0
 543 1311 628 1296 696 1205 c 1
 681 1358 647 1457 584 1559 c 1
 584 1559 588 1618 690 1618 c 0
 793 1618 855 1513 855 1513 c 1
 855 1513 916 1618 1020 1618 c 0
 1121 1618 1125 1559 1125 1559 c 1
 1035 1459 1004 1363 1004 1143 c 2
 1004 889 l 2
 1004 636 1116 632 1116 611 c 0
 1116 597 1010 578 1004 360 c 1
 1005 161 1037 70 1125 -22 c 1
 1125 -22 1120 -82 1020 -82 c 0
 917 -82 848 7 808 69 c 1
 738 -36 634 -83 528 -83 c 0
 336 -83 138 76 138 343 c 0
EndSplineSet
EndChar

StartChar: e
Encoding: 101 101 70
Width: 1062
Flags: HW
LayerCount: 2
Fore
SplineSet
658 111 m 0
 728 111 836 133 836 401 c 0
 836 426 867 439 899 439 c 0
 942 439 985 425 985 398 c 0
 985 -66 706 -84 599 -84 c 0
 356 -84 191 66 162 395 c 0
 147 567 62 592 38 612 c 1
 38 627 162 649 162 876 c 0
 162 1175 311 1312 579 1312 c 0
 747 1312 967 1240 967 865 c 0
 967 670 990 682 1017 631 c 1
 985 594 954 586 932 586 c 0
 914 586 902 592 902 592 c 1
 844 608 764 614 689 614 c 0
 608 614 533 607 501 595 c 1
 480 568 460 488 460 385 c 0
 460 231 524 111 658 111 c 0
467 905 m 0
 467 860 468 766 488 716 c 1
 586 720 692 746 692 781 c 0
 692 815 694 861 694 909 c 0
 694 1012 681 1131 595 1131 c 0
 468 1131 467 1048 467 905 c 0
EndSplineSet
EndChar

StartChar: f
Encoding: 102 102 71
Width: 827
Flags: HW
LayerCount: 2
Fore
SplineSet
581 1263 m 1
 501 1274 479 1398 542 1439 c 1
 493 1435 407 1481 401 1538 c 0
 397 1576 417 1589 417 1589 c 1
 444 1579 471 1568 509 1572 c 0
 530 1574 581 1591 577 1632 c 0
 574 1660 530 1698 460 1698 c 0
 354 1698 311 1622 311 1531 c 0
 311 1401 397 1241 513 1220 c 1
 582 1220 607 1231 625 1231 c 0
 674 1231 714 1206 714 1153 c 0
 714 1094 673 1066 625 1066 c 0
 602 1066 563 1066 524 1077 c 1
 524 958 l 2
 524 627 632 641 632 610 c 0
 632 575 524 595 524 316 c 0
 524 158 555 67 645 -9 c 1
 645 -9 639 -68 540 -68 c 0
 438 -68 377 17 377 17 c 1
 377 17 318 -68 210 -68 c 0
 109 -68 104 -9 104 -9 c 1
 196 67 225 158 225 316 c 0
 225 596 118 578 118 613 c 0
 118 648 227 644 227 953 c 0
 227 990 223 1036 223 1075 c 1
 185 1072 150 1069 126 1069 c 0
 78 1069 37 1097 37 1156 c 0
 37 1209 77 1234 126 1234 c 0
 144 1234 166 1233 199 1232 c 1
 163 1307 143 1392 143 1472 c 0
 143 1640 231 1782 454 1782 c 0
 641 1782 760 1691 776 1558 c 1
 792 1402 612 1403 581 1263 c 1
EndSplineSet
EndChar

StartChar: g
Encoding: 103 103 72
Width: 1191
Flags: HW
LayerCount: 2
Fore
SplineSet
753 125 m 1
 688 53 611 20 534 20 c 0
 328 20 127 153 127 389 c 0
 127 587 40 595 40 612 c 0
 40 638 127 636 127 906 c 0
 127 1203 330 1311 546 1311 c 0
 654 1311 778 1253 856 1176 c 1
 856 1176 921 1289 1017 1289 c 0
 1128 1289 1147 1250 1150 1237 c 1
 1048 1148 1013 1069 1013 881 c 0
 1013 642 1112 631 1112 612 c 0
 1112 582 1013 474 1013 351 c 0
 1013 223 1026 87 1026 -37 c 0
 1026 -286 973 -486 650 -486 c 0
 483 -486 322 -392 274 -189 c 0
 250 -84 227 -38 181 6 c 1
 181 6 197 18 227 18 c 0
 353 18 399 -89 399 -96 c 1
 398 -90 448 -60 495 -60 c 0
 555 -60 595 -93 595 -101 c 0
 595 -102 594 -103 592 -103 c 0
 541 -107 518 -142 518 -180 c 0
 518 -230 558 -287 626 -287 c 0
 740 -287 756 -166 756 -34 c 0
 756 20 753 75 753 125 c 1
647 613 m 0
 647 635 734 631 734 881 c 0
 734 1045 677 1130 568 1130 c 0
 464 1130 408 1049 408 881 c 0
 408 631 496 636 496 613 c 0
 496 600 408 576 408 413 c 0
 408 284 490 219 572 219 c 0
 653 219 734 283 734 413 c 0
 734 576 647 600 647 613 c 0
EndSplineSet
EndChar

StartChar: h
Encoding: 104 104 73
Width: 1249
Flags: HW
LayerCount: 2
Fore
SplineSet
1162 611 m 0
 1162 598 1071 569 1071 344 c 0
 1071 159 1102 77 1196 -12 c 1
 1196 -12 1174 -66 1088 -66 c 0
 979 -66 904 41 904 41 c 1
 904 41 836 -66 739 -66 c 0
 661 -66 648 -24 645 -12 c 1
 735 78 770 168 770 354 c 0
 770 573 672 599 672 611 c 0
 672 634 759 632 759 879 c 0
 759 1065 728 1147 645 1147 c 0
 480 1147 480 908 480 856 c 0
 480 632 566 633 566 611 c 0
 566 597 481 567 481 344 c 0
 481 159 513 77 606 -12 c 1
 606 -12 587 -66 510 -66 c 0
 402 -66 322 41 322 41 c 1
 322 41 253 -66 158 -66 c 0
 69 -66 53 -24 50 -12 c 1
 142 77 176 160 176 344 c 0
 176 545 76 601 76 611 c 0
 76 624 176 635 176 879 c 2
 176 1133 l 2
 176 1358 145 1457 55 1559 c 1
 55 1559 59 1618 160 1618 c 0
 270 1618 335 1513 335 1513 c 1
 335 1513 385 1618 470 1618 c 0
 560 1618 566 1559 566 1559 c 1
 521 1454 496 1352 484 1195 c 1
 563 1270 666 1310 764 1310 c 0
 921 1310 1062 1189 1062 919 c 0
 1062 671 1162 631 1162 611 c 0
EndSplineSet
EndChar

StartChar: i
Encoding: 105 105 74
Width: 615
Flags: HW
LayerCount: 2
Fore
SplineSet
169 315 m 0
 169 589 70 585 70 611 c 0
 70 650 169 610 169 934 c 0
 169 1106 141 1175 59 1256 c 1
 59 1256 63 1310 155 1310 c 0
 249 1310 305 1233 305 1233 c 1
 305 1233 361 1310 455 1310 c 0
 547 1310 551 1256 551 1256 c 1
 469 1176 441 1106 441 934 c 0
 441 610 540 650 540 611 c 0
 540 585 441 589 441 315 c 0
 441 148 469 65 551 -13 c 1
 551 -13 547 -67 455 -67 c 0
 361 -67 305 10 305 10 c 1
 305 10 249 -67 155 -67 c 0
 64 -67 59 -13 59 -13 c 1
 141 65 169 148 169 315 c 0
204 1644 m 1
 204 1644 266 1754 302 1754 c 0
 328 1754 379 1653 379 1653 c 1
 379 1653 513 1600 513 1570 c 0
 513 1543 387 1490 387 1490 c 1
 387 1490 332 1380 302 1380 c 0
 274 1380 222 1482 222 1482 c 1
 222 1482 90 1533 90 1563 c 0
 90 1590 204 1644 204 1644 c 1
EndSplineSet
EndChar

StartChar: j
Encoding: 106 106 75
Width: 870
Flags: HW
LayerCount: 2
Fore
SplineSet
347 -289 m 0
 218 -289 53 -219 53 -26 c 0
 53 101 167 131 167 248 c 0
 167 260 166 273 163 288 c 1
 171 288 l 2
 247 288 276 179 276 136 c 1
 266 99 266 73 266 71 c 1
 266 71 274 72 287 72 c 0
 311 72 353 69 389 54 c 0
 446 31 457 -6 457 -29 c 0
 457 -50 450 -56 450 -56 c 1
 425 -48 398 -42 372 -42 c 0
 341 -42 279 -59 279 -117 c 0
 279 -168 323 -201 381 -201 c 0
 430 -201 521 -164 521 -58 c 0
 521 92 407 150 407 245 c 0
 407 594 299 580 299 613 c 0
 299 650 407 629 407 927 c 0
 407 1085 376 1176 286 1252 c 1
 286 1252 292 1311 391 1311 c 0
 493 1311 554 1226 554 1226 c 1
 554 1226 613 1311 721 1311 c 0
 822 1311 827 1252 827 1252 c 1
 735 1176 706 1085 706 927 c 0
 706 629 813 647 813 610 c 0
 813 577 706 585 706 244 c 0
 706 -135 603 -289 347 -289 c 0
454 1644 m 1
 454 1644 516 1754 552 1754 c 0
 578 1754 629 1653 629 1653 c 1
 629 1653 763 1600 763 1570 c 0
 763 1543 637 1490 637 1490 c 1
 637 1490 582 1380 552 1380 c 0
 524 1380 472 1482 472 1482 c 1
 472 1482 340 1533 340 1563 c 0
 340 1590 454 1644 454 1644 c 1
EndSplineSet
EndChar

StartChar: k
Encoding: 107 107 76
Width: 1251
Flags: HW
LayerCount: 2
Fore
SplineSet
682 527 m 1
 648 541 618 541 528 541 c 0
 511 541 495 541 471 545 c 1
 461 329 l 1
 461 141 496 60 598 -30 c 1
 598 -30 577 -84 490 -84 c 0
 393 -84 326 23 326 23 c 1
 326 23 258 -84 161 -84 c 0
 74 -84 57 -42 54 -30 c 1
 146 60 179 140 179 329 c 0
 179 574 67 591 67 612 c 0
 67 672 179 648 179 1083 c 0
 179 1335 148 1449 53 1562 c 1
 53 1562 74 1618 161 1618 c 0
 258 1618 326 1510 326 1510 c 1
 326 1510 393 1618 490 1618 c 0
 580 1618 595 1575 598 1563 c 1
 496 1438 461 1337 461 1093 c 0
 461 863 465 797 469 712 c 1
 489 707 507 706 529 706 c 0
 596 706 681 718 681 718 c 1
 712 891 712 1074 810 1246 c 1
 810 1246 832 1311 884 1311 c 0
 952 1311 986 1215 986 1215 c 1
 986 1215 1064 1311 1136 1311 c 0
 1241 1311 1255 1275 1256 1259 c 1
 1106 1191 1040 1020 1030 933 c 0
 993 609 826 660 826 619 c 0
 826 577 984 621 1030 291 c 0
 1040 220 1106 37 1256 -32 c 1
 1254 -47 1240 -84 1136 -84 c 0
 1064 -84 986 12 986 12 c 1
 986 12 952 -84 884 -84 c 0
 823 -84 812 -24 812 -24 c 1
 785 23 688 385 682 527 c 1
EndSplineSet
EndChar

StartChar: l
Encoding: 108 108 77
Width: 608
Flags: HW
LayerCount: 2
Fore
SplineSet
301 0 m 1
 301 0 252 -67 152 -67 c 0
 60 -67 56 -13 56 -13 c 1
 165 52 165 112 165 321 c 0
 165 586 66 586 66 611 c 0
 66 666 165 620 165 1104 c 0
 165 1341 137 1458 55 1564 c 1
 55 1564 59 1618 151 1618 c 0
 259 1618 302 1541 302 1541 c 1
 302 1541 357 1618 451 1618 c 0
 543 1618 547 1564 547 1564 c 1
 465 1458 437 1341 437 1104 c 0
 437 620 536 666 536 611 c 0
 536 586 437 586 437 321 c 0
 437 112 437 52 546 -13 c 1
 546 -13 542 -67 450 -67 c 0
 350 -67 301 0 301 0 c 1
EndSplineSet
EndChar

StartChar: m
Encoding: 109 109 78
Width: 1806
Flags: HW
LayerCount: 2
Fore
SplineSet
392 1127 m 1
 454 1259 558 1312 681 1312 c 0
 786 1312 901 1280 969 1138 c 1
 1040 1265 1163 1312 1268 1312 c 0
 1453 1312 1627 1211 1627 914 c 0
 1627 625 1713 628 1713 600 c 0
 1713 587 1627 568 1627 343 c 0
 1627 158 1659 76 1752 -13 c 1
 1752 -13 1731 -67 1644 -67 c 0
 1547 -67 1480 40 1480 40 c 1
 1480 40 1404 -67 1295 -67 c 0
 1249 -67 1244 -25 1241 -13 c 1
 1303 77 1326 167 1326 353 c 0
 1326 565 1258 588 1258 600 c 0
 1258 625 1326 622 1326 890 c 0
 1326 1072 1283 1149 1197 1149 c 0
 1112 1149 1064 1076 1049 924 c 1
 1049 623 1137 626 1137 600 c 0
 1137 587 1051 568 1051 343 c 0
 1051 158 1081 76 1176 -13 c 1
 1176 -13 1155 -67 1068 -67 c 0
 972 -67 903 40 903 40 c 1
 903 40 832 -67 730 -67 c 0
 667 -67 658 -25 655 -13 c 1
 732 77 760 167 760 353 c 0
 760 563 673 588 673 600 c 0
 673 625 760 625 760 890 c 0
 760 1071 714 1149 627 1149 c 0
 536 1149 483 1064 483 890 c 0
 483 622 551 625 551 600 c 0
 551 587 485 558 485 343 c 0
 485 158 512 76 590 -13 c 1
 590 -13 575 -67 515 -67 c 0
 406 -67 331 40 331 40 c 1
 331 40 263 -67 167 -67 c 0
 79 -67 62 -25 59 -13 c 1
 152 76 185 159 185 343 c 0
 185 554 106 580 86 600 c 1
 86 617 185 644 185 889 c 0
 185 1071 150 1150 47 1237 c 1
 47 1237 72 1289 180 1289 c 0
 301 1289 392 1127 392 1127 c 1
EndSplineSet
EndChar

StartChar: n
Encoding: 110 110 79
Width: 1259
Flags: HW
LayerCount: 2
Fore
SplineSet
385 1139 m 1
 493 1255 611 1312 718 1312 c 0
 920 1312 1080 1169 1080 894 c 0
 1080 623 1166 626 1166 600 c 0
 1166 587 1080 568 1080 343 c 0
 1080 158 1112 76 1205 -13 c 1
 1205 -13 1183 -67 1097 -67 c 0
 988 -67 913 40 913 40 c 1
 913 40 845 -67 748 -67 c 0
 686 -67 673 -25 670 -13 c 1
 746 77 779 167 779 353 c 0
 779 572 681 598 681 610 c 0
 681 631 779 665 779 894 c 0
 779 1076 735 1148 661 1148 c 0
 569 1148 488 1068 488 876 c 0
 488 647 575 631 575 610 c 0
 575 596 490 566 490 343 c 0
 490 158 522 76 615 -13 c 1
 615 -13 596 -67 519 -67 c 0
 411 -67 331 40 331 40 c 1
 331 40 262 -67 167 -67 c 0
 78 -67 62 -25 59 -13 c 1
 151 76 185 159 185 343 c 0
 185 562 107 588 85 610 c 1
 85 623 185 649 185 869 c 0
 185 1061 149 1144 47 1237 c 1
 47 1237 72 1289 180 1289 c 0
 307 1289 385 1139 385 1139 c 1
EndSplineSet
EndChar

StartChar: o
Encoding: 111 111 80
Width: 1155
Flags: HW
LayerCount: 2
Fore
SplineSet
455 365 m 0
 455 195 497 112 580 112 c 0
 669 112 713 201 713 375 c 0
 713 588 642 590 626 612 c 1
 626 636 713 635 713 891 c 0
 713 1050 668 1131 583 1131 c 0
 498 1131 454 1050 454 891 c 0
 454 635 540 636 540 612 c 0
 540 599 455 589 455 365 c 0
1016 355 m 0
 1016 73 799 -68 583 -68 c 0
 366 -68 150 73 150 355 c 0
 150 580 38 600 38 612 c 0
 38 632 150 637 150 881 c 0
 150 1167 366 1311 583 1311 c 0
 799 1311 1016 1167 1016 881 c 0
 1016 642 1116 631 1116 612 c 1
 1095 591 1016 564 1016 355 c 0
EndSplineSet
EndChar

StartChar: p
Encoding: 112 112 81
Width: 1172
Flags: HW
LayerCount: 2
Fore
SplineSet
1033 884 m 0
 1033 665 1111 637 1133 616 c 1
 1133 597 1033 587 1033 348 c 0
 1033 54 859 -84 686 -84 c 0
 606 -84 527 -55 465 2 c 1
 481 -159 518 -264 587 -372 c 1
 587 -372 583 -431 481 -431 c 0
 378 -431 316 -326 316 -326 c 1
 316 -326 255 -431 151 -431 c 0
 50 -431 46 -372 46 -372 c 1
 136 -262 167 -151 167 94 c 2
 167 348 l 2
 167 592 55 596 55 616 c 0
 55 630 161 649 167 867 c 1
 166 1066 134 1157 46 1249 c 1
 46 1249 51 1309 151 1309 c 0
 244 1309 307 1220 343 1158 c 1
 432 1259 550 1311 662 1311 c 0
 855 1311 1033 1174 1033 884 c 0
472 884 m 0
 472 661 557 630 557 616 c 0
 557 593 471 595 471 348 c 0
 471 188 515 111 600 111 c 0
 685 111 730 188 730 348 c 0
 730 595 643 593 643 616 c 1
 659 636 730 663 730 874 c 0
 730 1048 683 1131 598 1131 c 0
 514 1131 472 1054 472 884 c 0
EndSplineSet
EndChar

StartChar: q
Encoding: 113 113 82
Width: 1170
Flags: HW
LayerCount: 2
Fore
SplineSet
699 884 m 0
 699 1054 657 1131 573 1131 c 0
 488 1131 441 1048 441 874 c 0
 441 663 512 636 528 616 c 1
 528 593 441 595 441 348 c 0
 441 188 486 111 571 111 c 0
 656 111 700 188 700 348 c 0
 700 595 614 593 614 616 c 0
 614 630 699 661 699 884 c 0
138 884 m 0
 138 1174 316 1311 509 1311 c 0
 621 1311 739 1259 828 1158 c 1
 864 1220 927 1309 1020 1309 c 0
 1120 1309 1125 1249 1125 1249 c 1
 1037 1157 1005 1066 1004 867 c 1
 1010 649 1116 630 1116 616 c 0
 1116 596 1004 592 1004 348 c 2
 1004 94 l 2
 1004 -151 1035 -262 1125 -372 c 1
 1125 -372 1121 -431 1020 -431 c 0
 916 -431 855 -326 855 -326 c 1
 855 -326 793 -431 690 -431 c 0
 588 -431 584 -372 584 -372 c 1
 653 -264 690 -159 706 2 c 1
 644 -55 565 -84 485 -84 c 0
 312 -84 138 54 138 348 c 0
 138 587 38 597 38 616 c 1
 60 637 138 665 138 884 c 0
EndSplineSet
EndChar

StartChar: r
Encoding: 114 114 83
Width: 979
Flags: HW
LayerCount: 2
Fore
SplineSet
486 905 m 0
 486 731 582 608 594 608 c 1
 585 593 490 556 490 343 c 0
 490 158 522 76 615 -13 c 1
 615 -13 596 -67 519 -67 c 0
 411 -67 331 40 331 40 c 1
 331 40 262 -67 167 -67 c 0
 78 -67 62 -25 59 -13 c 1
 151 76 185 159 185 343 c 0
 185 562 107 588 85 610 c 1
 85 623 185 649 185 869 c 0
 185 1061 149 1144 47 1237 c 1
 47 1237 72 1289 180 1289 c 0
 268 1289 329 1199 367 1135 c 1
 460 1258 572 1310 672 1310 c 0
 880 1310 940 1192 940 1063 c 0
 940 980 902 890 867 834 c 0
 865 830 864 823 864 820 c 0
 864 800 882 778 900 750 c 1
 896 750 887 741 873 741 c 0
 762 741 740 872 740 878 c 2
 740 879 l 1
 740 879 702 858 661 858 c 0
 561 858 554 944 554 944 c 1
 559 943 565 943 570 943 c 0
 650 943 702 1011 702 1069 c 0
 702 1111 674 1147 610 1147 c 0
 503 1147 486 1060 486 905 c 0
EndSplineSet
EndChar

StartChar: s
Encoding: 115 115 84
Width: 1023
Flags: HW
LayerCount: 2
Fore
SplineSet
352 467 m 0
 328 480 336 547 261 607 c 1
 147 681 75 781 75 920 c 0
 75 1175 250 1311 513 1311 c 0
 652 1311 909 1238 909 993 c 0
 909 950 895 898 895 858 c 0
 895 825 904 795 938 760 c 1
 938 760 924 747 897 747 c 0
 890 747 882 748 874 750 c 0
 771 777 730 882 730 891 c 1
 727 889 672 849 616 849 c 0
 540 849 532 900 532 908 c 2
 532 912 l 1
 599 922 639 949 659 1022 c 0
 660 1028 660 1034 660 1039 c 0
 660 1100 601 1129 532 1129 c 0
 416 1129 399 1036 399 970 c 0
 399 871 443 817 523 787 c 0
 532 783 544 782 554 782 c 0
 599 782 654 806 673 806 c 0
 694 806 693 711 760 674 c 1
 887 591 984 465 984 289 c 0
 984 58 781 -84 471 -84 c 0
 299 -84 73 37 73 268 c 0
 73 306 84 348 84 386 c 0
 84 423 74 460 42 496 c 1
 42 496 57 510 85 510 c 0
 92 510 99 509 107 507 c 0
 211 479 238 364 238 358 c 1
 238 358 306 405 371 405 c 0
 452 405 461 351 461 342 c 0
 461 341 461 340 461 339 c 0
 413 329 356 297 356 221 c 0
 356 144 417 107 494 107 c 0
 623 107 660 198 660 247 c 0
 660 398 555 481 455 481 c 0
 410 481 375 465 359 465 c 0
 357 465 354 466 352 467 c 0
EndSplineSet
EndChar

StartChar: t
Encoding: 116 116 85
Width: 980
Flags: HW
LayerCount: 2
Fore
SplineSet
106 1109 m 0
 60 1109 39 1156 39 1201 c 0
 39 1226 47 1247 66 1251 c 0
 328 1311 384 1681 384 1681 c 1
 393 1706 425 1721 455 1721 c 0
 484 1721 510 1706 510 1674 c 0
 510 1587 502 1506 502 1413 c 0
 502 1363 504 1310 511 1251 c 1
 562 1251 624 1275 675 1275 c 0
 724 1275 764 1247 764 1187 c 0
 764 1128 724 1100 675 1100 c 0
 624 1100 562 1124 511 1124 c 1
 509 1073 509 1016 509 954 c 0
 509 620 598 651 598 611 c 0
 598 586 509 586 509 321 c 0
 509 245 513 61 643 61 c 0
 701 61 791 93 791 442 c 0
 791 467 832 480 874 480 c 0
 907 480 940 465 940 439 c 0
 940 -65 703 -83 614 -83 c 0
 428 -83 343 19 343 20 c 2
 343 20 294 -83 194 -83 c 0
 102 -83 98 -29 98 -29 c 1
 207 36 207 112 207 321 c 0
 207 586 108 586 108 611 c 0
 108 651 207 620 207 954 c 0
 207 1016 206 1073 204 1124 c 1
 173 1124 137 1109 106 1109 c 0
EndSplineSet
EndChar

StartChar: u
Encoding: 117 117 86
Width: 1200
Flags: HW
LayerCount: 2
Fore
SplineSet
1017 880 m 0
 1017 644 1103 625 1103 612 c 0
 1103 588 1018 587 1018 345 c 0
 1018 154 1046 76 1138 -14 c 1
 1138 -14 1117 -65 1003 -65 c 0
 877 -65 800 106 800 106 c 1
 729 -12 626 -67 520 -67 c 0
 337 -67 160 71 160 316 c 0
 160 586 72 586 72 612 c 0
 72 625 160 644 160 890 c 0
 160 1078 132 1166 44 1256 c 1
 44 1256 61 1311 152 1311 c 0
 248 1311 316 1204 316 1204 c 1
 316 1204 383 1311 480 1311 c 0
 557 1311 566 1265 567 1256 c 1
 481 1167 451 1066 451 880 c 0
 451 644 537 625 537 612 c 0
 537 588 451 587 451 330 c 0
 451 171 517 96 592 96 c 0
 665 96 741 179 741 330 c 0
 741 587 663 588 663 612 c 0
 663 626 739 654 739 890 c 0
 739 1078 715 1166 643 1256 c 1
 643 1256 657 1311 729 1311 c 0
 826 1311 893 1204 893 1204 c 1
 893 1204 953 1311 1038 1311 c 0
 1132 1311 1145 1265 1146 1256 c 1
 1051 1166 1017 1068 1017 880 c 0
EndSplineSet
EndChar

StartChar: v
Encoding: 118 118 87
Width: 1188
Flags: HW
LayerCount: 2
Fore
SplineSet
956 641 m 1
 954 641 l 2
 910 641 799 368 799 199 c 0
 799 125 816 49 854 -13 c 1
 854 -20 862 -67 743 -67 c 0
 670 -67 611 10 611 10 c 1
 611 10 574 -67 473 -67 c 0
 382 -67 362 -13 362 -13 c 1
 395 30 411 75 411 134 c 0
 411 182 401 240 380 315 c 0
 298 606 196 582 196 616 c 0
 196 637 242 634 242 730 c 0
 242 773 232 837 205 934 c 0
 158 1106 110 1175 6 1256 c 1
 6 1256 5 1258 5 1261 c 0
 5 1275 13 1310 87 1310 c 0
 220 1310 337 1193 337 1193 c 1
 337 1193 369 1310 456 1310 c 0
 540 1310 557 1256 557 1256 c 1
 523 1211 506 1169 506 1110 c 0
 506 1064 516 1009 537 934 c 1
 600 612 635 456 653 382 c 1
 682 450 697 515 697 570 c 0
 697 599 692 626 684 648 c 0
 684 649 683 650 683 651 c 0
 682 668 741 688 776 934 c 0
 786 1009 787 1064 787 1110 c 0
 787 1169 770 1211 736 1256 c 1
 736 1256 753 1310 837 1310 c 0
 913 1310 936 1213 936 1213 c 1
 936 1213 1010 1310 1106 1310 c 0
 1182 1310 1187 1272 1187 1260 c 2
 1187 1256 l 1
 1057 1179 951 851 951 733 c 0
 951 689 960 662 960 649 c 0
 960 645 959 642 956 641 c 1
EndSplineSet
EndChar

StartChar: w
Encoding: 119 119 88
Width: 1862
Flags: HW
LayerCount: 2
Fore
SplineSet
769 278 m 1
 759 247 755 217 755 190 c 0
 755 91 811 22 854 -13 c 1
 854 -20 862 -67 743 -67 c 0
 670 -67 611 10 611 10 c 1
 611 10 574 -67 473 -67 c 0
 382 -67 362 -13 362 -13 c 1
 395 30 411 75 411 134 c 0
 411 182 401 240 380 315 c 0
 298 606 196 582 196 616 c 0
 196 637 242 634 242 730 c 0
 242 773 232 837 205 934 c 0
 158 1106 110 1175 6 1256 c 1
 6 1256 5 1258 5 1261 c 0
 5 1275 13 1310 87 1310 c 0
 220 1310 337 1193 337 1193 c 1
 337 1193 369 1310 456 1310 c 0
 540 1310 557 1256 557 1256 c 1
 523 1211 506 1169 506 1110 c 0
 506 1064 516 1009 537 934 c 1
 600 612 635 456 653 382 c 1
 682 450 697 515 697 570 c 0
 697 599 692 626 684 648 c 0
 684 649 683 650 683 651 c 0
 683 668 754 689 796 934 c 1
 803 1009 807 1064 807 1110 c 1
 968 934 l 1
 944 870 936 819 936 778 c 0
 936 705 960 665 960 649 c 0
 960 645 959 642 956 641 c 0
 901 612 840 552 769 278 c 1
1436 278 m 1
 1426 247 1422 217 1422 190 c 0
 1422 91 1478 22 1521 -13 c 1
 1521 -20 1529 -67 1410 -67 c 0
 1337 -67 1278 10 1278 10 c 1
 1278 10 1241 -67 1140 -67 c 0
 1049 -67 1029 -13 1029 -13 c 1
 1062 30 1078 75 1078 134 c 0
 1078 182 1068 240 1047 315 c 0
 965 606 863 582 863 616 c 0
 863 637 909 634 909 730 c 0
 909 773 899 837 872 934 c 0
 825 1106 777 1175 673 1256 c 1
 673 1256 672 1258 672 1261 c 0
 672 1275 680 1310 754 1310 c 0
 887 1310 1004 1193 1004 1193 c 1
 1004 1193 1036 1310 1123 1310 c 0
 1207 1310 1224 1256 1224 1256 c 1
 1190 1211 1173 1169 1173 1110 c 0
 1173 1064 1183 1009 1204 934 c 1
 1267 612 1302 456 1320 382 c 1
 1349 450 1364 515 1364 570 c 0
 1364 599 1359 626 1351 648 c 0
 1351 649 1350 650 1350 651 c 0
 1350 668 1421 689 1463 934 c 1
 1470 1009 1474 1064 1474 1110 c 0
 1474 1169 1457 1211 1423 1256 c 1
 1423 1256 1440 1310 1524 1310 c 0
 1600 1310 1623 1213 1623 1213 c 1
 1623 1213 1689 1310 1773 1310 c 0
 1861 1310 1854 1259 1854 1256 c 1
 1739 1175 1699 1102 1635 934 c 0
 1611 870 1603 819 1603 778 c 0
 1603 705 1627 665 1627 649 c 0
 1627 645 1626 642 1623 641 c 0
 1568 612 1507 552 1436 278 c 1
EndSplineSet
EndChar

StartChar: x
Encoding: 120 120 89
Width: 1294
Flags: HW
LayerCount: 2
Fore
SplineSet
331 275 m 1
 495 527 l 1
 463 552 428 573 391 576 c 0
 380 577 376 581 376 589 c 0
 376 613 413 665 413 733 c 0
 413 758 408 785 394 814 c 2
 313 984 l 1
 236 1126 182 1186 84 1252 c 1
 84 1252 79 1259 79 1269 c 0
 79 1287 94 1311 177 1311 c 0
 277 1311 387 1226 387 1226 c 1
 387 1226 391 1311 482 1311 c 0
 551 1311 576 1252 576 1252 c 1
 565 1222 564 1189 564 1155 c 0
 564 1120 570 1044 672 869 c 1
 743 969 767 1031 767 1107 c 0
 767 1150 762 1196 752 1252 c 1
 752 1252 777 1311 846 1311 c 0
 937 1311 941 1226 941 1226 c 1
 941 1226 1042 1311 1131 1311 c 0
 1214 1311 1229 1287 1229 1269 c 0
 1229 1259 1224 1252 1224 1252 c 1
 1090 1170 1026 1089 905 904 c 2
 785 720 l 1
 813 700 854 677 912 663 c 0
 928 659 934 651 934 641 c 0
 934 614 893 568 893 522 c 0
 893 486 904 436 938 367 c 1
 987 275 l 1
 1077 125 1123 57 1223 -14 c 1
 1223 -14 1229 -22 1229 -33 c 0
 1229 -50 1213 -74 1130 -74 c 0
 1051 -74 960 11 960 11 c 1
 960 11 956 -74 836 -74 c 0
 767 -74 740 -14 740 -14 c 1
 744 18 746 46 746 72 c 0
 746 167 714 236 620 392 c 5
 523 243 491 186 491 132 c 0
 491 92 507 53 528 -14 c 1
 528 -14 501 -74 432 -74 c 0
 323 -74 318 11 318 11 c 1
 318 11 227 -74 148 -74 c 0
 65 -74 49 -50 49 -33 c 0
 49 -22 55 -14 55 -14 c 1
 171 57 225 125 331 275 c 1
EndSplineSet
EndChar

StartChar: y
Encoding: 121 121 90
Width: 1274
Flags: HW
LayerCount: 2
Fore
SplineSet
773 -65 m 0
 742 -319 593 -437 386 -437 c 0
 214 -437 49 -337 49 -149 c 0
 49 -121 54 -92 63 -61 c 0
 75 -20 95 15 95 56 c 0
 95 74 92 93 82 114 c 1
 82 114 89 116 101 116 c 0
 212 116 228 -30 228 -58 c 0
 228 -69 227 -76 227 -77 c 2
 227 -77 268 -64 313 -64 c 0
 405 -64 436 -125 436 -147 c 0
 436 -155 434 -161 433 -163 c 1
 420 -162 406 -161 392 -161 c 0
 337 -161 277 -174 277 -229 c 0
 277 -310 334 -352 394 -352 c 0
 457 -352 522 -304 522 -203 c 0
 522 -188 521 -172 518 -155 c 0
 517 -152 520 -80 426 315 c 1
 344 606 242 582 242 616 c 0
 242 637 288 634 288 730 c 0
 288 773 278 837 251 934 c 0
 204 1106 156 1175 52 1256 c 1
 52 1256 51 1258 51 1261 c 0
 51 1275 59 1310 133 1310 c 0
 266 1310 383 1193 383 1193 c 1
 383 1193 415 1310 502 1310 c 0
 586 1310 603 1256 603 1256 c 1
 569 1211 552 1169 552 1110 c 0
 552 1064 569 1010 583 934 c 0
 646 598 699 352 699 352 c 1
 699 352 743 506 743 570 c 0
 743 599 738 626 730 648 c 0
 730 649 729 650 729 651 c 0
 729 668 807 697 840 943 c 0
 850 1018 853 1064 853 1110 c 0
 853 1169 836 1211 802 1256 c 1
 802 1256 819 1310 903 1310 c 0
 979 1310 1002 1213 1002 1213 c 1
 1002 1213 1068 1310 1152 1310 c 0
 1228 1310 1233 1272 1233 1260 c 2
 1233 1256 l 1
 1118 1175 1048 1061 1014 934 c 0
 1001 887 988 819 988 778 c 0
 988 705 1006 665 1006 649 c 0
 1006 645 1005 642 1002 641 c 0
 941 609 830 405 773 -65 c 0
EndSplineSet
EndChar

StartChar: z
Encoding: 122 122 91
Width: 1090
Flags: HW
LayerCount: 2
Fore
SplineSet
554 1050 m 0
 554 1177 476 1223 434 1223 c 0
 358 1223 326 1175 326 1131 c 0
 326 1096 348 1064 385 1064 c 0
 408 1064 431 1070 453 1078 c 1
 453 1078 460 1072 460 1051 c 0
 460 982 391 950 335 950 c 0
 329 950 324 950 319 951 c 1
 320 949 329 923 329 886 c 0
 329 842 300 734 223 734 c 2
 216 734 l 1
 219 749 220 762 220 774 c 0
 220 891 106 921 106 1048 c 0
 106 1241 257 1312 405 1312 c 0
 591 1312 658 1253 733 1182 c 1
 733 1182 879 1313 982 1313 c 0
 1008 1313 1045 1289 1045 1245 c 0
 1045 1238 1044 1231 1040 1222 c 1
 969 1196 755 754 755 602 c 0
 755 564 772 542 772 530 c 0
 772 527 770 524 766 522 c 0
 727 505 561 354 561 204 c 0
 561 70 622 21 701 21 c 0
 776 21 803 54 803 105 c 0
 803 163 755 180 730 180 c 0
 704 180 677 174 652 166 c 1
 652 166 645 172 645 193 c 0
 645 222 682 294 795 294 c 0
 808 294 816 293 816 293 c 1
 806 295 806 321 806 358 c 0
 806 402 835 510 912 510 c 2
 919 510 l 1
 916 495 915 482 915 470 c 0
 915 353 1029 323 1029 196 c 0
 1029 3 863 -68 700 -68 c 0
 508 -68 439 -9 362 62 c 1
 362 62 216 -69 113 -69 c 0
 87 -69 50 -45 50 -1 c 0
 50 6 51 13 55 22 c 1
 157 60 369 424 369 599 c 0
 369 642 348 664 348 673 c 1
 350 676 l 1
 354 687 554 821 554 1050 c 0
EndSplineSet
EndChar

StartChar: braceleft
Encoding: 123 123 92
Width: 670
Flags: HW
LayerCount: 2
Fore
SplineSet
227 -110 m 2
 227 70 l 2
 227 183 214 281 124 313 c 1
 124 406 109 465 46 510 c 1
 226 537 227 666 227 871 c 2
 227 1050 l 2
 227 1302 318 1374 616 1374 c 1
 616 1289 l 1
 459 1265 440 1206 440 1018 c 2
 440 862 l 2
 440 633 419 530 252 472 c 1
 252 470 l 1
 418 411 440 313 440 77 c 2
 440 -122 l 2
 440 -282 474 -334 616 -350 c 1
 616 -434 l 1
 318 -434 227 -362 227 -110 c 2
EndSplineSet
EndChar

StartChar: bar
Encoding: 124 124 93
Width: 367
Flags: HW
LayerCount: 2
Fore
SplineSet
102 1463 m 1
 264 1463 l 1
 264 -473 l 1
 102 -473 l 1
 102 1463 l 1
EndSplineSet
EndChar

StartChar: braceright
Encoding: 125 125 94
Width: 675
Flags: HW
LayerCount: 2
Fore
SplineSet
232 818 m 2
 232 1062 l 2
 232 1223 195 1270 54 1289 c 1
 54 1374 l 1
 354 1374 443 1302 443 1050 c 2
 443 852 l 2
 443 655 447 534 625 510 c 1
 625 430 l 1
 448 406 443 289 443 87 c 2
 443 -110 l 2
 443 -362 354 -434 54 -434 c 1
 54 -350 l 1
 195 -334 232 -282 232 -122 c 2
 232 33 l 2
 232 293 243 408 419 469 c 1
 419 471 l 1
 266 527 232 614 232 818 c 2
EndSplineSet
EndChar

StartChar: asciitilde
Encoding: 126 126 95
Width: 1151
Flags: HW
LayerCount: 2
Fore
SplineSet
1032 764 m 1
 1068 587 l 1
 994 503 918 441 800 441 c 0
 627 441 511 579 335 579 c 0
 245 579 188 524 119 436 c 1
 82 610 l 1
 138 692 227 759 348 759 c 0
 520 759 688 620 811 620 c 0
 893 620 967 683 1032 764 c 1
EndSplineSet
EndChar

StartChar: exclamdown
Encoding: 161 161 96
Width: 431
Flags: HW
LayerCount: 2
Fore
SplineSet
166 589 m 1
 270 589 l 1
 329 -26 l 1
 333 -104 l 2
 336 -156 340 -210 340 -262 c 0
 340 -338 317 -401 268 -429 c 1
 176 -429 123 -394 88 -347 c 1
 89 -267 92 -184 96 -104 c 2
 100 -26 l 1
 166 589 l 1
352 782 m 1
 311 739 237 706 153 706 c 1
 110 747 77 821 77 905 c 1
 118 948 192 981 276 981 c 1
 319 940 352 866 352 782 c 1
EndSplineSet
EndChar

StartChar: cent
Encoding: 162 162 97
Width: 1062
Flags: HW
LayerCount: 2
Fore
SplineSet
386 -217 m 1
 386 3 l 1
 497 3 l 1
 497 -217 l 1
 386 -217 l 1
386 1383 m 1
 386 1603 l 1
 497 1603 l 1
 497 1383 l 1
 386 1383 l 1
566 -217 m 1
 566 3 l 1
 677 3 l 1
 677 -217 l 1
 566 -217 l 1
566 1383 m 1
 566 1603 l 1
 677 1603 l 1
 677 1383 l 1
 566 1383 l 1
429 359 m 0
 429 198 430 106 551 106 c 0
 651 106 655 235 655 300 c 0
 655 419 638 466 572 521 c 1
 572 521 575 561 644 561 c 0
 727 561 777 503 777 503 c 1
 777 503 838 561 927 561 c 0
 996 561 999 521 999 521 c 1
 937 469 925 422 925 314 c 2
 925 193 l 2
 925 -51 694 -85 529 -85 c 0
 302 -85 149 43 149 257 c 2
 149 351 l 2
 149 661 50 657 50 687 c 0
 50 726 149 700 149 1024 c 2
 149 1118 l 2
 149 1355 331 1442 536 1442 c 0
 701 1442 925 1408 925 1182 c 2
 925 1061 l 2
 925 948 945 898 1008 844 c 1
 1008 844 1005 804 936 804 c 0
 847 804 786 862 786 862 c 1
 786 862 732 804 643 804 c 0
 574 804 571 844 571 844 c 1
 644 907 655 959 655 1110 c 0
 655 1175 643 1262 540 1262 c 0
 439 1262 428 1176 428 1100 c 0
 428 1077 429 1056 429 1037 c 0
 429 708 528 734 528 695 c 0
 528 665 429 669 429 359 c 0
EndSplineSet
EndChar

StartChar: sterling
Encoding: 163 163 98
Width: 1191
Flags: HW
LayerCount: 2
Fore
SplineSet
83 670 m 1
 83 670 58 673 58 716 c 2
 58 812 l 2
 58 855 83 858 83 858 c 1
 121 854 184 835 246 835 c 0
 255 835 264 838 273 848 c 1
 270 931 269 1028 269 1124 c 0
 269 1358 384 1586 678 1586 c 0
 843 1586 1064 1554 1064 1217 c 0
 1064 1153 1082 1127 1135 1098 c 1
 1135 1098 1132 1054 1056 1054 c 0
 988 1054 941 1118 941 1118 c 1
 941 1118 894 1054 814 1054 c 0
 739 1054 734 1098 734 1098 c 1
 797 1124 807 1145 807 1202 c 0
 807 1275 796 1372 702 1372 c 0
 596 1372 563 1287 563 1189 c 0
 563 1032 590 855 599 847 c 1
 610 832 621 828 633 828 c 0
 717 828 798 854 843 858 c 1
 843 858 868 855 868 812 c 2
 868 716 l 2
 868 672 843 670 843 670 c 1
 800 672 719 699 634 699 c 0
 596 699 582 675 582 494 c 0
 582 206 554 179 554 179 c 1
 554 179 554 204 884 204 c 0
 977 204 1025 226 1072 273 c 1
 1072 273 1112 269 1112 203 c 0
 1112 144 1060 108 1055 105 c 1
 1057 103 1112 66 1112 6 c 0
 1112 -60 1072 -65 1072 -65 c 1
 1003 -21 946 -5 893 -5 c 0
 791 -5 712 -64 627 -64 c 0
 571 -64 513 -41 444 9 c 1
 444 9 378 -65 268 -65 c 0
 167 -65 163 -5 163 -5 c 1
 283 71 283 141 283 384 c 0
 283 594 283 693 245 693 c 0
 182 693 120 673 83 670 c 1
EndSplineSet
EndChar

StartChar: fraction
Encoding: 8260 8260 99
Width: 1225
Flags: HW
LayerCount: 2
Fore
SplineSet
49 -16 m 1
 1047 1330 l 1
 1175 1330 l 1
 178 -16 l 1
 49 -16 l 1
EndSplineSet
EndChar

StartChar: yen
Encoding: 165 165 100
Width: 1247
Flags: HW
LayerCount: 2
Fore
SplineSet
219 562 m 1
 219 562 194 565 194 608 c 2
 194 654 l 2
 194 697 219 700 219 700 c 1
 268 694 340 691 423 689 c 1
 357 950 219 1230 53 1369 c 1
 53 1369 50 1377 50 1381 c 0
 50 1397 64 1419 153 1419 c 0
 228 1419 336 1304 336 1304 c 1
 336 1304 347 1419 436 1419 c 0
 512 1419 546 1375 554 1361 c 1
 537 1326 527 1291 527 1250 c 0
 527 1146 610 756 627 756 c 0
 653 756 732 1155 732 1250 c 0
 732 1290 723 1326 706 1361 c 1
 706 1361 751 1419 824 1419 c 0
 922 1419 934 1304 934 1304 c 1
 934 1304 1029 1419 1097 1419 c 0
 1185 1419 1198 1397 1198 1381 c 0
 1198 1376 1197 1370 1197 1367 c 1
 1031 1229 891 950 825 689 c 1
 924 692 1010 695 1059 700 c 1
 1059 700 1084 697 1084 654 c 2
 1084 608 l 2
 1084 565 1059 562 1059 562 c 1
 1009 566 911 570 800 573 c 1
 792 529 787 486 785 445 c 1
 900 447 1004 452 1059 457 c 1
 1059 457 1084 454 1084 411 c 2
 1084 365 l 2
 1084 322 1059 319 1059 319 c 1
 1007 323 901 328 784 330 c 1
 789 159 821 81 896 -14 c 1
 896 -14 875 -68 788 -68 c 0
 692 -68 624 39 624 39 c 1
 624 39 556 -68 461 -68 c 0
 372 -68 356 -26 353 -14 c 1
 427 81 458 159 464 331 c 1
 361 329 272 325 219 319 c 1
 219 319 194 322 194 365 c 2
 194 411 l 2
 194 454 219 457 219 457 c 1
 275 450 363 446 463 445 c 1
 460 486 456 529 448 573 c 1
 352 571 270 567 219 562 c 1
EndSplineSet
EndChar

StartChar: florin
Encoding: 402 402 101
Width: 1182
Flags: HW
LayerCount: 2
Fore
SplineSet
296 832 m 1
 307 963 l 1
 549 963 l 1
 575 1110 l 2
 608 1300 701 1445 912 1445 c 0
 997 1445 1101 1408 1143 1332 c 1
 1136 1264 1103 1210 1058 1183 c 1
 982 1192 936 1219 915 1254 c 1
 915 1278 928 1295 953 1299 c 1
 945 1304 928 1307 912 1307 c 0
 815 1307 793 1215 773 1066 c 1
 761 963 l 1
 1003 963 l 1
 991 832 l 1
 741 832 l 1
 629 87 l 2
 579 -244 519 -434 264 -434 c 0
 161 -434 77 -398 34 -319 c 1
 41 -254 75 -201 122 -174 c 1
 197 -182 242 -217 261 -249 c 1
 261 -265 245 -287 222 -296 c 1
 222 -297 l 1
 225 -302 234 -304 248 -304 c 0
 364 -304 379 -221 408 0 c 1
 529 832 l 1
 296 832 l 1
EndSplineSet
EndChar

StartChar: section
Encoding: 167 167 102
Width: 1061
Flags: HW
LayerCount: 2
Fore
SplineSet
241 556 m 0
 241 400 544 353 667 301 c 1
 747 322 825 384 825 482 c 0
 825 642 507 696 400 736 c 1
 295 705 241 652 241 556 c 0
1005 530 m 0
 1005 390 914 295 776 231 c 1
 776 229 l 1
 892 178 954 75 954 -45 c 0
 954 -270 749 -395 529 -395 c 0
 338 -395 138 -308 122 -120 c 1
 122 -64 143 -17 188 -2 c 1
 268 -2 326 -33 358 -61 c 1
 358 -104 342 -122 302 -122 c 1
 305 -230 438 -257 534 -257 c 0
 653 -257 766 -183 766 -72 c 0
 766 193 60 100 60 506 c 0
 60 643 143 749 292 800 c 1
 292 802 l 1
 184 862 118 954 118 1075 c 0
 118 1288 321 1407 537 1407 c 0
 730 1407 928 1318 928 1105 c 1
 896 1066 841 1032 768 1032 c 0
 710 1032 697 1064 697 1131 c 0
 697 1173 701 1206 703 1227 c 1
 686 1242 660 1251 625 1252 c 1
 594 1264 564 1271 532 1271 c 0
 421 1271 305 1221 305 1108 c 0
 305 863 1005 910 1005 530 c 0
EndSplineSet
EndChar

StartChar: quotesingle
Encoding: 39 39 104
Width: 328
Flags: HW
LayerCount: 2
Fore
SplineSet
245 1192 m 1
 213 841 l 1
 193 820 168 810 137 810 c 1
 122 819 114 839 111 870 c 2
 88 1113 l 1
 85 1186 80 1260 80 1332 c 1
 108 1379 149 1395 204 1395 c 1
 231 1379 246 1347 246 1284 c 0
 246 1253 245 1223 245 1192 c 1
EndSplineSet
EndChar

StartChar: quotedblleft
Encoding: 8220 8220 105
Width: 923
Flags: HW
LayerCount: 2
Fore
SplineSet
838 1395 m 1
 838 1300 l 1
 734 1273 675 1219 675 1098 c 1
 677 1098 l 1
 704 1111 747 1115 786 1115 c 1
 817 1074 847 1008 847 928 c 1
 827 885 774 853 710 853 c 0
 659 853 615 867 576 888 c 1
 559 951 548 1018 548 1089 c 0
 548 1272 662 1379 838 1395 c 1
363 1395 m 1
 363 1300 l 1
 259 1273 200 1219 200 1098 c 1
 202 1098 l 1
 229 1111 272 1115 311 1115 c 1
 342 1074 372 1008 372 928 c 1
 352 885 299 853 235 853 c 0
 184 853 140 867 101 888 c 1
 84 951 73 1018 73 1089 c 0
 73 1272 187 1379 363 1395 c 1
EndSplineSet
EndChar

StartChar: guillemotleft
Encoding: 171 171 106
Width: 968
Flags: HW
LayerCount: 2
Fore
SplineSet
312 894 m 1
 479 894 l 1
 426 790 323 575 275 484 c 1
 323 390 425 176 479 71 c 1
 312 71 l 1
 245 183 115 371 65 480 c 1
 116 587 245 782 312 894 c 1
728 894 m 1
 896 894 l 1
 840 790 740 575 692 484 c 1
 740 390 840 175 896 71 c 1
 728 71 l 1
 664 184 532 371 482 480 c 1
 533 587 664 782 728 894 c 1
EndSplineSet
EndChar

StartChar: guilsinglleft
Encoding: 8249 8249 107
Width: 552
Flags: HW
LayerCount: 2
Fore
SplineSet
311 894 m 1
 480 894 l 1
 424 791 323 576 275 484 c 1
 323 390 424 176 480 71 c 1
 311 71 l 1
 247 184 115 371 65 480 c 1
 116 587 247 782 311 894 c 1
EndSplineSet
EndChar

StartChar: guilsinglright
Encoding: 8250 8250 108
Width: 549
Flags: HW
LayerCount: 2
Fore
SplineSet
238 71 m 1
 70 71 l 1
 126 175 227 388 275 481 c 1
 226 575 126 790 70 894 c 1
 238 894 l 1
 305 782 434 593 485 485 c 1
 434 375 305 184 238 71 c 1
EndSplineSet
EndChar

StartChar: endash
Encoding: 8211 8211 109
Width: 1213
Flags: HW
LayerCount: 2
Fore
SplineSet
1126 410 m 1
 90 410 l 1
 90 579 l 1
 1126 579 l 1
 1126 410 l 1
EndSplineSet
EndChar

StartChar: dagger
Encoding: 8224 8224 110
Width: 1104
Flags: HW
LayerCount: 2
Fore
SplineSet
56 775 m 1
 56 842 79 897 114 929 c 1
 165 929 214 924 265 919 c 1
 340 884 407 863 503 863 c 1
 503 997 481 1082 449 1160 c 1
 442 1227 438 1287 438 1346 c 1
 473 1383 532 1406 604 1406 c 1
 639 1367 666 1307 666 1231 c 1
 642 1146 600 1040 600 863 c 1
 692 863 783 895 839 919 c 1
 890 926 939 929 990 929 c 1
 1025 897 1048 842 1048 775 c 1
 1016 740 960 718 892 718 c 1
 809 737 722 783 600 783 c 1
 600 704 614 624 634 557 c 1
 637 331 642 145 642 -26 c 0
 642 -143 639 -253 633 -363 c 1
 621 -408 593 -439 533 -439 c 1
 463 -388 457 -267 457 -146 c 0
 457 55 464 265 469 557 c 1
 496 629 503 658 503 783 c 1
 391 783 284 731 212 718 c 1
 144 718 88 740 56 775 c 1
EndSplineSet
EndChar

StartChar: daggerdbl
Encoding: 8225 8225 111
Width: 1088
Flags: HW
LayerCount: 2
Fore
SplineSet
1024 830 m 1
 1003 797 949 776 894 776 c 0
 804 776 711 836 589 836 c 1
 589 720 620 588 660 487 c 1
 621 388 589 257 589 139 c 1
 708 139 801 199 894 199 c 0
 949 199 1003 178 1024 145 c 1
 1024 81 991 27 956 -4 c 1
 804 -4 751 48 589 59 c 1
 594 -93 635 -171 654 -257 c 1
 654 -333 628 -391 596 -430 c 1
 492 -430 l 1
 457 -391 433 -333 433 -257 c 1
 449 -174 497 -104 497 59 c 1
 413 56 330 30 262 1 c 1
 218 -2 174 -4 131 -4 c 1
 96 27 63 81 63 145 c 1
 84 178 137 199 193 199 c 0
 297 199 388 139 497 139 c 1
 489 277 467 373 424 487 c 1
 466 604 489 698 497 836 c 1
 375 836 286 776 193 776 c 0
 137 776 84 797 63 830 c 1
 63 894 96 949 131 980 c 1
 193 980 l 2
 282 980 384 921 497 916 c 1
 492 1075 452 1146 433 1233 c 1
 433 1308 459 1367 492 1406 c 1
 596 1406 l 1
 628 1367 654 1308 654 1233 c 1
 633 1148 594 1069 589 916 c 1
 693 921 756 948 824 974 c 1
 868 977 911 980 956 980 c 1
 991 949 1024 894 1024 830 c 1
EndSplineSet
EndChar

StartChar: periodcentered
Encoding: 183 183 112
Width: 527
Flags: HW
LayerCount: 2
Fore
SplineSet
111 828 m 1
 152 849 205 861 263 861 c 0
 309 861 359 853 408 836 c 1
 429 795 441 743 441 686 c 0
 441 638 432 588 415 539 c 1
 374 518 321 506 263 506 c 0
 216 506 166 514 116 532 c 1
 96 572 85 623 85 680 c 0
 85 727 93 778 111 828 c 1
EndSplineSet
EndChar

StartChar: paragraph
Encoding: 182 182 113
Width: 1162
Flags: HW
LayerCount: 2
Fore
SplineSet
618 -421 m 1
 448 -421 l 1
 448 540 l 1
 200 548 61 712 61 961 c 0
 61 1213 189 1374 504 1374 c 2
 1108 1374 l 1
 1108 1263 l 1
 1032 1263 980 1246 956 1182 c 1
 956 -421 l 1
 786 -421 l 1
 786 1256 l 1
 618 1256 l 1
 618 -421 l 1
EndSplineSet
EndChar

StartChar: bullet
Encoding: 8226 8226 114
Width: 1229
Flags: HW
LayerCount: 2
Fore
SplineSet
969 235 m 1
 967 229 l 1
 625 442 l 1
 269 226 l 1
 267 231 l 1
 363 618 l 1
 49 891 l 1
 451 921 l 1
 613 1305 l 1
 765 931 l 1
 1179 897 l 1
 872 636 l 1
 969 235 l 1
EndSplineSet
EndChar

StartChar: quotesinglbase
Encoding: 8218 8218 115
Width: 470
Flags: HW
LayerCount: 2
Fore
SplineSet
96 -283 m 1
 96 -189 l 1
 199 -163 258 -109 258 13 c 1
 256 13 l 1
 229 1 187 -3 148 -3 c 1
 117 38 86 103 86 183 c 1
 107 226 160 259 224 259 c 0
 275 259 319 245 358 224 c 1
 375 161 385 93 385 22 c 0
 385 -160 272 -267 96 -283 c 1
EndSplineSet
EndChar

StartChar: quotedblbase
Encoding: 8222 8222 116
Width: 945
Flags: HW
LayerCount: 2
Fore
SplineSet
96 -283 m 1
 96 -189 l 1
 199 -163 258 -109 258 13 c 1
 256 13 l 1
 229 1 187 -3 148 -3 c 1
 117 38 86 103 86 183 c 1
 107 226 160 259 224 259 c 0
 275 259 319 245 358 224 c 1
 375 161 385 93 385 22 c 0
 385 -160 272 -267 96 -283 c 1
570 -283 m 1
 570 -189 l 1
 674 -162 733 -110 733 13 c 1
 731 13 l 1
 704 1 662 -3 623 -3 c 1
 592 38 561 103 561 183 c 1
 582 226 634 259 698 259 c 0
 749 259 793 245 832 224 c 1
 851 161 860 93 860 22 c 0
 860 -160 747 -267 570 -283 c 1
EndSplineSet
EndChar

StartChar: quotedblright
Encoding: 8221 8221 117
Width: 928
Flags: HW
LayerCount: 2
Fore
SplineSet
88 853 m 1
 88 947 l 1
 191 972 250 1026 250 1149 c 1
 248 1149 l 1
 221 1136 179 1132 140 1132 c 1
 109 1173 78 1239 78 1319 c 1
 99 1362 152 1395 216 1395 c 0
 267 1395 311 1381 350 1360 c 1
 367 1297 377 1229 377 1158 c 0
 377 974 264 869 88 853 c 1
562 853 m 1
 562 947 l 1
 666 972 725 1026 725 1149 c 1
 723 1149 l 1
 696 1136 654 1132 615 1132 c 1
 584 1173 553 1239 553 1319 c 1
 574 1362 626 1395 690 1395 c 0
 741 1395 785 1381 824 1360 c 1
 843 1297 852 1229 852 1158 c 0
 852 974 739 869 562 853 c 1
EndSplineSet
EndChar

StartChar: guillemotright
Encoding: 187 187 118
Width: 965
Flags: HW
LayerCount: 2
Fore
SplineSet
654 71 m 1
 487 71 l 1
 541 176 643 388 691 481 c 1
 643 575 541 789 487 894 c 1
 654 894 l 1
 721 782 850 592 901 485 c 1
 850 376 721 184 654 71 c 1
238 71 m 1
 70 71 l 1
 126 175 226 388 274 481 c 1
 226 575 126 790 70 894 c 1
 238 894 l 1
 302 782 433 592 484 485 c 1
 433 376 303 184 238 71 c 1
EndSplineSet
EndChar

StartChar: ellipsis
Encoding: 8230 8230 119
Width: 1809
Flags: HW
LayerCount: 2
Fore
SplineSet
86 183 m 1
 127 226 201 259 285 259 c 1
 328 218 361 144 361 60 c 1
 320 17 246 -16 162 -16 c 1
 119 25 86 99 86 183 c 1
768 183 m 1
 809 226 883 259 967 259 c 1
 1010 218 1043 144 1043 60 c 1
 1002 17 928 -16 844 -16 c 1
 801 25 768 99 768 183 c 1
1450 183 m 1
 1491 226 1565 259 1649 259 c 1
 1692 218 1725 144 1725 60 c 1
 1684 17 1610 -16 1526 -16 c 1
 1483 25 1450 99 1450 183 c 1
EndSplineSet
EndChar

StartChar: perthousand
Encoding: 8240 8240 120
Width: 2170
Flags: HW
LayerCount: 2
Fore
SplineSet
1812 576 m 0
 1732 576 1692 499 1692 330 c 0
 1692 161 1732 82 1812 82 c 0
 1891 82 1932 161 1932 330 c 0
 1932 499 1891 576 1812 576 c 0
312 -16 m 1
 176 -16 l 1
 1147 1330 l 1
 1279 1330 l 1
 312 -16 l 1
361 1227 m 0
 281 1227 241 1150 241 981 c 0
 241 812 281 733 361 733 c 0
 440 733 481 812 481 981 c 0
 481 1150 440 1227 361 1227 c 0
1812 689 m 0
 2009 689 2111 533 2111 330 c 0
 2111 128 2009 -30 1812 -30 c 0
 1612 -30 1513 128 1513 330 c 0
 1513 533 1612 689 1812 689 c 0
361 1340 m 0
 558 1340 660 1184 660 981 c 0
 660 779 558 621 361 621 c 0
 161 621 62 779 62 981 c 0
 62 1184 161 1340 361 1340 c 0
1087 689 m 0
 1284 689 1386 533 1386 330 c 0
 1386 128 1284 -30 1087 -30 c 0
 887 -30 788 128 788 330 c 0
 788 533 887 689 1087 689 c 0
1087 576 m 0
 1007 576 967 499 967 330 c 0
 967 161 1007 82 1087 82 c 0
 1166 82 1207 161 1207 330 c 0
 1207 499 1166 576 1087 576 c 0
EndSplineSet
EndChar

StartChar: questiondown
Encoding: 191 191 121
Width: 999
Flags: HW
LayerCount: 2
Fore
SplineSet
495 589 m 1
 624 589 l 1
 624 311 l 1
 621 268 597 235 566 203 c 1
 451 139 309 108 309 -66 c 0
 309 -205 420 -284 543 -284 c 0
 695 -284 783 -204 790 -41 c 1
 780 -48 769 -51 757 -51 c 0
 750 -51 731 -52 731 -43 c 0
 731 -33 736 -11 759 21 c 1
 760 47 781 68 819 68 c 0
 904 68 941 -29 941 -111 c 1
 914 -340 702 -440 518 -440 c 0
 277 -440 65 -309 65 -58 c 0
 65 201 348 305 483 432 c 1
 486 447 486 462 487 477 c 2
 495 589 l 1
694 782 m 1
 653 739 579 706 495 706 c 1
 452 747 420 821 420 905 c 1
 461 948 534 981 618 981 c 1
 661 940 694 866 694 782 c 1
EndSplineSet
EndChar

StartChar: grave
Encoding: 96 96 122
Width: 598
Flags: HW
LayerCount: 2
Fore
SplineSet
525 1098 m 1
 400 1098 l 1
 142 1310 l 1
 107 1337 83 1359 71 1404 c 1
 90 1427 131 1446 171 1446 c 0
 244 1446 299 1402 355 1370 c 1
 375 1324 l 1
 525 1098 l 1
EndSplineSet
EndChar

StartChar: acute
Encoding: 180 180 123
Width: 594
Flags: HW
LayerCount: 2
Fore
SplineSet
196 1098 m 1
 71 1098 l 1
 241 1370 l 1
 299 1401 358 1446 433 1446 c 0
 470 1446 509 1427 524 1404 c 1
 508 1355 481 1328 441 1296 c 2
 196 1098 l 1
EndSplineSet
EndChar

StartChar: circumflex
Encoding: 710 710 124
Width: 793
Flags: HW
LayerCount: 2
Fore
SplineSet
279 1435 m 1
 507 1435 l 1
 719 1099 l 1
 591 1099 l 1
 394 1287 l 1
 196 1099 l 1
 71 1099 l 1
 279 1435 l 1
EndSplineSet
EndChar

StartChar: tilde
Encoding: 732 732 125
Width: 865
Flags: HW
LayerCount: 2
Fore
SplineSet
686 1395 m 1
 785 1395 l 1
 772 1250 704 1127 574 1127 c 0
 446 1127 342 1239 252 1239 c 0
 205 1239 184 1190 179 1135 c 1
 80 1135 l 1
 88 1297 173 1398 293 1398 c 0
 400 1398 533 1286 592 1286 c 0
 650 1286 673 1327 686 1395 c 1
EndSplineSet
EndChar

StartChar: macron
Encoding: 175 175 126
Width: 807
Flags: HW
LayerCount: 2
Fore
SplineSet
719 1184 m 1
 88 1184 l 1
 88 1311 l 1
 719 1311 l 1
 719 1184 l 1
EndSplineSet
EndChar

StartChar: breve
Encoding: 728 728 127
Width: 772
Flags: HW
LayerCount: 2
Fore
SplineSet
78 1415 m 1
 194 1415 l 1
 209 1312 278 1253 382 1253 c 0
 491 1253 560 1303 579 1415 c 1
 696 1415 l 1
 683 1227 571 1106 381 1106 c 0
 196 1106 86 1238 78 1415 c 1
EndSplineSet
EndChar

StartChar: dotaccent
Encoding: 729 729 128
Width: 414
Flags: HW
LayerCount: 2
Fore
SplineSet
82 1253 m 0
 82 1320 135 1377 206 1377 c 0
 277 1377 330 1320 330 1253 c 0
 330 1186 277 1129 206 1129 c 0
 135 1129 82 1186 82 1253 c 0
EndSplineSet
EndChar

StartChar: dieresis
Encoding: 168 168 129
Width: 810
Flags: HW
LayerCount: 2
Fore
SplineSet
479 1253 m 0
 479 1320 533 1377 602 1377 c 0
 673 1377 726 1320 726 1253 c 0
 726 1186 673 1129 602 1129 c 0
 533 1129 479 1186 479 1253 c 0
82 1253 m 0
 82 1320 135 1377 206 1377 c 0
 277 1377 330 1320 330 1253 c 0
 330 1186 277 1129 206 1129 c 0
 135 1129 82 1186 82 1253 c 0
EndSplineSet
EndChar

StartChar: ring
Encoding: 730 730 130
Width: 579
Flags: HW
LayerCount: 2
Fore
SplineSet
288 1490 m 0
 405 1490 497 1400 497 1283 c 0
 497 1166 405 1074 288 1074 c 0
 171 1074 80 1166 80 1283 c 0
 80 1400 171 1490 288 1490 c 0
288 1401 m 0
 220 1401 169 1350 169 1283 c 0
 169 1215 220 1163 288 1163 c 0
 356 1163 407 1215 407 1283 c 0
 407 1350 356 1401 288 1401 c 0
EndSplineSet
EndChar

StartChar: cedilla
Encoding: 184 184 131
Width: 543
Flags: HW
LayerCount: 2
Fore
SplineSet
161 -185 m 1
 221 7 l 1
 311 7 l 1
 275 -98 l 1
 284 -97 293 -97 302 -97 c 0
 401 -97 459 -157 459 -252 c 0
 459 -369 324 -424 207 -424 c 0
 165 -424 120 -418 78 -406 c 1
 94 -317 l 1
 124 -324 153 -328 180 -328 c 0
 236 -328 287 -314 287 -255 c 0
 287 -218 261 -198 226 -194 c 0
 218 -194 206 -195 193 -198 c 1
 184 -193 173 -189 161 -185 c 1
EndSplineSet
EndChar

StartChar: hungarumlaut
Encoding: 733 733 132
Width: 900
Flags: HW
LayerCount: 2
Fore
SplineSet
191 1103 m 1
 73 1103 l 1
 198 1361 l 1
 249 1399 297 1446 377 1446 c 0
 420 1446 449 1430 464 1410 c 1
 439 1361 400 1319 354 1272 c 2
 191 1103 l 1
557 1103 m 1
 439 1103 l 1
 564 1361 l 1
 612 1399 659 1446 734 1446 c 0
 779 1446 812 1430 831 1410 c 1
 807 1361 767 1320 720 1272 c 2
 557 1103 l 1
EndSplineSet
EndChar

StartChar: ogonek
Encoding: 731 731 133
Width: 583
Flags: HW
LayerCount: 2
Fore
SplineSet
286 0 m 1
 419 0 l 1
 334 -74 274 -144 274 -222 c 0
 274 -292 317 -312 372 -312 c 0
 417 -312 446 -305 483 -286 c 1
 499 -393 l 1
 435 -424 379 -434 307 -434 c 0
 197 -434 83 -378 83 -256 c 0
 83 -156 202 -78 286 0 c 1
EndSplineSet
EndChar

StartChar: caron
Encoding: 711 711 134
Width: 780
Flags: HW
LayerCount: 2
Fore
SplineSet
507 1099 m 1
 279 1099 l 1
 66 1435 l 1
 194 1435 l 1
 395 1247 l 1
 589 1435 l 1
 714 1435 l 1
 507 1099 l 1
EndSplineSet
EndChar

StartChar: emdash
Encoding: 8212 8212 135
Width: 2237
Flags: HW
LayerCount: 2
Fore
SplineSet
2150 410 m 1
 90 410 l 1
 90 579 l 1
 2150 579 l 1
 2150 410 l 1
EndSplineSet
EndChar

StartChar: AE
Encoding: 198 198 136
Width: 1800
Flags: HW
LayerCount: 2
Fore
SplineSet
888 1562 m 0
 954 1562 1011 1522 1039 1448 c 1
 1046 1456 1121 1562 1250 1562 c 0
 1325 1562 1431 1533 1487 1466 c 1
 1487 1466 1552 1562 1657 1562 c 0
 1732 1562 1736 1516 1736 1516 c 1
 1667 1464 1645 1402 1645 1312 c 0
 1645 1237 1664 1174 1726 1127 c 1
 1726 1127 1721 1088 1656 1088 c 0
 1574 1088 1524 1145 1524 1145 c 1
 1524 1145 1474 1088 1393 1088 c 0
 1327 1088 1322 1127 1322 1127 c 1
 1364 1165 1393 1209 1393 1277 c 0
 1393 1329 1368 1372 1285 1372 c 0
 1245 1372 1177 1368 1177 1294 c 1
 1200 847 l 1
 1355 847 1436 861 1505 905 c 1
 1505 905 1532 902 1532 855 c 0
 1532 791 1492 752 1492 752 c 1
 1492 752 1532 718 1532 661 c 0
 1532 613 1505 610 1505 610 c 1
 1436 653 1355 669 1200 669 c 1
 1176 206 l 1
 1176 120 1240 117 1275 117 c 0
 1363 117 1394 176 1394 237 c 0
 1394 310 1365 354 1323 395 c 1
 1323 395 1328 435 1394 435 c 0
 1475 435 1525 377 1525 377 c 1
 1525 377 1575 435 1657 435 c 0
 1723 435 1727 395 1727 395 c 1
 1665 346 1646 278 1646 199 c 0
 1646 100 1668 28 1737 -30 c 1
 1737 -30 1734 -74 1658 -74 c 0
 1553 -74 1488 21 1488 21 c 1
 1436 -36 1348 -74 1264 -74 c 0
 1195 -74 1130 -49 1090 11 c 1
 1090 11 1026 -74 913 -74 c 0
 811 -74 808 -14 808 -14 c 1
 862 61 896 134 911 256 c 0
 920 327 924 392 924 449 c 0
 924 508 919 560 913 601 c 1
 889 627 831 640 771 640 c 0
 713 640 652 627 623 602 c 1
 588 521 556 402 538 257 c 0
 534 225 532 196 532 169 c 0
 532 95 547 41 572 -14 c 1
 572 -14 553 -74 452 -74 c 0
 338 -74 296 11 296 11 c 1
 296 11 223 -74 135 -74 c 0
 54 -74 47 -33 47 -19 c 2
 47 -14 l 1
 160 80 214 169 264 375 c 0
 289 481 296 552 296 604 c 0
 296 721 255 731 255 753 c 0
 255 801 388 764 486 1148 c 1
 496 1205 509 1256 509 1309 c 0
 509 1375 489 1440 428 1503 c 1
 428 1503 448 1562 548 1562 c 0
 671 1562 714 1456 714 1456 c 1
 757 1531 827 1562 888 1562 c 0
691 857 m 1
 689 854 689 852 689 849 c 0
 689 810 734 790 789 790 c 0
 849 790 908 812 908 858 c 1
 904 917 902 1367 866 1367 c 0
 829 1367 709 915 691 857 c 1
EndSplineSet
EndChar

StartChar: ordfeminine
Encoding: 170 170 137
Width: 817
Flags: HW
LayerCount: 2
Fore
SplineSet
694 903 m 1
 756 872 l 1
 736 774 685 736 595 736 c 0
 533 736 486 788 476 847 c 1
 421 767 347 732 267 732 c 0
 162 732 70 784 70 894 c 0
 70 1051 259 1092 403 1092 c 0
 426 1092 448 1091 468 1089 c 1
 468 1202 433 1259 326 1259 c 0
 242 1259 232 1238 211 1172 c 0
 203 1147 181 1141 152 1141 c 0
 114 1141 86 1166 86 1197 c 0
 86 1308 242 1341 357 1341 c 0
 468 1341 607 1297 607 1116 c 2
 607 880 l 2
 607 842 620 826 635 826 c 0
 658 826 688 859 694 903 c 1
468 932 m 1
 468 1015 l 1
 399 1010 216 1024 216 909 c 0
 216 854 250 822 313 822 c 0
 386 822 443 871 468 932 c 1
152 530 m 5
 152 637 l 5
 607 637 l 5
 607 530 l 5
 152 530 l 5
EndSplineSet
EndChar

StartChar: Lslash
Encoding: 321 321 138
Width: 1135
Flags: HW
LayerCount: 2
Fore
SplineSet
776 195 m 0
 869 195 917 217 964 264 c 1
 964 264 1004 260 1004 194 c 0
 1004 135 952 99 947 96 c 1
 949 94 1004 57 1004 -3 c 0
 1004 -69 964 -74 964 -74 c 1
 895 -30 838 -14 785 -14 c 0
 718 -14 666 -73 609 -73 c 0
 565 -73 519 -37 466 40 c 1
 466 40 408 -74 310 -74 c 0
 209 -74 205 -14 205 -14 c 1
 325 62 325 132 325 375 c 0
 325 726 216 722 216 756 c 0
 216 801 325 770 325 1148 c 0
 325 1332 294 1417 204 1503 c 1
 204 1503 208 1562 309 1562 c 0
 428 1562 475 1457 475 1457 c 1
 475 1457 536 1562 639 1562 c 0
 740 1562 745 1503 745 1503 c 1
 655 1417 624 1332 624 1148 c 0
 624 770 733 801 733 756 c 0
 733 722 624 726 624 375 c 0
 624 213 636 200 636 200 c 1
 636 200 636 195 776 195 c 0
1082 659 m 1
 46 659 l 1
 46 828 l 1
 1082 828 l 1
 1082 659 l 1
EndSplineSet
EndChar

StartChar: Oslash
Encoding: 216 216 139
Width: 1240
Flags: HW
LayerCount: 2
Fore
SplineSet
165 -229 m 1
 983 1750 l 1
 1067 1710 l 1
 249 -269 l 1
 165 -229 l 1
496 421 m 0
 496 206 496 98 626 98 c 0
 757 98 758 218 758 432 c 2
 758 1088 l 2
 758 1290 756 1372 626 1372 c 0
 497 1372 495 1290 495 1088 c 0
 495 494 496 998 496 421 c 0
1091 421 m 0
 1091 37 924 -92 626 -92 c 0
 328 -92 161 37 161 421 c 0
 161 708 37 734 37 748 c 0
 37 773 161 779 161 1077 c 0
 161 1505 328 1586 627 1586 c 0
 924 1586 1091 1505 1091 1077 c 0
 1091 784 1201 772 1201 748 c 0
 1201 746 1198 744 1192 739 c 0
 1159 714 1091 659 1091 421 c 0
EndSplineSet
EndChar

StartChar: OE
Encoding: 338 338 140
Width: 1693
Flags: HW
LayerCount: 2
Fore
SplineSet
1113 669 m 1
 1069 206 l 1
 1069 120 1133 117 1168 117 c 0
 1256 117 1287 176 1287 237 c 0
 1287 310 1258 354 1216 395 c 1
 1216 395 1221 435 1287 435 c 0
 1368 435 1418 377 1418 377 c 1
 1418 377 1468 435 1550 435 c 0
 1616 435 1620 395 1620 395 c 1
 1558 346 1539 278 1539 199 c 0
 1539 100 1561 28 1630 -30 c 1
 1630 -30 1627 -74 1551 -74 c 0
 1446 -74 1381 21 1381 21 c 1
 1325 -46 1220 -74 1144 -74 c 0
 998 -74 913 41 913 40 c 0
 869 -56 726 -92 627 -92 c 0
 329 -92 162 37 162 421 c 0
 162 708 38 734 38 748 c 0
 38 773 162 779 162 1077 c 0
 162 1505 329 1586 628 1586 c 0
 755 1586 851 1547 911 1447 c 1
 911 1444 996 1562 1143 1562 c 0
 1218 1562 1324 1533 1380 1466 c 1
 1380 1466 1445 1562 1550 1562 c 0
 1625 1562 1629 1516 1629 1516 c 1
 1560 1464 1538 1402 1538 1312 c 0
 1538 1237 1557 1174 1619 1127 c 1
 1619 1127 1614 1088 1549 1088 c 0
 1467 1088 1417 1145 1417 1145 c 1
 1417 1145 1367 1088 1286 1088 c 0
 1220 1088 1215 1127 1215 1127 c 1
 1257 1165 1286 1209 1286 1277 c 0
 1286 1329 1261 1372 1178 1372 c 0
 1138 1372 1070 1368 1070 1294 c 1
 1113 847 l 1
 1258 847 1333 861 1398 905 c 1
 1398 905 1425 902 1425 855 c 0
 1425 791 1385 752 1385 752 c 1
 1385 752 1425 718 1425 661 c 0
 1425 613 1398 610 1398 610 c 1
 1333 653 1258 669 1113 669 c 1
497 421 m 0
 497 206 497 98 627 98 c 0
 758 98 759 218 759 432 c 1
 748 725 651 724 651 756 c 0
 651 798 747 774 759 1086 c 1
 759 1088 l 2
 759 1290 757 1372 627 1372 c 0
 498 1372 496 1290 496 1088 c 0
 496 772 580 777 580 748 c 0
 580 730 497 695 497 421 c 0
EndSplineSet
EndChar

StartChar: ordmasculine
Encoding: 186 186 141
Width: 805
Flags: HW
LayerCount: 2
Fore
SplineSet
221 1034 m 0
 221 903 291 824 402 824 c 0
 513 824 583 903 583 1034 c 0
 583 1163 513 1244 402 1244 c 0
 291 1244 221 1163 221 1034 c 0
65 1034 m 0
 65 1220 208 1341 402 1341 c 0
 597 1341 738 1220 738 1034 c 0
 738 850 597 728 402 728 c 0
 208 728 65 850 65 1034 c 0
171 530 m 1
 171 637 l 1
 626 637 l 1
 626 530 l 1
 171 530 l 1
EndSplineSet
EndChar

StartChar: ae
Encoding: 230 230 142
Width: 1568
Flags: HW
LayerCount: 2
Fore
SplineSet
1441 936 m 0
 1441 743 1470 681 1489 656 c 1
 1113 656 l 2
 1067 656 1007 654 955 649 c 1
 952 597 950 513 950 405 c 0
 950 219 951 113 1078 113 c 0
 1192 113 1196 219 1196 273 c 0
 1196 367 1167 409 1092 451 c 1
 1092 451 1114 485 1169 485 c 0
 1252 485 1313 402 1313 402 c 1
 1313 402 1374 485 1456 485 c 0
 1515 485 1530 461 1533 451 c 1
 1456 409 1441 372 1441 285 c 0
 1441 -39 1230 -84 1062 -84 c 0
 941 -84 851 -40 793 48 c 1
 696 -59 598 -84 473 -84 c 0
 331 -84 156 -48 112 199 c 1
 99 278 38 336 38 350 c 0
 38 365 99 416 108 478 c 1
 141 678 271 757 478 757 c 0
 595 757 634 834 634 955 c 0
 634 1142 630 1246 513 1246 c 0
 389 1246 385 1139 385 1085 c 0
 385 991 414 949 489 907 c 1
 489 907 467 873 412 873 c 0
 329 873 268 956 268 956 c 1
 268 956 207 873 125 873 c 0
 66 873 51 897 48 907 c 1
 125 949 140 986 140 1073 c 0
 140 1397 363 1442 539 1442 c 0
 644 1442 730 1405 795 1325 c 1
 863 1405 952 1442 1062 1442 c 0
 1230 1442 1441 1385 1441 936 c 0
634 417 m 0
 634 599 549 619 521 619 c 0
 429 619 395 535 395 336 c 0
 395 266 390 89 510 89 c 0
 633 89 634 209 634 417 c 0
950 955 m 0
 950 898 948 856 944 823 c 1
 990 813 1033 813 1080 813 c 0
 1130 813 1163 820 1186 831 c 1
 1196 861 1196 894 1196 936 c 0
 1196 1025 1202 1246 1078 1246 c 0
 951 1246 950 1142 950 955 c 0
EndSplineSet
EndChar

StartChar: dotlessi
Encoding: 305 305 143
Width: 606
Flags: HW
LayerCount: 2
Fore
SplineSet
165 341 m 0
 165 660 66 656 66 687 c 0
 66 728 165 700 165 1044 c 0
 165 1216 137 1286 55 1366 c 1
 55 1366 59 1420 151 1420 c 0
 245 1420 301 1343 301 1343 c 1
 301 1343 357 1420 451 1420 c 0
 543 1420 547 1366 547 1366 c 1
 465 1286 437 1216 437 1044 c 0
 437 700 536 728 536 687 c 0
 536 656 437 660 437 341 c 0
 437 154 465 73 547 -13 c 1
 547 -13 543 -67 451 -67 c 0
 357 -67 301 10 301 10 c 1
 301 10 245 -67 151 -67 c 0
 60 -67 55 -13 55 -13 c 1
 137 73 165 154 165 341 c 0
EndSplineSet
EndChar

StartChar: lslash
Encoding: 322 322 144
Width: 1115
Flags: HW
LayerCount: 2
Fore
SplineSet
691 177 m 0
 775 177 819 197 862 240 c 1
 862 240 898 236 898 176 c 0
 898 123 851 90 846 87 c 1
 848 85 898 52 898 -3 c 0
 898 -63 862 -67 862 -67 c 1
 799 -27 747 -13 699 -13 c 0
 628 -13 573 -66 512 -66 c 0
 472 -66 430 -45 382 0 c 1
 382 0 322 -67 222 -67 c 0
 130 -67 126 -13 126 -13 c 1
 235 56 235 120 235 341 c 0
 235 660 136 656 136 687 c 0
 136 728 235 700 235 1044 c 0
 235 1211 207 1288 125 1366 c 1
 125 1366 129 1420 221 1420 c 0
 329 1420 372 1343 372 1343 c 1
 372 1343 427 1420 521 1420 c 0
 613 1420 617 1366 617 1366 c 1
 535 1288 507 1211 507 1044 c 0
 507 700 606 728 606 687 c 0
 606 656 507 660 507 341 c 0
 507 194 518 182 518 182 c 1
 518 182 518 177 691 177 c 0
1077 410 m 1
 41 410 l 1
 41 579 l 1
 1077 579 l 1
 1077 410 l 1
EndSplineSet
EndChar

StartChar: oslash
Encoding: 248 248 145
Width: 1151
Flags: HW
LayerCount: 2
Fore
SplineSet
160 -229 m 1
 910 1605 l 1
 994 1565 l 1
 244 -269 l 1
 160 -229 l 1
454 383 m 0
 454 187 454 89 582 89 c 0
 711 89 712 198 712 393 c 2
 712 979 l 2
 712 1170 710 1247 582 1247 c 0
 455 1247 453 1170 453 979 c 0
 453 458 454 898 454 383 c 0
1015 383 m 0
 1015 34 859 -84 582 -84 c 0
 305 -84 149 34 149 383 c 0
 149 644 37 667 37 680 c 0
 37 703 149 708 149 979 c 0
 149 1368 305 1442 583 1442 c 0
 859 1442 1015 1368 1015 979 c 0
 1015 713 1115 702 1115 680 c 0
 1115 678 1112 676 1107 672 c 0
 1077 649 1015 599 1015 383 c 0
EndSplineSet
EndChar

StartChar: oe
Encoding: 339 339 146
Width: 1637
Flags: HW
LayerCount: 2
Fore
SplineSet
1510 936 m 0
 1510 743 1539 681 1558 656 c 1
 1182 656 l 2
 1136 656 1076 654 1024 649 c 1
 1021 597 1019 513 1019 405 c 0
 1019 219 1020 113 1147 113 c 0
 1261 113 1265 219 1265 273 c 0
 1265 367 1236 409 1161 451 c 1
 1161 451 1183 485 1238 485 c 0
 1321 485 1382 402 1382 402 c 1
 1382 402 1443 485 1525 485 c 0
 1584 485 1599 461 1602 451 c 1
 1525 409 1510 372 1510 285 c 0
 1510 -39 1299 -84 1131 -84 c 0
 1021 -84 932 -44 864 43 c 1
 797 -46 703 -84 582 -84 c 0
 305 -84 149 34 149 383 c 0
 149 644 37 667 37 680 c 0
 37 703 149 708 149 979 c 0
 149 1368 305 1442 583 1442 c 0
 709 1442 806 1416 874 1322 c 1
 940 1404 1026 1442 1131 1442 c 0
 1299 1442 1510 1385 1510 936 c 0
454 383 m 0
 454 187 454 89 582 89 c 0
 711 89 712 198 712 393 c 0
 712 601 657 649 632 672 c 0
 627 676 625 678 625 680 c 0
 625 706 712 705 712 979 c 0
 712 1170 710 1247 582 1247 c 0
 455 1247 453 1170 453 979 c 0
 453 705 539 706 539 680 c 0
 539 663 454 630 454 383 c 0
1019 955 m 0
 1019 898 1017 856 1013 823 c 1
 1059 813 1102 813 1149 813 c 0
 1199 813 1232 820 1255 831 c 1
 1265 861 1265 894 1265 936 c 0
 1265 1025 1271 1246 1147 1246 c 0
 1020 1246 1019 1142 1019 955 c 0
EndSplineSet
EndChar

StartChar: germandbls
Encoding: 223 223 147
Width: 1253
Flags: HW
LayerCount: 2
Fore
SplineSet
628 184 m 1
 700 264 l 1
 724 163 752 135 808 135 c 0
 916 135 971 226 971 418 c 0
 971 642 865 725 635 725 c 1
 635 871 l 1
 792 880 879 938 879 1073 c 0
 879 1188 788 1257 680 1257 c 0
 469 1257 446 1095 446 919 c 2
 446 142 l 1
 522 142 l 1
 522 0 l 1
 45 0 l 1
 45 151 l 1
 112 151 l 2
 216 151 229 182 229 253 c 2
 229 921 l 2
 229 964 231 1005 234 1045 c 0
 250 1297 430 1409 680 1409 c 0
 903 1409 1111 1303 1111 1083 c 0
 1111 950 1011 861 891 821 c 1
 891 817 l 1
 1103 774 1210 629 1210 409 c 0
 1210 181 1079 -24 847 -24 c 0
 701 -24 652 42 628 184 c 1
EndSplineSet
EndChar

StartChar: onesuperior
Encoding: 185 185 148
Width: 583
Flags: HMW
HStem: 544 21G<81 81 521 521> 553 87
VStem: 81 317<544 693 640 693>
LayerCount: 2
Fore
SplineSet
398 1389 m 1x60
 398 693 l 2
 398 671 400 656 404 643 c 1
 420 640 436 640 454 640 c 2
 521 640 l 1
 521 544 l 1
 442 551 372 553 306 553 c 0x60
 234 553 161 550 81 544 c 1xa0
 81 640 l 1x60
 163 640 l 2
 175 640 187 640 197 643 c 1
 201 657 204 677 204 708 c 2xa0
 204 1278 l 2
 204 1291 204 1303 203 1315 c 1
 189 1321 175 1324 156 1324 c 0
 150 1324 144 1323 138 1323 c 2
 73 1317 l 1
 68 1381 l 1
 156 1405 250 1429 325 1429 c 0
 384 1429 394 1418 398 1389 c 1x60
EndSplineSet
EndChar

StartChar: logicalnot
Encoding: 172 172 149
Width: 1207
Flags: HW
LayerCount: 2
Fore
SplineSet
946 278 m 1
 946 712 l 1
 82 712 l 1
 82 874 l 1
 1109 874 l 1
 1109 278 l 1
 946 278 l 1
EndSplineSet
EndChar

StartChar: mu
Encoding: 181 181 150
Width: 1242
Flags: HW
LayerCount: 2
Fore
SplineSet
167 -50 m 0
 167 323 168 356 168 356 c 2
 168 653 80 651 80 680 c 0
 80 693 168 714 168 978 c 0
 168 1176 140 1271 52 1365 c 1
 52 1365 69 1420 160 1420 c 0
 256 1420 324 1313 324 1313 c 1
 324 1313 391 1420 488 1420 c 0
 565 1420 574 1374 575 1365 c 1
 489 1272 459 1164 459 968 c 0
 459 714 535 693 535 680 c 0
 535 653 459 654 459 370 c 0
 459 179 496 96 620 96 c 0
 760 96 785 205 785 370 c 0
 785 654 707 653 707 680 c 0
 707 695 783 726 783 978 c 0
 783 1176 755 1271 667 1365 c 1
 667 1365 681 1420 753 1420 c 0
 850 1420 917 1313 917 1313 c 1
 917 1313 985 1420 1082 1420 c 0
 1176 1420 1189 1374 1190 1365 c 1
 1095 1271 1062 1176 1062 978 c 0
 1062 760 1124 710 1154 688 c 0
 1158 684 1162 682 1162 680 c 0
 1162 660 1062 634 1062 381 c 0
 1062 173 1091 85 1182 -14 c 1
 1182 -14 1161 -65 1047 -65 c 0
 963 -65 914 36 914 36 c 1
 824 -18 706 -84 597 -84 c 0
 540 -84 485 -66 439 -17 c 1
 439 -50 l 2
 439 -207 467 -271 549 -344 c 1
 549 -344 545 -398 453 -398 c 0
 359 -398 303 -321 303 -321 c 1
 303 -321 247 -398 153 -398 c 0
 62 -398 57 -344 57 -344 c 1
 139 -271 167 -207 167 -50 c 0
EndSplineSet
EndChar

StartChar: trademark
Encoding: 8482 8482 151
Width: 1770
Flags: HW
LayerCount: 2
Fore
SplineSet
456 1289 m 1
 456 695 l 2
 456 642 455 627 548 611 c 1
 548 552 l 1
 212 552 l 1
 212 611 l 1
 304 627 303 641 303 695 c 2
 303 1289 l 1
 180 1289 l 2
 148 1289 131 1259 120 1224 c 1
 64 1224 l 1
 64 1374 l 1
 686 1374 l 1
 686 1224 l 1
 630 1224 l 1
 619 1259 601 1289 569 1289 c 2
 456 1289 l 1
1154 551 m 1
 943 1193 l 1
 939 1193 l 1
 939 761 l 2
 939 683 948 644 1033 614 c 1
 1033 552 l 1
 754 552 l 1
 754 613 l 1
 838 641 847 682 847 758 c 2
 847 1236 l 2
 847 1297 793 1314 735 1314 c 1
 735 1374 l 1
 1018 1374 l 1
 1225 752 l 1
 1227 752 l 1
 1440 1374 l 1
 1701 1374 l 1
 1701 1314 l 1
 1617 1299 1606 1274 1606 1227 c 2
 1606 737 l 2
 1606 670 1605 642 1698 613 c 1
 1698 552 l 1
 1357 552 l 1
 1357 614 l 1
 1455 643 1448 673 1448 739 c 2
 1448 1195 l 1
 1444 1195 l 1
 1229 551 l 1
 1154 551 l 1
EndSplineSet
EndChar

StartChar: Eth
Encoding: 208 208 152
Width: 1212
Flags: HW
LayerCount: 2
Fore
SplineSet
490 342 m 0
 490 210 493 117 621 117 c 0
 754 117 752 200 752 351 c 0
 752 722 676 719 676 756 c 0
 676 809 752 762 752 1218 c 0
 752 1258 752 1372 630 1372 c 0
 492 1372 490 1285 490 1220 c 0
 490 763 566 807 566 756 c 0
 566 718 490 723 490 342 c 0
180 386 m 0
 180 727 71 723 71 756 c 0
 71 802 180 773 180 1163 c 0
 180 1341 149 1419 59 1503 c 1
 59 1503 63 1562 164 1562 c 0
 275 1562 342 1462 342 1462 c 1
 419 1570 563 1586 678 1586 c 0
 893 1586 1082 1491 1082 1230 c 2
 1082 1126 l 2
 1082 770 1169 799 1169 756 c 0
 1169 723 1082 727 1082 386 c 2
 1082 283 l 2
 1082 61 922 -74 686 -74 c 0
 563 -74 420 -51 342 41 c 1
 342 41 275 -74 164 -74 c 0
 63 -74 59 -14 59 -14 c 1
 149 74 180 197 180 386 c 0
304 478 m 1
 304 478 279 481 279 524 c 2
 279 620 l 2
 279 663 304 666 304 666 c 1
 372 656 493 653 620 653 c 0
 736 653 862 659 914 666 c 1
 914 666 939 663 939 620 c 2
 939 524 l 2
 939 480 914 478 914 478 c 1
 867 484 735 491 617 491 c 0
 488 491 366 488 304 478 c 1
EndSplineSet
EndChar

StartChar: onehalf
Encoding: 189 189 153
Width: 1979
Flags: HMW
HStem: 734 21G<65 65 505 505> 743 87
VStem: 65 317<734 883 830 883>
LayerCount: 2
Fore
SplineSet
382 1579 m 1x60
 382 883 l 2
 382 861 384 846 388 833 c 1
 404 830 420 830 438 830 c 2
 505 830 l 1
 505 734 l 1
 426 741 356 743 290 743 c 0x60
 218 743 145 740 65 734 c 1xa0
 65 830 l 1x60
 147 830 l 2
 159 830 171 830 181 833 c 1
 185 847 188 867 188 898 c 2xa0
 188 1468 l 2
 188 1481 188 1493 187 1505 c 1
 173 1511 159 1514 140 1514 c 0
 134 1514 128 1513 122 1513 c 2
 57 1507 l 1
 52 1571 l 1
 140 1595 234 1619 309 1619 c 0
 368 1619 378 1608 382 1579 c 1x60
399 -35 m 1
 1075 1612 l 1
 1220 1542 l 1
 544 -105 l 1
 399 -35 l 1
1584 802 m 0
 1502 802 1425 735 1401 625 c 1
 1269 719 l 1
 1278 825 1419 891 1583 891 c 0
 1779 891 1890 804 1890 643 c 0
 1890 479 1737 344 1458 124 c 1
 1675 124 l 2
 1747 124 1800 156 1843 253 c 1
 1870 251 1895 246 1918 244 c 1
 1918 164 1915 86 1909 13 c 1
 1862 2 1798 0 1678 0 c 2
 1328 0 l 2
 1278 0 1262 14 1258 54 c 1
 1258 66 1260 81 1263 99 c 1
 1499 321 1644 464 1680 546 c 0
 1695 579 1703 619 1703 658 c 0
 1703 750 1663 802 1584 802 c 0
EndSplineSet
EndChar

StartChar: plusminus
Encoding: 177 177 154
Width: 1173
Flags: HW
LayerCount: 2
Fore
SplineSet
506 799 m 1
 506 1172 l 1
 669 1172 l 1
 669 799 l 1
 1101 799 l 1
 1101 636 l 1
 669 636 l 1
 669 262 l 1
 506 262 l 1
 506 636 l 1
 74 636 l 1
 74 799 l 1
 506 799 l 1
74 -25 m 1
 74 138 l 1
 1101 138 l 1
 1101 -25 l 1
 74 -25 l 1
EndSplineSet
EndChar

StartChar: Thorn
Encoding: 222 222 155
Width: 1118
Flags: HW
LayerCount: 2
Fore
SplineSet
62 756 m 0
 62 796 171 770 171 1097 c 2
 171 1282 l 2
 171 1468 136 1562 51 1652 c 1
 51 1652 56 1712 156 1712 c 0
 260 1712 321 1597 321 1597 c 1
 321 1597 387 1712 497 1712 c 0
 598 1712 603 1652 603 1652 c 1
 533 1575 496 1499 480 1379 c 1
 521 1413 572 1436 635 1436 c 0
 811 1436 964 1350 1007 1189 c 1
 1035 1034 1083 1041 1083 1020 c 0
 1083 1005 1039 1001 1007 818 c 1
 955 545 682 476 481 476 c 1
 481 386 l 2
 481 175 512 82 602 -14 c 1
 602 -14 597 -74 496 -74 c 0
 386 -74 320 41 320 41 c 1
 320 41 259 -74 155 -74 c 0
 55 -74 50 -14 50 -14 c 1
 140 80 171 180 171 386 c 0
 171 727 62 723 62 756 c 0
596 1222 m 0
 543 1222 481 1196 481 1172 c 2
 481 658 l 1
 614 671 697 698 697 821 c 2
 697 1152 l 2
 697 1183 655 1222 596 1222 c 0
EndSplineSet
EndChar

StartChar: onequarter
Encoding: 188 188 156
Width: 1788
Flags: HMW
HStem: 734 21G<65 65 505 505> 743 87
VStem: 65 317<734 883 830 883>
LayerCount: 2
Fore
SplineSet
382 1579 m 1x60
 382 883 l 2
 382 861 384 846 388 833 c 1
 404 830 420 830 438 830 c 2
 505 830 l 1
 505 734 l 1
 426 741 356 743 290 743 c 0x60
 218 743 145 740 65 734 c 1xa0
 65 830 l 1x60
 147 830 l 2
 159 830 171 830 181 833 c 1
 185 847 188 867 188 898 c 2xa0
 188 1468 l 2
 188 1481 188 1493 187 1505 c 1
 173 1511 159 1514 140 1514 c 0
 134 1514 128 1513 122 1513 c 2
 57 1507 l 1
 52 1571 l 1
 140 1595 234 1619 309 1619 c 0
 368 1619 378 1608 382 1579 c 1x60
399 -35 m 1
 1075 1612 l 1
 1220 1542 l 1
 544 -105 l 1
 399 -35 l 1
1380 683 m 1
 1149 348 l 1
 1380 348 l 1
 1380 683 l 1
1625 251 m 2
 1565 251 l 1
 1565 178 l 2
 1565 147 1566 124 1571 108 c 1
 1587 106 1605 105 1625 105 c 2
 1694 105 l 1
 1694 2 l 1
 1609 9 1537 12 1476 12 c 0
 1408 12 1345 9 1250 2 c 1
 1250 105 l 1
 1319 105 l 2
 1339 105 1357 105 1373 108 c 1
 1378 124 1380 147 1380 177 c 2
 1380 251 l 1
 1026 251 l 1
 1007 276 984 308 984 362 c 1
 995 381 1007 399 1021 419 c 0
 1207 687 1310 837 1380 931 c 1
 1466 931 l 2
 1529 931 1565 931 1565 874 c 2
 1565 348 l 1
 1739 348 l 1
 1739 306 l 2
 1739 256 1710 250 1669 250 c 0
 1656 250 1641 251 1625 251 c 2
EndSplineSet
EndChar

StartChar: divide
Encoding: 247 247 157
Width: 1166
Flags: HW
LayerCount: 2
Fore
SplineSet
1095 492 m 1
 680 492 l 1
 695 512 704 537 704 562 c 0
 704 566 704 570 703 573 c 1
 704 577 704 581 704 585 c 0
 704 611 695 635 681 655 c 1
 1095 655 l 1
 1095 492 l 1
460 585 m 0
 460 577 460 570 460 562 c 0
 460 536 469 512 484 492 c 1
 69 492 l 1
 69 655 l 1
 483 655 l 1
 468 635 460 611 460 585 c 0
503 655 m 1
 483 655 l 1
 505 686 542 706 582 706 c 0
 621 706 658 686 681 655 c 1
 660 655 l 1
 684 634 700 605 703 573 c 1
 700 541 683 512 658 492 c 1
 680 492 l 1
 657 461 621 441 583 441 c 0
 543 441 506 462 484 492 c 1
 504 492 l 1
 480 512 463 541 460 573 c 1
 463 606 479 634 503 655 c 1
EndSplineSet
EndChar

StartChar: degree
Encoding: 176 176 159
Width: 738
Flags: HW
LayerCount: 2
Fore
SplineSet
369 1244 m 0
 254 1244 173 1157 173 1043 c 0
 173 929 254 842 369 842 c 0
 482 842 564 929 564 1043 c 0
 564 1157 482 1244 369 1244 c 0
369 742 m 0
 202 742 68 875 68 1042 c 0
 68 1209 202 1342 369 1342 c 0
 534 1342 668 1209 668 1042 c 0
 668 875 534 742 369 742 c 0
EndSplineSet
EndChar

StartChar: thorn
Encoding: 254 254 160
Width: 1192
Flags: HW
LayerCount: 2
Fore
SplineSet
161 979 m 2
 161 1222 l 2
 161 1417 124 1516 35 1611 c 1
 38 1623 54 1666 143 1666 c 0
 240 1666 307 1557 307 1557 c 1
 307 1557 375 1666 472 1666 c 0
 547 1666 566 1611 566 1611 c 1
 501 1541 466 1467 450 1351 c 1
 520 1383 596 1401 668 1401 c 0
 873 1401 1067 1295 1067 984 c 0
 1067 705 1154 707 1154 680 c 0
 1154 651 1067 653 1067 356 c 0
 1067 87 873 -1 668 -1 c 0
 598 -1 518 15 441 50 c 1
 441 -173 474 -281 566 -380 c 1
 566 -380 547 -435 472 -435 c 0
 375 -435 307 -326 307 -326 c 1
 307 -326 240 -435 143 -435 c 0
 54 -435 38 -392 35 -380 c 1
 124 -285 159 -186 161 9 c 1
 161 381 l 2
 161 650 61 657 61 680 c 0
 61 697 161 723 161 979 c 2
527 680 m 0
 527 659 440 660 440 430 c 0
 440 277 454 179 607 179 c 0
 785 179 786 253 786 430 c 0
 786 663 699 660 699 680 c 0
 699 703 786 694 786 952 c 0
 786 1129 785 1207 607 1207 c 0
 454 1207 440 1107 440 952 c 0
 440 696 527 704 527 680 c 0
EndSplineSet
EndChar

StartChar: threequarters
Encoding: 190 190 161
Width: 2245
Flags: HMW
HStem: 720 94<301.5 395 301 448> 1535 95<319.5 397>
VStem: 502 156 502 188<932 1038>
LayerCount: 2
Fore
SplineSet
496 1414 m 0xe0
 496 1494 435 1535 359 1535 c 0
 280 1535 196 1482 174 1380 c 1
 56 1466 l 1
 96 1576 209 1630 354 1630 c 0
 509 1630 658 1559 658 1421 c 0
 658 1315 585 1237 451 1209 c 1
 602 1188 690 1111 690 974 c 0xd0
 690 799 533 720 363 720 c 0
 240 720 126 762 66 818 c 1
 67 864 68 911 78 996 c 1
 174 984 l 1
 186 865 257 814 345 814 c 0
 445 814 502 884 502 980 c 0
 502 1096 423 1148 283 1148 c 2
 224 1148 l 1
 224 1188 l 2
 224 1241 250 1231 282 1237 c 1
 375 1244 496 1308 496 1414 c 0xe0
833 -35 m 1
 1509 1612 l 1
 1654 1542 l 1
 978 -105 l 1
 833 -35 l 1
1837 682 m 1
 1606 347 l 1
 1837 347 l 1
 1837 682 l 1
2082 250 m 2
 2022 250 l 1
 2022 177 l 2
 2022 146 2023 123 2028 107 c 1
 2044 105 2062 104 2082 104 c 2
 2151 104 l 1
 2151 1 l 1
 2066 8 1994 11 1933 11 c 0
 1865 11 1802 8 1707 1 c 1
 1707 104 l 1
 1776 104 l 2
 1796 104 1814 104 1830 107 c 1
 1835 123 1837 146 1837 176 c 2
 1837 250 l 1
 1483 250 l 1
 1464 275 1441 307 1441 361 c 1
 1452 380 1464 398 1478 418 c 0
 1664 686 1767 836 1837 930 c 1
 1923 930 l 2
 1986 930 2022 930 2022 873 c 2
 2022 347 l 1
 2196 347 l 1
 2196 305 l 2
 2196 255 2167 249 2126 249 c 0
 2113 249 2098 250 2082 250 c 2
EndSplineSet
EndChar

StartChar: twosuperior
Encoding: 178 178 162
Width: 808
Flags: HMW
HStem: 549 124 1351 89
VStem: 515 187<1183.5 1249>
LayerCount: 2
Fore
SplineSet
396 1347 m 0
 314 1347 237 1280 213 1170 c 1
 81 1264 l 1
 90 1370 231 1436 395 1436 c 0
 591 1436 702 1349 702 1188 c 0
 702 1024 549 889 270 669 c 1
 487 669 l 2
 559 669 612 701 655 798 c 1
 682 796 707 791 730 789 c 1
 730 709 727 631 721 558 c 1
 674 547 610 545 490 545 c 2
 140 545 l 2
 90 545 74 559 70 599 c 1
 70 611 72 626 75 644 c 1
 311 866 456 1009 492 1091 c 0
 507 1124 515 1164 515 1203 c 0
 515 1295 475 1347 396 1347 c 0
EndSplineSet
EndChar

StartChar: registered
Encoding: 174 174 163
Width: 1614
Flags: HW
LayerCount: 2
Fore
SplineSet
806 -30 m 0
 392 -30 67 295 67 707 c 0
 67 1118 392 1445 806 1445 c 0
 1222 1445 1546 1118 1546 707 c 0
 1546 296 1222 -30 806 -30 c 0
806 84 m 0
 1144 84 1410 366 1410 707 c 0
 1410 1048 1145 1330 806 1330 c 0
 469 1330 203 1048 203 707 c 0
 203 366 469 84 806 84 c 0
467 1085 m 1
 503 1103 l 1
 846 1103 l 2
 1009 1103 1102 1016 1102 896 c 0
 1102 785 1020 696 903 677 c 1
 903 675 l 1
 999 595 1086 448 1163 352 c 1
 1180 313 l 1
 1016 313 l 1
 899 459 860 572 742 655 c 1
 665 655 l 1
 665 445 l 2
 665 396 664 380 713 366 c 1
 713 313 l 1
 467 313 l 1
 467 365 l 1
 516 381 515 393 515 444 c 2
 515 973 l 2
 515 1034 516 1058 467 1085 c 1
665 1025 m 1
 665 733 l 1
 794 733 l 2
 896 733 944 798 944 885 c 0
 944 994 884 1025 777 1025 c 2
 665 1025 l 1
EndSplineSet
EndChar

StartChar: eth
Encoding: 240 240 164
Width: 1146
Flags: HW
LayerCount: 2
Fore
SplineSet
646 449 m 0
 646 465 723 469 723 656 c 0
 723 761 711 830 568 830 c 0
 398 830 397 777 397 656 c 0
 397 469 495 465 495 449 c 0
 495 432 407 436 407 240 c 0
 407 119 408 62 568 62 c 0
 720 62 733 133 733 240 c 0
 733 436 646 433 646 449 c 0
565 -132 m 0
 339 -132 126 -37 126 225 c 0
 126 432 39 430 39 449 c 0
 39 467 116 473 116 680 c 0
 116 927 329 1010 555 1010 c 0
 608 1010 661 995 722 974 c 1
 722 1160 723 1274 439 1274 c 0
 337 1274 280 1248 228 1195 c 1
 221 1197 198 1208 198 1265 c 0
 198 1332 270 1377 270 1377 c 1
 270 1377 198 1425 198 1490 c 0
 198 1545 229 1562 229 1562 c 1
 305 1511 369 1493 429 1493 c 0
 476 1493 515 1497 560 1497 c 0
 694 1497 1002 1435 1002 1140 c 2
 1002 748 l 2
 1002 489 1111 469 1111 449 c 0
 1111 430 1024 432 1024 225 c 0
 1024 -37 791 -132 565 -132 c 0
EndSplineSet
EndChar

StartChar: threesuperior
Encoding: 179 179 166
Width: 781
Flags: HMW
HStem: 531 94<317.5 411 317 464> 1346 95<335.5 413>
VStem: 518 156 518 188<743 849>
LayerCount: 2
Fore
SplineSet
512 1225 m 0xe0
 512 1305 451 1346 375 1346 c 0
 296 1346 212 1293 190 1191 c 1
 72 1277 l 1
 112 1387 225 1441 370 1441 c 0
 525 1441 674 1370 674 1232 c 0
 674 1126 601 1048 467 1020 c 1
 618 999 706 922 706 785 c 0xd0
 706 610 549 531 379 531 c 0
 256 531 142 573 82 629 c 1
 83 675 84 722 94 807 c 1
 190 795 l 1
 202 676 273 625 361 625 c 0
 461 625 518 695 518 791 c 0
 518 907 439 959 299 959 c 2
 240 959 l 1
 240 999 l 2
 240 1052 266 1042 298 1048 c 1
 391 1055 512 1119 512 1225 c 0xe0
EndSplineSet
EndChar

StartChar: copyright
Encoding: 169 169 167
Width: 1614
Flags: HW
LayerCount: 2
Fore
SplineSet
806 -30 m 0
 392 -30 67 295 67 707 c 0
 67 1118 392 1445 806 1445 c 0
 1222 1445 1546 1118 1546 707 c 0
 1546 296 1222 -30 806 -30 c 0
806 84 m 0
 1144 84 1410 366 1410 707 c 0
 1410 1048 1145 1330 806 1330 c 0
 469 1330 203 1048 203 707 c 0
 203 366 469 84 806 84 c 0
1086 565 m 1
 1168 547 l 1
 1154 488 1133 435 1105 387 c 1
 1071 342 978 294 828 294 c 0
 575 294 404 445 404 716 c 0
 404 934 541 1129 840 1129 c 0
 989 1129 1094 1081 1125 1013 c 1
 1133 976 1139 938 1143 899 c 1
 1063 884 l 1
 1034 975 964 1052 837 1052 c 0
 672 1052 579 917 579 720 c 0
 579 517 658 378 835 378 c 0
 959 378 1046 454 1086 565 c 1
EndSplineSet
EndChar

StartChar: foursuperior
Encoding: 8308 8308 226
Width: 883
Flags: HW
LayerCount: 2
Fore
SplineSet
460 1162 m 1
 229 827 l 1
 460 827 l 1
 460 1162 l 1
705 730 m 2
 645 730 l 1
 645 657 l 2
 645 626 646 603 651 587 c 1
 667 585 685 584 705 584 c 2
 774 584 l 1
 774 481 l 1
 689 488 617 491 556 491 c 0
 488 491 425 488 330 481 c 1
 330 584 l 1
 399 584 l 2
 419 584 437 584 453 587 c 1
 458 603 460 626 460 656 c 2
 460 730 l 1
 106 730 l 1
 87 755 64 787 64 841 c 1
 75 860 87 878 101 898 c 0
 287 1166 390 1316 460 1410 c 1
 546 1410 l 2
 609 1410 645 1410 645 1353 c 2
 645 827 l 1
 819 827 l 1
 819 785 l 2
 819 735 790 729 749 729 c 0
 736 729 721 730 705 730 c 2
EndSplineSet
EndChar

StartChar: Dcroat
Encoding: 272 272 244
Width: 1212
Flags: HW
LayerCount: 2
Fore
SplineSet
490 342 m 0
 490 210 493 117 621 117 c 0
 754 117 752 200 752 351 c 0
 752 722 676 719 676 756 c 0
 676 809 752 762 752 1218 c 0
 752 1258 752 1372 630 1372 c 0
 492 1372 490 1285 490 1220 c 0
 490 763 566 807 566 756 c 0
 566 718 490 723 490 342 c 0
180 386 m 0
 180 727 71 723 71 756 c 0
 71 802 180 773 180 1163 c 0
 180 1341 149 1419 59 1503 c 1
 59 1503 63 1562 164 1562 c 0
 287 1562 362 1502 362 1502 c 1
 434 1575 570 1586 678 1586 c 0
 893 1586 1082 1491 1082 1230 c 2
 1082 1126 l 2
 1082 770 1169 799 1169 756 c 0
 1169 723 1082 727 1082 386 c 2
 1082 283 l 2
 1082 61 922 -74 686 -74 c 0
 570 -74 435 -57 362 11 c 1
 362 11 287 -74 164 -74 c 0
 63 -74 59 -14 59 -14 c 1
 149 74 180 197 180 386 c 0
925 1396 m 1
 294 1396 l 1
 294 1523 l 1
 925 1523 l 1
 925 1396 l 1
EndSplineSet
EndChar

StartChar: dcroat
Encoding: 273 273 245
Width: 1095
Flags: HW
LayerCount: 2
Fore
SplineSet
437 311 m 0
 437 191 437 106 573 106 c 0
 674 106 675 182 675 319 c 0
 675 656 606 654 606 687 c 0
 606 736 675 698 675 1122 c 0
 675 1159 675 1262 584 1262 c 0
 439 1262 437 1183 437 1124 c 0
 437 699 506 735 506 687 c 0
 506 653 437 657 437 311 c 0
165 351 m 0
 165 661 66 657 66 687 c 0
 66 729 165 703 165 1057 c 0
 165 1219 137 1291 55 1367 c 1
 55 1367 59 1420 151 1420 c 0
 257 1420 321 1365 321 1365 c 1
 386 1432 510 1442 608 1442 c 0
 803 1442 975 1355 975 1118 c 2
 975 1024 l 2
 975 700 1054 726 1054 687 c 0
 1054 657 975 661 975 351 c 2
 975 257 l 2
 975 55 830 -67 615 -67 c 0
 510 -67 387 -52 321 10 c 1
 321 10 257 -67 151 -67 c 0
 59 -67 55 -13 55 -13 c 1
 137 67 165 179 165 351 c 0
270 548 m 1
 270 548 245 551 245 594 c 2
 245 690 l 2
 245 733 270 736 270 736 c 1
 338 726 459 723 586 723 c 0
 702 723 828 729 880 736 c 1
 880 736 905 733 905 690 c 2
 905 594 l 2
 905 550 880 548 880 548 c 1
 833 554 701 561 583 561 c 0
 454 561 332 558 270 548 c 1
EndSplineSet
EndChar

StartChar: uni03A9
Encoding: 937 937 280
Width: 1490
Flags: HW
LayerCount: 2
Fore
SplineSet
1429 233 m 1
 1398 0 l 1
 868 0 l 1
 858 76 l 1
 973 188 1130 406 1130 705 c 0
 1130 1012 984 1227 748 1227 c 0
 513 1227 364 1034 364 702 c 0
 364 423 509 197 632 77 c 1
 625 0 l 1
 92 0 l 1
 66 233 l 1
 245 233 l 1
 269 178 283 165 332 166 c 2
 434 168 l 1
 290 275 119 452 119 725 c 0
 119 1089 385 1338 752 1338 c 0
 1129 1338 1373 1075 1373 736 c 0
 1373 477 1203 285 1051 168 c 1
 1163 166 l 2
 1210 165 1222 175 1246 233 c 1
 1429 233 l 1
EndSplineSet
EndChar

StartChar: pi
Encoding: 960 960 281
Width: 1214
Flags: HW
LayerCount: 2
Fore
SplineSet
1149 976 m 1
 1171 891 l 1
 1152 850 1119 789 1089 773 c 1
 1060 769 1020 767 979 767 c 1
 975 656 974 549 974 434 c 0
 974 302 981 238 1020 210 c 1
 1040 210 1051 217 1067 228 c 1
 1072 139 1083 90 1095 53 c 1
 1039 14 957 -12 880 -12 c 1
 808 7 753 77 753 253 c 0
 753 437 758 608 763 769 c 1
 638 772 546 771 454 771 c 1
 449 429 366 117 315 5 c 1
 259 -4 207 -9 159 -12 c 1
 161 45 l 1
 265 248 313 574 318 773 c 1
 197 773 138 757 73 722 c 1
 43 810 l 1
 107 876 185 944 377 944 c 0
 564 944 789 941 994 941 c 0
 1054 941 1102 947 1149 976 c 1
EndSplineSet
EndChar

StartChar: Euro
Encoding: 8364 8364 282
Width: 1229
Flags: HW
LayerCount: 2
Fore
SplineSet
1132 354 m 1
 1162 165 l 1
 1118 57 1021 -12 881 -12 c 1
 876 5 871 21 867 37 c 1
 824 -15 765 -27 712 -27 c 0
 428 -27 254 153 206 470 c 1
 62 470 l 1
 84 607 l 1
 193 607 l 1
 193 662 l 2
 193 687 193 707 194 723 c 1
 62 723 l 1
 84 860 l 1
 207 860 l 1
 255 1159 432 1341 714 1341 c 0
 818 1341 908 1313 973 1229 c 1
 987 1327 l 1
 1143 1327 l 1
 1143 938 l 1
 984 938 l 1
 961 1095 875 1182 738 1182 c 0
 571 1182 491 1061 462 860 c 1
 896 860 l 1
 874 723 l 1
 452 723 l 1
 451 702 451 681 451 660 c 2
 451 607 l 1
 857 607 l 1
 835 470 l 1
 463 470 l 1
 492 267 581 134 748 134 c 0
 882 134 976 239 1003 381 c 1
 1132 354 l 1
EndSplineSet
EndChar

StartChar: partialdiff
Encoding: 8706 8706 283
Width: 1089
Flags: HW
LayerCount: 2
Fore
SplineSet
509 877 m 0
 651 877 763 792 806 725 c 1
 814 756 817 841 817 879 c 0
 817 1119 716 1343 503 1343 c 0
 376 1343 275 1281 211 1231 c 1
 184 1253 144 1314 133 1368 c 1
 165 1421 304 1477 466 1477 c 0
 815 1477 1018 1141 1018 761 c 0
 1018 363 848 -22 463 -22 c 0
 204 -22 61 176 61 404 c 0
 61 705 277 877 509 877 c 0
563 758 m 0
 490 758 418 727 363 651 c 0
 310 577 281 479 281 377 c 0
 281 213 343 90 475 90 c 0
 659 90 753 352 789 596 c 1
 760 662 679 758 563 758 c 0
EndSplineSet
EndChar

StartChar: Delta
Encoding: 8710 8710 284
Width: 1327
Flags: HW
LayerCount: 2
Fore
SplineSet
1272 0 m 1
 56 0 l 1
 56 91 l 1
 579 1330 l 1
 746 1344 l 1
 1272 92 l 1
 1272 0 l 1
1012 131 m 1
 745 775 l 1
 716 852 673 961 649 1030 c 1
 613 1102 l 1
 582 1016 532 891 491 791 c 0
 399 570 310 352 219 131 c 1
 1012 131 l 1
EndSplineSet
EndChar

StartChar: product
Encoding: 8719 8719 285
Width: 1469
Flags: HW
LayerCount: 2
Fore
SplineSet
1414 1333 m 1
 1414 1221 l 1
 1319 1216 1261 1211 1217 1188 c 1
 1213 1157 1212 1122 1212 1079 c 2
 1212 130 l 2
 1212 18 1219 -33 1307 -76 c 1
 1307 -169 l 1
 906 -169 l 1
 906 -76 l 1
 985 -34 989 14 989 130 c 2
 989 1118 l 2
 989 1195 996 1210 900 1210 c 2
 568 1210 l 2
 489 1210 480 1200 480 1159 c 0
 480 1149 481 1136 481 1121 c 2
 481 130 l 2
 481 15 483 -34 557 -76 c 1
 557 -169 l 1
 164 -169 l 1
 164 -76 l 1
 247 -30 257 17 257 130 c 2
 257 1079 l 2
 257 1122 256 1157 252 1188 c 1
 207 1211 149 1216 54 1221 c 1
 54 1333 l 1
 1414 1333 l 1
EndSplineSet
EndChar

StartChar: summation
Encoding: 8721 8721 286
Width: 1178
Flags: HW
LayerCount: 2
Fore
SplineSet
1122 120 m 1
 1071 -176 l 1
 54 -176 l 1
 54 -83 l 1
 540 547 l 1
 74 1237 l 1
 74 1333 l 1
 1053 1333 l 1
 1053 1291 1062 1177 1067 1082 c 1
 972 1073 l 1
 940 1118 905 1158 869 1181 c 1
 771 1207 679 1218 522 1218 c 1
 357 1215 l 1
 754 636 l 1
 321 74 l 1
 276 11 l 1
 736 11 l 2
 871 11 924 13 1020 130 c 1
 1122 120 l 1
EndSplineSet
EndChar

StartChar: radical
Encoding: 8730 8730 287
Width: 1177
Flags: HW
LayerCount: 2
Fore
SplineSet
1132 1625 m 1
 733 -280 l 1
 626 -295 l 1
 244 652 l 1
 81 581 l 1
 50 674 l 1
 385 819 l 1
 625 189 l 1
 644 132 665 74 682 23 c 1
 685 23 l 1
 696 79 707 141 719 205 c 1
 1017 1635 l 1
 1132 1625 l 1
EndSplineSet
EndChar

StartChar: infinity
Encoding: 8734 8734 288
Width: 1488
Flags: HW
LayerCount: 2
Fore
SplineSet
1413 547 m 2
 1413 544 l 2
 1413 339 1262 215 1102 215 c 0
 987 215 881 273 747 439 c 1
 645 318 542 215 382 215 c 0
 220 215 77 347 77 536 c 0
 77 728 215 862 400 862 c 0
 547 862 655 768 757 642 c 1
 842 738 939 862 1108 862 c 0
 1282 862 1413 741 1413 547 c 2
398 340 m 2
 402 340 l 2
 515 340 603 448 678 531 c 1
 596 637 520 741 390 741 c 0
 279 741 207 652 207 535 c 0
 207 428 286 340 398 340 c 2
1100 741 m 2
 1098 741 l 2
 977 741 884 613 821 542 c 1
 942 397 1010 340 1106 340 c 0
 1220 340 1284 443 1284 535 c 0
 1284 660 1208 741 1100 741 c 2
EndSplineSet
EndChar

StartChar: integral
Encoding: 8747 8747 289
Width: 801
Flags: HW
LayerCount: 2
Fore
SplineSet
330 83 m 1
 321 387 294 705 294 1001 c 0
 294 1480 450 1614 626 1614 c 0
 682 1614 746 1587 757 1547 c 1
 753 1487 721 1448 689 1428 c 1
 643 1433 627 1502 593 1502 c 0
 527 1502 483 1426 483 1161 c 1
 490 945 500 727 511 503 c 0
 514 438 516 375 516 311 c 0
 516 -225 371 -360 189 -360 c 0
 121 -360 56 -326 45 -286 c 1
 48 -232 90 -183 126 -163 c 1
 167 -168 182 -244 222 -244 c 0
 281 -244 330 -155 330 83 c 1
EndSplineSet
EndChar

StartChar: approxequal
Encoding: 8776 8776 290
Width: 1119
Flags: HW
LayerCount: 2
Fore
SplineSet
371 855 m 0
 537 855 630 713 769 713 c 0
 848 713 902 763 959 854 c 1
 1044 772 l 1
 976 656 883 580 771 580 c 0
 686 580 630 609 539 660 c 0
 482 692 427 724 360 724 c 0
 270 724 213 658 159 582 c 1
 73 663 l 1
 136 774 248 855 371 855 c 0
959 498 m 1
 1044 417 l 1
 978 303 885 225 770 225 c 0
 635 225 496 369 361 369 c 0
 269 369 213 303 159 228 c 1
 73 309 l 1
 136 417 250 499 371 499 c 0
 563 499 628 357 768 357 c 0
 848 357 899 406 959 498 c 1
EndSplineSet
EndChar

StartChar: notequal
Encoding: 8800 8800 291
Width: 1083
Flags: HW
LayerCount: 2
Fore
SplineSet
799 974 m 1
 718 798 l 1
 1007 798 l 1
 1007 668 l 1
 663 668 l 1
 542 402 l 1
 1007 402 l 1
 1007 271 l 1
 486 271 l 1
 381 42 l 1
 275 91 l 1
 358 271 l 1
 77 271 l 1
 77 402 l 1
 414 402 l 1
 535 668 l 1
 77 668 l 1
 77 798 l 1
 590 798 l 1
 693 1023 l 1
 799 974 l 1
EndSplineSet
EndChar

StartChar: lessequal
Encoding: 8804 8804 292
Width: 1074
Flags: HW
LayerCount: 2
Fore
SplineSet
996 201 m 1
 77 632 l 1
 77 773 l 1
 995 1203 l 1
 995 1052 l 1
 218 705 l 1
 218 701 l 1
 996 352 l 1
 996 201 l 1
1000 -6 m 1
 69 -6 l 1
 69 129 l 1
 1000 129 l 1
 1000 -6 l 1
EndSplineSet
EndChar

StartChar: greaterequal
Encoding: 8805 8805 293
Width: 1071
Flags: HW
LayerCount: 2
Fore
SplineSet
82 1203 m 1
 1001 772 l 1
 1001 632 l 1
 83 201 l 1
 83 352 l 1
 858 700 l 1
 858 705 l 1
 82 1052 l 1
 82 1203 l 1
999 -6 m 1
 75 -6 l 1
 75 129 l 1
 999 129 l 1
 999 -6 l 1
EndSplineSet
EndChar

StartChar: lozenge
Encoding: 9674 9674 294
Width: 1093
Flags: HW
LayerCount: 2
Fore
SplineSet
1041 648 m 1
 626 -118 l 1
 462 -118 l 1
 52 648 l 1
 467 1416 l 1
 629 1416 l 1
 1041 648 l 1
871 646 m 1
 597 1164 l 1
 578 1196 564 1236 549 1267 c 1
 543 1267 l 1
 452 1065 328 852 222 650 c 1
 498 128 l 2
 517 92 532 54 543 25 c 1
 550 25 l 1
 562 56 579 98 595 127 c 2
 871 646 l 1
EndSplineSet
EndChar

StartChar: uni2620
Encoding: 9760 9760 295
Width: 1048
Flags: HW
LayerCount: 2
Fore
SplineSet
264 169 m 1
 264 193 271 214 271 237 c 0
 271 277 258 316 258 356 c 1
 319 356 282 215 326 215 c 1
 326 258 l 1
 336 258 352 253 354 249 c 1
 354 200 l 1
 369 200 l 1
 369 209 374 237 391 237 c 2
 394 237 l 1
 424 206 l 1
 431 212 440 212 449 212 c 0
 477 212 464 178 488 178 c 0
 510 178 492 206 513 206 c 0
 534 206 543 176 559 176 c 0
 574 176 578 206 589 206 c 2
 633 206 l 1
 639 215 642 218 651 218 c 0
 670 218 660 187 679 187 c 0
 682 187 688 187 688 194 c 2
 688 237 l 2
 688 251 719 242 725 255 c 0
 731 267 749 347 778 347 c 0
 787 347 787 338 787 332 c 0
 787 288 774 246 774 203 c 0
 774 187 780 172 780 156 c 0
 780 77 581 3 522 3 c 0
 421 3 319 89 264 169 c 1
479 273 m 0
 465 273 467 266 442 266 c 0
 435 266 427 267 427 273 c 2
 427 341 l 1
 409 341 418 292 387 292 c 0
 365 292 363 323 350 323 c 1
 339 316 l 1
 300 324 321 421 251 421 c 0
 248 421 216 409 203 409 c 0
 177 409 154 436 154 464 c 0
 154 485 159 510 159 532 c 0
 159 651 62 756 62 884 c 0
 62 981 69 1077 159 1145 c 0
 270 1229 386 1274 528 1274 c 0
 811 1274 982 1099 982 820 c 2
 982 758 l 1
 971 706 916 654 916 598 c 2
 916 544 l 2
 916 516 921 502 921 473 c 0
 921 343 682 418 664 261 c 1
 660 261 l 2
 635 261 639 293 616 293 c 0
 614 293 611 292 609 292 c 1
 609 258 611 242 581 242 c 0
 553 242 567 261 550 261 c 0
 534 261 541 242 522 242 c 0
 497 242 501 273 479 273 c 0
461 488 m 0
 461 470 486 464 501 464 c 0
 531 464 533 485 533 506 c 0
 533 513 532 519 531 525 c 1
 548 525 l 1
 548 487 574 461 592 461 c 0
 607 461 620 471 620 496 c 0
 620 546 578 635 534 635 c 0
 501 635 461 519 461 488 c 0
240 598 m 1
 249 599 256 599 264 599 c 0
 305 599 327 587 372 587 c 0
 412 587 473 635 473 681 c 0
 473 764 369 771 308 771 c 0
 280 771 216 764 216 725 c 0
 216 685 231 648 234 604 c 1
 240 598 l 1
814 588 m 1
 820 594 l 1
 827 630 858 661 858 695 c 0
 858 762 794 771 766 771 c 0
 709 771 611 764 611 681 c 0
 611 630 672 577 712 577 c 0
 745 577 761 591 790 591 c 0
 797 591 805 590 814 588 c 1
EndSplineSet
EndChar

StartChar: f_i
Encoding: 64257 64257 297
Width: 1174
Flags: HW
LayerCount: 2
Fore
SplineSet
784 799 m 1
 393 799 l 1
 393 168 l 1
 546 168 l 1
 546 0 l 1
 46 0 l 1
 46 168 l 1
 200 168 l 1
 200 799 l 1
 46 799 l 1
 46 967 l 1
 200 967 l 1
 200 1141 l 2
 200 1333 321 1419 458 1419 c 0
 595 1419 685 1340 708 1196 c 1
 540 1169 l 1
 534 1232 509 1264 466 1264 c 0
 419 1264 393 1226 393 1159 c 2
 393 967 l 1
 976 967 l 1
 976 168 l 1
 1130 168 l 1
 1130 0 l 1
 630 0 l 1
 630 168 l 1
 784 168 l 1
 784 799 l 1
882 1411 m 0
 946 1411 997 1360 997 1296 c 0
 997 1233 946 1182 882 1182 c 0
 819 1182 767 1233 767 1296 c 0
 767 1360 819 1411 882 1411 c 0
EndSplineSet
EndChar

StartChar: f_l
Encoding: 64258 64258 298
Width: 1173
Flags: HW
LayerCount: 2
Fore
SplineSet
393 967 m 1
 556 967 l 1
 556 799 l 1
 393 799 l 1
 393 168 l 1
 546 168 l 1
 546 0 l 1
 46 0 l 1
 46 168 l 1
 200 168 l 1
 200 799 l 1
 46 799 l 1
 46 967 l 1
 200 967 l 1
 200 1141 l 2
 200 1333 323 1419 458 1419 c 0
 511 1419 558 1406 579 1391 c 1
 976 1391 l 1
 976 168 l 1
 1130 168 l 1
 1130 0 l 1
 630 0 l 1
 630 168 l 1
 784 168 l 1
 784 1223 l 1
 542 1200 l 1
 530 1243 509 1264 466 1264 c 0
 419 1264 393 1226 393 1159 c 2
 393 967 l 1
EndSplineSet
EndChar

StartChar: hbar
Encoding: 295 295 303
Width: 1249
Flags: HW
LayerCount: 2
Fore
SplineSet
1162 611 m 0
 1162 598 1071 569 1071 344 c 0
 1071 159 1102 77 1196 -12 c 1
 1196 -12 1174 -66 1088 -66 c 0
 979 -66 904 41 904 41 c 1
 904 41 836 -66 739 -66 c 0
 661 -66 648 -24 645 -12 c 1
 735 78 770 168 770 354 c 0
 770 573 672 599 672 611 c 0
 672 634 759 632 759 879 c 0
 759 1065 728 1147 645 1147 c 0
 480 1147 480 908 480 856 c 0
 480 632 566 633 566 611 c 0
 566 597 481 567 481 344 c 0
 481 159 513 77 606 -12 c 1
 606 -12 587 -66 510 -66 c 0
 402 -66 322 41 322 41 c 1
 322 41 253 -66 158 -66 c 0
 69 -66 53 -24 50 -12 c 1
 142 77 176 160 176 344 c 0
 176 545 76 601 76 611 c 0
 76 624 176 635 176 879 c 2
 176 1133 l 2
 176 1358 145 1457 55 1559 c 1
 55 1559 59 1618 160 1618 c 0
 270 1618 335 1513 335 1513 c 1
 335 1513 385 1618 470 1618 c 0
 560 1618 566 1559 566 1559 c 1
 521 1454 496 1352 484 1195 c 1
 563 1270 666 1310 764 1310 c 0
 921 1310 1062 1189 1062 919 c 0
 1062 671 1162 631 1162 611 c 0
920 959 m 1
 289 959 l 1
 289 1086 l 1
 920 1086 l 1
 920 959 l 1
EndSplineSet
EndChar

StartChar: ij
Encoding: 307 307 305
Width: 1481
Flags: HW
LayerCount: 2
Fore
SplineSet
168 315 m 0
 168 589 69 585 69 611 c 0
 69 650 168 610 168 934 c 0
 168 1106 140 1175 58 1256 c 1
 58 1256 62 1310 154 1310 c 0
 248 1310 304 1233 304 1233 c 1
 304 1233 360 1310 454 1310 c 0
 546 1310 550 1256 550 1256 c 1
 468 1176 440 1106 440 934 c 0
 440 610 539 650 539 611 c 0
 539 585 440 589 440 315 c 0
 440 148 468 65 550 -13 c 1
 550 -13 546 -67 454 -67 c 0
 360 -67 304 10 304 10 c 1
 304 10 248 -67 154 -67 c 0
 63 -67 58 -13 58 -13 c 1
 140 65 168 148 168 315 c 0
203 1644 m 1
 203 1644 265 1754 301 1754 c 0
 327 1754 378 1653 378 1653 c 1
 378 1653 512 1600 512 1570 c 0
 512 1543 386 1490 386 1490 c 1
 386 1490 331 1380 301 1380 c 0
 273 1380 221 1482 221 1482 c 1
 221 1482 89 1533 89 1563 c 0
 89 1590 203 1644 203 1644 c 1
958 -289 m 0
 829 -289 664 -219 664 -26 c 0
 664 101 778 131 778 248 c 0
 778 260 777 273 774 288 c 1
 782 288 l 2
 858 288 887 179 887 136 c 1
 877 99 877 73 877 71 c 1
 877 71 885 72 898 72 c 0
 922 72 964 69 1000 54 c 0
 1057 31 1068 -6 1068 -29 c 0
 1068 -50 1061 -56 1061 -56 c 1
 1036 -48 1009 -42 983 -42 c 0
 952 -42 890 -59 890 -117 c 0
 890 -168 934 -201 992 -201 c 0
 1041 -201 1132 -164 1132 -58 c 0
 1132 92 1018 150 1018 245 c 0
 1018 594 910 580 910 613 c 0
 910 650 1018 629 1018 927 c 0
 1018 1085 987 1176 897 1252 c 1
 897 1252 903 1311 1002 1311 c 0
 1104 1311 1165 1226 1165 1226 c 1
 1165 1226 1224 1311 1332 1311 c 0
 1433 1311 1438 1252 1438 1252 c 1
 1346 1176 1317 1085 1317 927 c 0
 1317 629 1424 647 1424 610 c 0
 1424 577 1317 585 1317 244 c 0
 1317 -135 1214 -289 958 -289 c 0
1065 1644 m 1
 1065 1644 1127 1754 1163 1754 c 0
 1189 1754 1240 1653 1240 1653 c 1
 1240 1653 1374 1600 1374 1570 c 0
 1374 1543 1248 1490 1248 1490 c 1
 1248 1490 1193 1380 1163 1380 c 0
 1135 1380 1083 1482 1083 1482 c 1
 1083 1482 951 1533 951 1563 c 0
 951 1590 1065 1644 1065 1644 c 1
EndSplineSet
EndChar

StartChar: kgreenlandic
Encoding: 312 312 308
Width: 1311
Flags: HW
LayerCount: 2
Fore
SplineSet
682 527 m 1
 648 541 618 541 528 541 c 0
 511 541 495 541 471 545 c 1
 461 329 l 1
 461 141 496 60 598 -30 c 1
 598 -30 577 -84 490 -84 c 0
 393 -84 326 23 326 23 c 1
 326 23 258 -84 161 -84 c 0
 74 -84 57 -42 54 -30 c 1
 146 60 179 140 179 329 c 0
 179 574 67 591 67 612 c 0
 67 672 179 648 179 1083 c 0
 179 1335 148 1449 53 1562 c 1
 53 1562 74 1618 161 1618 c 0
 258 1618 326 1510 326 1510 c 1
 326 1510 393 1618 490 1618 c 0
 580 1618 595 1575 598 1563 c 1
 496 1438 461 1337 461 1093 c 0
 461 863 465 797 469 712 c 1
 489 707 507 706 529 706 c 0
 596 706 681 718 681 718 c 1
 712 891 712 1074 810 1246 c 1
 810 1246 832 1311 884 1311 c 0
 952 1311 986 1215 986 1215 c 1
 986 1215 1064 1311 1136 1311 c 0
 1241 1311 1255 1275 1256 1259 c 1
 1106 1191 1040 1020 1030 933 c 0
 993 609 826 660 826 619 c 0
 826 577 984 621 1030 291 c 0
 1040 220 1106 37 1256 -32 c 1
 1254 -47 1240 -84 1136 -84 c 0
 1064 -84 986 12 986 12 c 1
 986 12 952 -84 884 -84 c 0
 823 -84 812 -24 812 -24 c 1
 785 23 688 385 682 527 c 1
EndSplineSet
EndChar

StartChar: IJ
Encoding: 306 306 316
Width: 1500
Flags: HW
LayerCount: 2
Fore
SplineSet
180 375 m 0
 180 726 71 722 71 756 c 0
 71 801 180 770 180 1148 c 0
 180 1338 149 1415 59 1503 c 1
 59 1503 63 1562 164 1562 c 0
 268 1562 329 1457 329 1457 c 1
 329 1457 391 1562 494 1562 c 0
 596 1562 600 1503 600 1503 c 1
 510 1415 479 1338 479 1148 c 0
 479 770 588 801 588 756 c 0
 588 722 479 726 479 375 c 0
 479 169 510 80 600 -14 c 1
 600 -14 596 -74 494 -74 c 0
 391 -74 329 41 329 41 c 1
 329 41 268 -74 164 -74 c 0
 64 -74 59 -14 59 -14 c 1
 149 80 180 169 180 375 c 0
953 -147 m 0
 898 -147 839 -163 767 -207 c 1
 767 -207 727 -202 727 -136 c 0
 727 -69 784 -27 784 -27 c 1
 784 -27 727 17 727 91 c 0
 727 157 767 162 767 162 c 1
 805 115 846 93 922 93 c 0
 1032 93 1033 200 1033 387 c 0
 1033 736 925 726 925 759 c 0
 925 804 1033 770 1033 1148 c 0
 1033 1321 1002 1421 912 1503 c 1
 912 1503 918 1562 1017 1562 c 0
 1119 1562 1180 1457 1180 1457 c 1
 1180 1457 1239 1562 1347 1562 c 0
 1448 1562 1453 1503 1453 1503 c 1
 1361 1421 1332 1321 1332 1148 c 0
 1332 770 1439 801 1439 756 c 0
 1439 723 1332 727 1332 386 c 0
 1332 7 1223 -147 953 -147 c 0
EndSplineSet
EndChar

StartChar: dotaccentcmb
Encoding: 775 775 344
Width: 414
Flags: HW
LayerCount: 2
Fore
SplineSet
82 1253 m 0
 82 1320 135 1377 206 1377 c 0
 277 1377 330 1320 330 1253 c 0
 330 1186 277 1129 206 1129 c 0
 135 1129 82 1186 82 1253 c 0
EndSplineSet
EndChar

StartChar: commaaccent
Encoding: 65542 -1 345
Width: 476
Flags: HW
LayerCount: 2
Fore
SplineSet
100 -353 m 1
 100 -259 l 1
 203 -233 262 -179 262 -57 c 1
 260 -57 l 1
 233 -69 191 -73 152 -73 c 1
 121 -32 90 33 90 113 c 1
 111 156 164 189 228 189 c 0
 279 189 323 175 362 154 c 1
 379 91 389 23 389 -48 c 0
 389 -230 276 -337 100 -353 c 1
EndSplineSet
EndChar

StartChar: dotlessj
Encoding: 567 567 346
Width: 816
Flags: HW
LayerCount: 2
Fore
SplineSet
277 -289 m 0
 222 -289 163 -305 91 -349 c 1
 91 -349 51 -344 51 -278 c 0
 51 -211 108 -169 108 -169 c 1
 108 -169 51 -125 51 -51 c 0
 51 15 91 20 91 20 c 1
 129 -27 170 -49 246 -49 c 0
 356 -49 357 58 357 245 c 0
 357 594 249 584 249 617 c 0
 249 662 357 628 357 1006 c 0
 357 1179 326 1279 236 1361 c 1
 236 1361 242 1420 341 1420 c 0
 443 1420 504 1335 504 1335 c 1
 504 1335 563 1420 671 1420 c 0
 772 1420 777 1361 777 1361 c 1
 685 1279 656 1179 656 1006 c 0
 656 628 763 659 763 614 c 0
 763 581 656 585 656 244 c 0
 656 -135 547 -289 277 -289 c 0
EndSplineSet
EndChar

StartChar: uni0311
Encoding: 785 785 347
Width: 776
Flags: HW
LayerCount: 2
Fore
SplineSet
194 1106 m 1
 78 1106 l 1
 86 1283 196 1415 381 1415 c 0
 571 1415 683 1294 696 1106 c 1
 579 1106 l 1
 560 1218 491 1268 382 1268 c 0
 278 1268 209 1209 194 1106 c 1
EndSplineSet
EndChar

StartChar: uni0326
Encoding: 806 806 348
Width: 476
Flags: HW
LayerCount: 2
Fore
SplineSet
100 -353 m 1
 100 -259 l 1
 203 -233 262 -179 262 -57 c 1
 260 -57 l 1
 233 -69 191 -73 152 -73 c 1
 121 -32 90 33 90 113 c 1
 111 156 164 189 228 189 c 0
 279 189 323 175 362 154 c 1
 379 91 389 23 389 -48 c 0
 389 -230 276 -337 100 -353 c 1
EndSplineSet
EndChar

StartChar: uni030F
Encoding: 783 783 349
Width: 902
Flags: HW
LayerCount: 2
Fore
SplineSet
462 1103 m 1
 344 1103 l 1
 181 1272 l 2
 134 1320 94 1361 70 1410 c 1
 89 1430 122 1446 167 1446 c 0
 242 1446 289 1399 337 1361 c 1
 462 1103 l 1
828 1103 m 1
 710 1103 l 1
 547 1272 l 2
 501 1319 462 1361 437 1410 c 1
 452 1430 481 1446 524 1446 c 0
 604 1446 652 1399 703 1361 c 1
 828 1103 l 1
EndSplineSet
EndChar

StartChar: A.alt
Encoding: 65543 -1 350
Width: 1390
Flags: HW
LayerCount: 2
Fore
SplineSet
1166 375 m 0
 1189 169 1232 80 1337 -14 c 1
 1337 -14 1338 -74 1241 -74 c 0
 1150 -74 1088 11 1088 11 c 1
 1088 11 1035 -74 922 -74 c 0
 820 -74 809 -14 809 -14 c 1
 853 61 878 134 878 256 c 0
 878 400 860 520 836 601 c 1
 809 627 749 640 689 640 c 0
 631 640 572 627 546 602 c 1
 522 521 505 402 505 257 c 0
 505 134 529 61 573 -14 c 1
 573 -14 562 -74 461 -74 c 0
 347 -74 294 11 294 11 c 1
 294 11 232 -74 141 -74 c 0
 44 -74 45 -14 45 -14 c 1
 150 80 193 169 216 375 c 0
 222 428 224 473 224 510 c 0
 224 721 160 726 160 754 c 0
 160 802 291 765 341 1148 c 1
 343 1188 346 1226 346 1263 c 0
 346 1346 322 1425 238 1503 c 1
 238 1503 250 1562 350 1562 c 0
 473 1562 530 1456 530 1456 c 1
 564 1531 629 1562 690 1562 c 0
 753 1562 814 1526 852 1456 c 1
 852 1456 909 1562 1032 1562 c 0
 1132 1562 1144 1503 1144 1503 c 1
 1060 1429 1036 1351 1036 1265 c 0
 1036 1228 1039 1189 1041 1148 c 1
 1090 770 1217 801 1222 756 c 1
 1222 727 1157 725 1157 510 c 0
 1157 473 1160 428 1166 375 c 0
582 857 m 0
 581 854 581 852 581 849 c 0
 581 810 638 790 689 790 c 0
 743 790 800 810 800 850 c 0
 800 853 800 855 799 858 c 0
 788 917 729 1367 693 1367 c 0
 656 1367 593 915 582 857 c 0
EndSplineSet
EndChar

StartChar: Z.alt
Encoding: 65544 -1 351
Width: 1189
Flags: HW
LayerCount: 2
Fore
SplineSet
388 828 m 1
 391 832 l 1
 395 844 453 838 570 1039 c 1
 570 1038 l 1
 606 1108 675 1255 675 1255 c 1
 675 1255 485 1246 359 1246 c 0
 263 1246 210 1220 159 1162 c 1
 159 1162 128 1180 128 1236 c 0
 128 1305 197 1357 205 1363 c 1
 199 1366 128 1416 128 1485 c 0
 128 1542 151 1557 161 1560 c 1
 232 1506 291 1488 349 1488 c 0
 387 1488 417 1509 449 1529 c 1
 448 1529 l 1
 473 1546 499 1561 525 1561 c 0
 560 1561 605 1529 656 1461 c 1
 656 1461 719 1561 811 1561 c 0
 906 1561 913 1478 913 1438 c 1
 913 1438 1007 1561 1077 1561 c 0
 1107 1561 1132 1528 1132 1472 c 0
 1132 1461 1131 1449 1126 1436 c 1
 1026 1350 983 1253 884 994 c 0
 832 860 814 795 814 750 c 0
 814 701 836 676 836 665 c 0
 836 664 833 663 826 661 c 1
 826 662 l 1
 791 648 714 618 579 246 c 1
 713 246 746 240 869 240 c 0
 971 240 1023 266 1075 327 c 1
 1075 327 1108 307 1108 251 c 0
 1108 183 1036 133 1028 129 c 1
 1045 116 1108 67 1108 2 c 0
 1108 -61 1081 -72 1074 -74 c 1
 1001 -20 937 0 880 0 c 0
 796 0 735 -75 668 -75 c 0
 631 -75 591 -45 543 18 c 1
 528 18 526 15 524 11 c 0
 509 -11 470 -75 413 -75 c 0
 313 -75 305 -17 305 -1 c 2
 305 46 l 1
 305 46 197 -76 119 -76 c 0
 90 -76 50 -50 50 -1 c 0
 50 7 51 14 55 24 c 1
 175 116 227 223 347 477 c 1
 388 615 411 695 411 747 c 0
 411 794 388 818 388 828 c 1
EndSplineSet
EndChar

StartChar: W.alt
Encoding: 65545 -1 352
Width: 1612
Flags: HW
LayerCount: 2
Fore
SplineSet
814 809 m 1
 611 232 l 1
 638 121 680 55 753 -14 c 1
 753 -17 753 -74 654 -74 c 0
 552 -74 483 41 483 41 c 1
 483 41 438 -74 346 -74 c 0
 246 -74 234 -14 234 -14 c 1
 293 57 320 125 320 243 c 0
 320 280 318 324 312 375 c 0
 275 737 164 721 164 759 c 0
 164 793 215 784 215 1000 c 0
 215 1286 159 1401 45 1503 c 1
 45 1503 44 1562 144 1562 c 0
 247 1562 318 1457 318 1457 c 1
 318 1457 368 1562 474 1562 c 0
 575 1562 586 1503 586 1503 c 1
 524 1436 498 1375 498 1266 c 0
 498 1232 500 1193 506 1148 c 1
 516 876 531 754 545 698 c 1
 734 1257 l 1
 884 1257 l 1
 1074 711 l 1
 1087 770 1098 893 1106 1148 c 1
 1111 1193 1114 1232 1114 1266 c 0
 1114 1375 1087 1436 1026 1503 c 1
 1026 1503 1037 1562 1138 1562 c 0
 1244 1562 1294 1457 1294 1457 c 1
 1294 1457 1365 1562 1468 1562 c 0
 1568 1562 1567 1503 1567 1503 c 1
 1453 1401 1397 1286 1397 1000 c 0
 1397 784 1449 793 1449 759 c 0
 1449 721 1336 737 1300 375 c 1
 1296 324 1291 280 1291 243 c 0
 1291 125 1319 57 1378 -14 c 1
 1378 -14 1366 -74 1266 -74 c 0
 1174 -74 1130 41 1130 41 c 1
 1130 41 1060 -74 958 -74 c 0
 859 -74 859 -17 859 -14 c 1
 938 61 980 131 1005 260 c 1
 814 809 l 1
EndSplineSet
EndChar
